<?xml version="1.0" encoding="UTF-8"?><svg xmlns="http://www.w3.org/2000/svg" xmlns:xlink="http://www.w3.org/1999/xlink" width="375" zoomAndPan="magnify" viewBox="0 0 375 374.999991" height="374.999991" preserveAspectRatio="xMidYMid meet" version="1.0"><defs><clipPath id="clip-0"><path d="M 0 178.359375 L 375 178.359375 L 375 300 L 0 300 Z M 0 178.359375 " clip-rule="nonzero"/></clipPath><clipPath id="clip-1"><path d="M 58 44.042969 L 316 44.042969 L 316 330.96875 L 58 330.96875 Z M 58 44.042969 " clip-rule="nonzero"/></clipPath></defs><path fill="rgb(29.798889%, 43.528748%, 74.899292%)" d="M 301.140625 295.398438 C 301.714844 298.386719 304.585938 292.644531 308.316406 283.175781 C 308.027344 285.355469 307.28125 285.695312 306.996094 288.628906 C 306.824219 290.457031 306.308594 295.335938 308.71875 296.664062 C 310.441406 297.632812 312.851562 296.375 313.769531 295.855469 C 315.488281 297 320.3125 299.929688 326.96875 299.707031 C 331.503906 299.53125 334.945312 297.984375 336.78125 296.949219 C 337.472656 297.574219 341.316406 300.90625 346.882812 300.445312 C 353.886719 299.929688 357.445312 293.902344 357.671875 293.390625 C 360.65625 294.707031 364.160156 294.304688 366.742188 292.292969 C 370.644531 289.308594 370.300781 284.546875 370.300781 284.257812 C 369.609375 283.226562 367.488281 280.414062 363.585938 279.09375 C 357.902344 277.199219 353.023438 280.070312 352.277344 280.527344 C 350.902344 279.902344 348.144531 278.871094 344.585938 279.042969 C 341.085938 279.207031 338.445312 280.414062 337.125 281.101562 C 335.980469 280.589844 333.796875 279.730469 330.984375 279.839844 C 329.035156 279.902344 327.425781 280.414062 326.394531 280.816406 C 327.773438 279.550781 329.722656 277.433594 330.929688 274.386719 C 333.453125 267.785156 329.78125 263.832031 331.558594 257.28125 C 333.167969 251.316406 336.953125 252.230469 339.652344 246.035156 C 343.210938 237.828125 341.375 224.914062 333.683594 221.121094 C 332.421875 220.496094 331.101562 220.144531 329.839844 220.035156 L 335.519531 200.980469 C 335.921875 198.734375 336.667969 193.058594 333.453125 187.605469 C 332.765625 186.457031 329.609375 181.113281 325.992188 181.460938 C 323.007812 181.75 321.058594 185.769531 319.105469 191.046875 C 313.652344 205.621094 312.503906 217.625 312.503906 217.625 C 310.667969 236.789062 306.710938 235.46875 303.207031 257.632812 C 301.832031 266.414062 298.042969 279.550781 301.140625 295.398438 Z M 73.925781 296.261719 C 73.351562 299.246094 70.484375 293.507812 66.753906 284.035156 C 67.039062 286.214844 67.785156 286.554688 68.074219 289.488281 C 68.246094 291.320312 68.761719 296.199219 66.351562 297.523438 C 64.628906 298.492188 62.21875 297.238281 61.300781 296.714844 C 59.578125 297.863281 54.753906 300.789062 48.097656 300.566406 C 43.5625 300.394531 40.121094 298.84375 38.285156 297.8125 C 37.597656 298.4375 33.75 301.765625 28.183594 301.304688 C 21.179688 300.789062 17.625 294.761719 17.394531 294.253906 C 14.410156 295.566406 10.910156 295.164062 8.328125 293.15625 C 4.421875 290.171875 4.765625 285.40625 4.765625 285.121094 C 5.457031 284.085938 7.578125 281.273438 11.484375 279.953125 C 17.164062 278.058594 22.042969 280.929688 22.789062 281.390625 C 24.164062 280.761719 26.921875 279.730469 30.476562 279.902344 C 33.980469 280.070312 36.617188 281.273438 37.9375 281.964844 C 39.085938 281.453125 41.269531 280.589844 44.078125 280.699219 C 46.03125 280.761719 47.640625 281.273438 48.671875 281.675781 C 47.292969 280.414062 45.34375 278.296875 44.136719 275.246094 C 41.613281 268.644531 45.285156 264.691406 43.507812 258.140625 C 41.902344 252.179688 38.113281 253.089844 35.414062 246.898438 C 31.855469 238.691406 33.691406 225.773438 41.382812 221.980469 C 42.644531 221.355469 43.964844 221.003906 45.226562 220.894531 L 39.546875 201.839844 C 39.144531 199.59375 38.398438 193.917969 41.613281 188.464844 C 42.300781 187.316406 45.457031 181.972656 49.074219 182.324219 C 52.058594 182.609375 54.007812 186.628906 55.960938 191.910156 C 61.414062 206.484375 62.5625 218.484375 62.5625 218.484375 C 64.398438 237.652344 68.359375 236.332031 71.859375 258.492188 C 73.296875 267.273438 77.082031 280.476562 73.925781 296.261719 " fill-opacity="1" fill-rule="nonzero"/><g clip-path="url(#clip-0)"><path fill="rgb(5.879211%, 5.488586%, 4.708862%)" d="M 370.757812 290.171875 C 369.957031 290.746094 369.09375 291.210938 368.175781 291.496094 L 361.347656 283.683594 C 365.652344 283.058594 369.957031 282.484375 374.203125 281.964844 C 374.890625 284.71875 373.457031 288.164062 370.757812 290.171875 Z M 361.691406 291.03125 C 361.632812 290.976562 361.519531 290.976562 361.460938 291.03125 C 361.402344 291.09375 361.289062 291.148438 361.289062 291.210938 C 360.828125 292.292969 360.199219 293.269531 359.453125 294.132812 C 358.878906 294.824219 358.191406 295.398438 357.5 295.855469 L 347.113281 285.867188 C 351.589844 285.121094 356.066406 284.496094 360.601562 283.800781 L 367.488281 291.667969 C 365.59375 292.070312 363.527344 291.894531 361.691406 291.03125 Z M 349.066406 297.984375 C 344.875 297.746094 341.832031 295.6875 340.398438 294.476562 C 340.339844 294.417969 340.285156 294.417969 340.167969 294.417969 C 340.113281 294.417969 340.054688 294.417969 339.996094 294.476562 C 339.421875 294.824219 338.675781 295.28125 337.699219 295.6875 L 331.617188 288.5625 C 334.542969 288.054688 337.527344 287.480469 340.457031 287.015625 C 342.351562 286.667969 344.300781 286.382812 346.195312 286.042969 L 356.8125 296.261719 C 353.769531 298.035156 350.269531 298.035156 349.066406 297.984375 Z M 329.492188 296.886719 C 327.140625 296.601562 324.960938 295.855469 322.835938 294.539062 C 322.089844 294.253906 319.738281 293.21875 318.875 290.976562 C 322.894531 290.171875 326.910156 289.375 330.929688 288.628906 L 337.070312 295.855469 C 335.117188 296.664062 332.476562 297.289062 329.492188 296.886719 Z M 313.308594 295.398438 L 320.253906 271.457031 L 335.863281 264.628906 C 336.035156 266.699219 335.921875 268.875 334.886719 271.457031 C 333.855469 274.164062 332.078125 276.625 329.722656 278.804688 C 326.566406 279.328125 322.949219 280.589844 320.425781 283.683594 C 319.507812 284.78125 317.15625 287.652344 318.128906 290.859375 C 318.417969 291.835938 318.933594 292.582031 319.566406 293.21875 C 317.613281 295.226562 315.144531 295.855469 313.308594 295.398438 Z M 312.734375 295.164062 C 312.503906 295.050781 312.21875 294.941406 312.046875 294.761719 C 310.667969 293.730469 310.441406 291.785156 310.382812 291.148438 C 310.09375 288.800781 310.898438 286.957031 311.585938 285.523438 C 311.703125 285.234375 311.816406 284.949219 311.933594 284.71875 C 313.078125 282.027344 312.621094 280.070312 312.046875 277.65625 C 311.644531 275.9375 311.1875 274.042969 311.128906 271.292969 C 311.070312 269.683594 311.1875 268.539062 311.414062 267.390625 L 318.703125 274.671875 Z M 310.210938 287.015625 L 307.28125 293.390625 C 306.710938 294.078125 305.734375 294.878906 305.160156 294.878906 C 307.339844 276.171875 310.667969 257.394531 315.03125 239.027344 C 319.394531 220.832031 324.902344 202.699219 331.386719 185.128906 C 331.445312 184.957031 331.386719 184.785156 331.214844 184.734375 C 331.042969 184.671875 330.871094 184.734375 330.8125 184.90625 C 324.328125 202.464844 318.820312 220.660156 314.457031 238.914062 C 310.09375 257.058594 306.824219 275.648438 304.644531 294.253906 C 304.585938 293.964844 304.527344 293.507812 304.585938 292.816406 C 305.617188 266.292969 306.191406 252.976562 309.003906 242.472656 C 309.578125 240.296875 309.980469 238.914062 310.496094 237.253906 C 311.128906 235.066406 311.875 232.664062 313.195312 227.722656 C 314.054688 224.511719 314.800781 221.980469 315.375 219.972656 C 316.582031 215.78125 317.328125 213.257812 317.785156 210.042969 C 318.1875 206.941406 322.894531 183.011719 328.746094 179.621094 C 329.4375 179.21875 330.125 179.167969 330.8125 179.453125 C 337.472656 182.152344 339.136719 191.621094 337.414062 197.183594 C 335.863281 202.242188 333.050781 214.691406 332.59375 216.589844 C 327.082031 216.816406 321.402344 220.660156 319.105469 225.085938 C 318.074219 227.03125 318.015625 228.410156 317.84375 231.226562 C 317.726562 233.523438 317.554688 236.734375 316.753906 241.898438 C 316.234375 245.113281 315.777344 247.351562 315.203125 250.222656 C 313.710938 257.453125 312.503906 261.300781 311.757812 263.882812 C 310.839844 266.816406 310.382812 268.25 310.496094 271.40625 C 310.613281 274.164062 311.070312 276.222656 311.472656 277.894531 C 312.046875 280.304688 312.449219 282.078125 311.359375 284.546875 C 311.242188 284.78125 311.128906 285.066406 311.011719 285.355469 C 310.726562 285.757812 310.441406 286.382812 310.210938 287.015625 Z M 336.4375 217.675781 C 343.785156 220.144531 346.710938 231.453125 344.359375 239.550781 C 343.382812 242.878906 341.832031 244.367188 340.167969 245.972656 C 339.363281 246.777344 338.5625 247.523438 337.816406 248.558594 L 326.507812 249.59375 L 333.625 225.085938 C 333.683594 224.914062 333.570312 224.734375 333.394531 224.679688 C 333.222656 224.628906 333.050781 224.734375 332.996094 224.914062 L 330.355469 233.984375 L 320.539062 223.816406 C 323.925781 219.28125 330.929688 215.839844 336.4375 217.675781 Z M 315.433594 252.117188 C 315.546875 251.542969 315.664062 250.914062 315.835938 250.277344 C 316.410156 247.410156 316.867188 245.175781 317.382812 241.957031 C 318.1875 236.734375 318.359375 233.523438 318.472656 231.226562 C 318.648438 228.53125 318.703125 227.148438 319.621094 225.375 C 319.792969 225.023438 320.023438 224.679688 320.253906 224.339844 L 330.238281 234.671875 L 325.878906 249.882812 L 323.066406 259.691406 Z M 322.777344 260.386719 L 318.875 273.992188 L 311.53125 266.636719 C 311.703125 265.839844 311.988281 265.03125 312.332031 263.996094 C 313.023438 261.757812 314.054688 258.542969 315.261719 252.863281 Z M 335.691406 253.261719 C 334.832031 256.65625 335.175781 259.351562 335.519531 261.9375 C 335.636719 262.621094 335.691406 263.257812 335.75 263.882812 L 320.425781 270.597656 L 326.335938 250.222656 L 337.355469 249.195312 C 336.726562 250.277344 336.152344 251.605469 335.691406 253.261719 Z M 321.917969 289.710938 C 320.828125 289.945312 319.792969 290.113281 318.703125 290.347656 C 318.074219 287.589844 320.140625 285.003906 320.941406 284.035156 C 323.007812 281.5625 325.878906 280.304688 328.574219 279.667969 Z M 334.945312 278.976562 C 337.183594 278.976562 339.480469 279.207031 341.660156 279.78125 C 341.777344 279.78125 341.890625 279.78125 341.949219 279.730469 C 342.523438 279.15625 343.496094 278.402344 344.816406 277.773438 L 338.90625 286.503906 C 336.265625 286.957031 333.570312 287.414062 330.871094 287.9375 L 330.8125 287.9375 C 328.058594 288.449219 325.363281 288.964844 322.664062 289.488281 L 329.320312 279.441406 C 331.730469 279.042969 333.796875 279.042969 334.945312 278.976562 Z M 345.964844 277.433594 C 346.710938 277.199219 347.457031 277.03125 348.375 276.910156 C 351.359375 276.683594 353.65625 277.773438 354.804688 278.46875 C 354.917969 278.519531 355.035156 278.519531 355.089844 278.46875 C 356.410156 277.832031 357.789062 277.320312 359.164062 277.03125 L 354.6875 283.972656 C 349.925781 284.71875 345.160156 285.46875 340.398438 286.269531 C 340.226562 286.332031 340.054688 286.332031 339.882812 286.382812 Z M 360.027344 276.910156 C 361.230469 276.683594 362.378906 276.625 363.585938 276.683594 C 370.703125 277.03125 373.167969 279.378906 373.972656 281.390625 C 369.554688 281.964844 365.132812 282.535156 360.714844 283.175781 L 360.542969 283.175781 C 358.878906 283.398438 357.214844 283.632812 355.492188 283.921875 Z M 374.660156 281.335938 C 373.511719 278.058594 369.78125 276.285156 363.585938 276 C 362.320312 275.9375 361.058594 276.050781 359.796875 276.285156 L 359.683594 276.285156 C 358.074219 276.574219 356.410156 277.085938 354.917969 277.832031 C 353.714844 277.085938 351.304688 276 348.261719 276.285156 C 347.285156 276.335938 346.425781 276.574219 345.679688 276.796875 L 345.621094 276.796875 C 343.785156 277.433594 342.464844 278.402344 341.660156 279.09375 C 339.480469 278.519531 337.183594 278.296875 334.945312 278.296875 C 334.027344 278.296875 332.535156 278.296875 330.8125 278.519531 C 332.9375 276.457031 334.488281 274.097656 335.460938 271.578125 C 336.554688 268.710938 336.609375 266.292969 336.4375 264.054688 C 336.382812 263.308594 336.265625 262.5625 336.152344 261.820312 C 335.808594 259.289062 335.460938 256.65625 336.265625 253.378906 C 336.726562 251.488281 337.414062 250.105469 338.21875 249.023438 C 338.964844 247.984375 339.765625 247.238281 340.570312 246.375 C 342.234375 244.769531 343.898438 243.167969 344.933594 239.660156 C 347.054688 232.3125 344.875 219.855469 336.554688 217.050781 C 335.460938 216.644531 334.257812 216.476562 333.109375 216.476562 C 333.625 214.117188 336.324219 202.179688 337.875 197.246094 C 339.59375 191.558594 338.160156 181.6875 330.871094 178.707031 C 330.011719 178.359375 329.09375 178.421875 328.230469 178.929688 C 322.03125 182.492188 317.382812 206.546875 316.925781 209.875 C 316.523438 213.03125 315.777344 215.550781 314.570312 219.683594 C 313.996094 221.695312 313.25 224.277344 312.390625 227.433594 C 311.070312 232.3125 310.324219 234.78125 309.695312 236.96875 C 309.234375 238.625 308.773438 240.0625 308.203125 242.183594 C 305.332031 252.6875 304.816406 266.0625 303.78125 292.644531 C 303.726562 293.679688 303.78125 294.878906 304.527344 295.28125 L 304.585938 295.28125 C 304.757812 295.335938 304.871094 295.398438 305.042969 295.398438 C 306.136719 295.398438 307.457031 293.964844 307.742188 293.679688 L 307.800781 293.613281 L 309.578125 289.710938 C 309.578125 290.171875 309.578125 290.636719 309.636719 291.148438 C 309.75 291.835938 309.980469 294.015625 311.585938 295.226562 C 311.933594 295.453125 312.277344 295.625 312.734375 295.800781 C 312.734375 295.800781 312.792969 295.855469 312.851562 295.855469 L 312.90625 295.855469 C 313.425781 296.027344 313.941406 296.089844 314.570312 296.089844 C 316.351562 296.089844 318.417969 295.28125 320.082031 293.558594 C 321.113281 294.417969 322.203125 294.878906 322.605469 295.050781 C 324.730469 296.375 327.027344 297.238281 329.492188 297.460938 C 334.371094 298.035156 338.21875 296.199219 340.226562 294.992188 C 341.777344 296.261719 344.875 298.269531 349.066406 298.492188 L 349.8125 298.492188 C 351.53125 298.492188 354.746094 298.207031 357.617188 296.425781 C 357.671875 296.425781 357.730469 296.375 357.730469 296.375 C 358.535156 295.855469 359.28125 295.226562 359.96875 294.476562 C 360.714844 293.679688 361.289062 292.695312 361.75 291.667969 C 363.8125 292.53125 366.109375 292.644531 368.175781 292.070312 C 369.210938 291.785156 370.242188 291.261719 371.160156 290.636719 C 374.203125 288.390625 375.75 284.375 374.660156 281.335938 Z M 70.539062 295.113281 C 68.359375 276.574219 65.089844 257.96875 60.726562 239.773438 C 56.363281 221.523438 50.851562 203.390625 44.367188 185.769531 C 44.3125 185.59375 44.136719 185.53125 43.964844 185.59375 C 43.792969 185.648438 43.738281 185.820312 43.792969 185.992188 C 50.277344 203.5625 55.789062 221.695312 60.152344 239.890625 C 64.515625 258.207031 67.84375 277.03125 70.023438 295.738281 C 69.449219 295.738281 68.472656 294.941406 67.902344 294.253906 L 64.972656 287.875 C 64.742188 287.191406 64.457031 286.617188 64.226562 286.097656 C 64.113281 285.808594 63.996094 285.578125 63.882812 285.292969 C 62.792969 282.773438 63.25 281.050781 63.769531 278.632812 C 64.171875 276.96875 64.628906 274.960938 64.742188 272.152344 C 64.859375 268.996094 64.398438 267.5625 63.480469 264.628906 C 62.679688 262.109375 61.472656 258.257812 60.039062 250.96875 C 59.464844 248.097656 59.003906 245.863281 58.488281 242.644531 C 57.683594 237.480469 57.511719 234.269531 57.398438 231.972656 C 57.222656 229.15625 57.164062 227.785156 56.132812 225.828125 C 53.78125 221.355469 48.15625 217.5625 42.644531 217.335938 C 42.242188 215.441406 39.433594 202.988281 37.824219 197.9375 C 36.101562 192.367188 37.824219 182.949219 44.425781 180.195312 C 45.113281 179.90625 45.800781 179.964844 46.492188 180.367188 C 52.34375 183.757812 57.050781 207.695312 57.457031 210.789062 C 57.914062 214.007812 58.601562 216.527344 59.867188 220.71875 C 60.441406 222.726562 61.1875 225.253906 62.046875 228.46875 C 63.367188 233.410156 64.113281 235.820312 64.742188 238 C 65.203125 239.660156 65.664062 241.039062 66.234375 243.21875 C 69.046875 253.664062 69.621094 266.988281 70.65625 293.558594 C 70.65625 294.304688 70.597656 294.761719 70.539062 295.113281 Z M 64.742188 292.070312 C 64.6875 292.695312 64.398438 294.652344 63.078125 295.6875 C 62.851562 295.855469 62.621094 295.972656 62.390625 296.089844 L 56.476562 275.597656 L 63.769531 268.300781 C 63.996094 269.449219 64.113281 270.597656 64.054688 272.207031 C 63.941406 274.902344 63.539062 276.859375 63.136719 278.582031 C 62.5625 281.050781 62.105469 282.9375 63.25 285.640625 C 63.367188 285.867188 63.480469 286.152344 63.597656 286.441406 C 64.226562 287.875 65.089844 289.710938 64.742188 292.070312 Z M 55.558594 294.078125 C 56.191406 293.441406 56.707031 292.695312 56.992188 291.722656 C 57.914062 288.511719 55.558594 285.640625 54.699219 284.546875 C 52.171875 281.503906 48.554688 280.242188 45.398438 279.667969 C 42.988281 277.484375 41.269531 275.023438 40.234375 272.320312 C 39.257812 269.738281 39.085938 267.5625 39.257812 265.488281 L 54.871094 272.320312 L 61.816406 296.261719 C 59.921875 296.714844 57.457031 296.140625 55.558594 294.078125 Z M 52.171875 295.453125 C 50.164062 296.714844 47.925781 297.523438 45.574219 297.8125 C 42.589844 298.148438 39.949219 297.574219 37.9375 296.773438 L 44.078125 289.539062 C 48.097656 290.285156 52.171875 291.03125 56.132812 291.894531 C 55.328125 294.078125 52.976562 295.164062 52.171875 295.453125 Z M 35.070312 295.335938 C 34.957031 295.28125 34.78125 295.28125 34.667969 295.335938 C 33.234375 296.546875 30.191406 298.609375 26 298.84375 C 24.796875 298.894531 21.238281 298.894531 18.140625 297.058594 L 28.757812 286.84375 C 30.710938 287.128906 32.601562 287.480469 34.496094 287.816406 C 37.421875 288.339844 40.40625 288.851562 43.335938 289.375 L 37.363281 296.546875 C 36.449219 296.140625 35.644531 295.6875 35.070312 295.335938 Z M 15.671875 295.050781 C 14.925781 294.1875 14.292969 293.21875 13.835938 292.121094 C 13.777344 292.070312 13.71875 291.957031 13.664062 291.957031 L 13.546875 291.957031 C 13.492188 291.957031 13.433594 291.957031 13.433594 292.007812 C 11.597656 292.867188 9.53125 293.039062 7.636719 292.644531 L 14.523438 284.78125 C 19 285.40625 23.535156 286.09375 28.011719 286.84375 L 17.625 296.835938 C 16.933594 296.261719 16.246094 295.6875 15.671875 295.050781 Z M 6.949219 292.359375 C 6.03125 292.070312 5.167969 291.605469 4.363281 291.03125 C 1.609375 289.023438 0.234375 285.578125 0.921875 282.824219 C 5.226562 283.347656 9.472656 283.921875 13.777344 284.546875 Z M 11.484375 277.542969 C 12.632812 277.484375 13.835938 277.605469 15.039062 277.773438 L 19.519531 284.78125 C 17.851562 284.546875 16.1875 284.257812 14.46875 284.035156 L 14.292969 284.035156 C 9.875 283.398438 5.457031 282.824219 1.035156 282.25 C 1.898438 280.242188 4.363281 277.894531 11.484375 277.542969 Z M 20.035156 279.378906 C 20.148438 279.441406 20.261719 279.441406 20.320312 279.378906 C 21.410156 278.691406 23.707031 277.605469 26.746094 277.832031 C 27.609375 277.894531 28.414062 278.058594 29.15625 278.347656 L 35.242188 287.300781 C 35.070312 287.242188 34.898438 287.242188 34.726562 287.191406 C 30.019531 286.382812 25.199219 285.640625 20.433594 284.894531 L 15.957031 277.945312 C 17.335938 278.296875 18.710938 278.753906 20.035156 279.378906 Z M 46.546875 280.527344 C 49.246094 281.164062 52.113281 282.421875 54.179688 284.894531 C 54.984375 285.867188 57.050781 288.449219 56.417969 291.210938 C 55.328125 290.976562 54.296875 290.808594 53.207031 290.574219 Z M 33.0625 280.644531 C 33.121094 280.699219 33.234375 280.761719 33.347656 280.699219 C 35.527344 280.125 37.824219 279.839844 40.0625 279.902344 C 41.269531 279.902344 43.335938 279.953125 45.632812 280.355469 L 52.285156 290.402344 C 49.589844 289.882812 46.835938 289.375 44.136719 288.851562 L 44.078125 288.851562 C 41.382812 288.339844 38.746094 287.875 36.101562 287.414062 L 30.191406 278.691406 C 31.511719 279.328125 32.488281 280.125 33.0625 280.644531 Z M 37.710938 250.105469 L 48.730469 251.140625 L 54.582031 271.515625 L 39.257812 264.804688 C 39.316406 264.167969 39.433594 263.480469 39.488281 262.847656 C 39.832031 260.265625 40.179688 257.566406 39.316406 254.1875 C 38.972656 252.464844 38.398438 251.203125 37.710938 250.105469 Z M 59.867188 253.785156 C 61.128906 259.40625 62.105469 262.683594 62.792969 264.914062 C 63.136719 265.953125 63.367188 266.816406 63.597656 267.5625 L 56.25 274.902344 L 52.285156 261.246094 Z M 52.113281 260.554688 L 44.882812 235.53125 L 54.871094 225.199219 C 55.101562 225.539062 55.269531 225.882812 55.503906 226.234375 C 56.417969 228.007812 56.535156 229.390625 56.648438 232.089844 C 56.765625 234.4375 56.9375 237.59375 57.742188 242.816406 C 58.257812 246.035156 58.71875 248.332031 59.292969 251.140625 C 59.40625 251.777344 59.578125 252.402344 59.695312 252.976562 Z M 34.898438 246.835938 C 33.234375 245.226562 31.683594 243.742188 30.710938 240.410156 C 28.355469 232.375 31.285156 221.066406 38.628906 218.535156 C 39.777344 218.136719 40.980469 217.964844 42.1875 218.027344 L 42.359375 218.027344 C 47.007812 218.136719 51.828125 221.003906 54.46875 224.628906 L 44.652344 234.78125 L 42.015625 225.710938 C 41.957031 225.539062 41.785156 225.425781 41.613281 225.488281 C 41.441406 225.539062 41.328125 225.710938 41.382812 225.882812 L 48.5 250.394531 L 37.191406 249.359375 C 36.503906 248.449219 35.703125 247.636719 34.898438 246.835938 Z M 66.808594 243.167969 C 66.234375 240.984375 65.777344 239.550781 65.316406 237.9375 C 64.6875 235.757812 63.941406 233.347656 62.621094 228.410156 C 61.757812 225.199219 61.011719 222.667969 60.441406 220.660156 C 59.234375 216.527344 58.488281 214.007812 58.085938 210.851562 C 57.628906 207.578125 52.976562 183.523438 46.777344 179.90625 C 45.917969 179.390625 45 179.332031 44.136719 179.679688 C 36.851562 182.664062 35.414062 192.535156 37.136719 198.222656 C 38.628906 203.152344 41.382812 215.09375 41.902344 217.453125 C 40.753906 217.453125 39.546875 217.625 38.457031 218.027344 C 30.136719 220.832031 27.953125 233.289062 30.078125 240.636719 C 31.109375 244.144531 32.773438 245.75 34.441406 247.351562 C 35.300781 248.160156 36.101562 248.957031 36.792969 249.992188 C 37.597656 251.082031 38.226562 252.464844 38.746094 254.359375 C 39.546875 257.632812 39.203125 260.265625 38.859375 262.796875 C 38.746094 263.542969 38.6875 264.285156 38.570312 265.03125 C 38.339844 267.273438 38.398438 269.683594 39.546875 272.554688 C 40.523438 275.074219 42.070312 277.433594 44.195312 279.496094 C 42.476562 279.265625 41.039062 279.265625 40.0625 279.265625 C 37.824219 279.265625 35.527344 279.496094 33.347656 280.070312 C 32.546875 279.378906 31.226562 278.402344 29.390625 277.773438 L 29.332031 277.773438 C 28.527344 277.484375 27.722656 277.320312 26.746094 277.257812 C 23.707031 277.03125 21.296875 278.058594 20.09375 278.804688 C 18.539062 278.058594 16.933594 277.542969 15.269531 277.257812 L 15.214844 277.257812 C 13.949219 277.03125 12.6875 276.910156 11.425781 276.96875 C 5.226562 277.257812 1.496094 279.042969 0.347656 282.3125 C -0.742188 285.355469 0.808594 289.375 3.90625 291.667969 C 4.824219 292.359375 5.800781 292.816406 6.890625 293.105469 C 8.957031 293.679688 11.25 293.558594 13.320312 292.695312 C 13.777344 293.730469 14.410156 294.652344 15.097656 295.515625 C 15.789062 296.3125 16.53125 296.886719 17.335938 297.410156 C 17.394531 297.460938 17.394531 297.460938 17.449219 297.460938 C 20.320312 299.246094 23.535156 299.53125 25.257812 299.53125 L 26 299.53125 C 30.191406 299.296875 33.292969 297.289062 34.839844 296.027344 C 35.472656 296.425781 36.277344 296.835938 37.25 297.238281 C 39.375 298.097656 42.242188 298.84375 45.574219 298.4375 C 47.984375 298.148438 50.335938 297.347656 52.34375 296.027344 C 52.804688 295.855469 53.894531 295.398438 54.929688 294.476562 C 56.589844 296.261719 58.601562 297.058594 60.382812 297.058594 C 61.011719 297.058594 61.585938 296.949219 62.105469 296.773438 C 62.5625 296.601562 62.964844 296.425781 63.308594 296.140625 C 64.859375 294.992188 65.144531 292.816406 65.261719 292.070312 C 65.316406 291.546875 65.316406 291.09375 65.316406 290.636719 L 67.097656 294.539062 L 67.15625 294.589844 C 67.441406 294.941406 68.761719 296.3125 69.851562 296.3125 C 70.023438 296.3125 70.195312 296.261719 70.3125 296.199219 L 70.367188 296.199219 C 71.113281 295.800781 71.171875 294.589844 71.113281 293.558594 C 70.195312 267.039062 69.679688 253.722656 66.808594 243.167969 " fill-opacity="1" fill-rule="nonzero"/></g><path fill="rgb(100%, 100%, 100%)" d="M 89.539062 138.179688 L 61.585938 138.179688 L 61.585938 297.289062 L 75.476562 297.289062 L 60.667969 310.949219 L 64.226562 315.140625 L 80.066406 303.488281 C 81.214844 301.425781 82.363281 299.355469 83.453125 297.289062 L 84.085938 297.289062 L 83.453125 322.140625 L 89.480469 322.140625 L 95.21875 297.289062 L 276.292969 297.289062 L 283.179688 326.96875 L 289.203125 326.96875 L 288.515625 300.851562 C 289.894531 303.316406 291.269531 305.847656 292.589844 308.316406 L 308.429688 319.960938 L 311.988281 315.777344 L 295.917969 300.90625 C 295.976562 299.707031 296.035156 298.558594 296.089844 297.347656 L 309.347656 297.347656 L 309.347656 138.179688 L 89.539062 138.179688 " fill-opacity="1" fill-rule="nonzero"/><path fill="rgb(29.798889%, 43.528748%, 74.899292%)" d="M 122.59375 304.585938 L 122.59375 289.828125 L 213.792969 289.828125 L 213.792969 314.566406 L 213.847656 314.566406 L 198.179688 314.566406 L 198.179688 329.316406 L 122.421875 329.316406 M 122.480469 329.316406 L 106.925781 329.316406 L 106.925781 304.585938 L 122.59375 304.585938 " fill-opacity="1" fill-rule="nonzero"/><path fill="rgb(29.798889%, 43.528748%, 74.899292%)" d="M 80.757812 240.636719 L 152.324219 240.636719 L 152.324219 245.972656 L 80.757812 245.972656 Z M 141.304688 183.183594 L 111.117188 183.183594 L 111.117188 179.167969 L 141.304688 179.167969 Z M 154.675781 176.808594 L 111.117188 176.808594 L 111.117188 172.789062 L 154.675781 172.789062 Z M 119.957031 275.363281 C 119.957031 277.773438 117.945312 279.78125 115.535156 279.78125 L 94.589844 279.78125 C 94.589844 278.976562 94.53125 278.179688 94.359375 277.371094 C 94.070312 276.339844 93.785156 275.363281 93.496094 274.386719 C 93.269531 273.300781 93.152344 272.207031 93.152344 271.058594 L 93.152344 270.941406 L 115.59375 270.941406 C 117.945312 270.941406 119.957031 272.953125 119.957031 275.363281 Z M 155.023438 279.839844 L 128.621094 279.839844 C 126.441406 279.839844 124.71875 278.058594 124.71875 275.9375 L 124.71875 274.902344 C 124.71875 272.726562 126.496094 271.003906 128.621094 271.003906 L 155.023438 271.003906 C 157.203125 271.003906 158.925781 272.777344 158.925781 274.902344 L 158.925781 275.9375 C 158.980469 278.058594 157.203125 279.839844 155.023438 279.839844 Z M 80.757812 221.980469 L 159.382812 221.980469 L 159.382812 234.84375 L 80.757812 234.84375 Z M 237.496094 249.703125 L 205.984375 226.859375 L 178.207031 263.480469 L 167.707031 193.742188 L 299.191406 174.167969 L 309.292969 228.53125 L 272.675781 202.351562 Z M 303.609375 169.460938 L 164.03125 189.902344 L 175.914062 271.121094 L 315.488281 250.679688 L 303.609375 169.460938 " fill-opacity="1" fill-rule="nonzero"/><path fill="rgb(29.798889%, 43.528748%, 74.899292%)" d="M 298.328125 152.699219 L 288.402344 152.699219 C 287.882812 152.699219 287.484375 152.304688 287.484375 151.78125 C 287.484375 151.265625 287.882812 150.871094 288.402344 150.871094 L 298.328125 150.871094 C 298.847656 150.871094 299.25 151.265625 299.25 151.78125 C 299.25 152.304688 298.847656 152.699219 298.328125 152.699219 Z M 298.328125 155.921875 L 288.402344 155.921875 C 287.882812 155.921875 287.484375 155.511719 287.484375 154.996094 C 287.484375 154.484375 287.882812 154.078125 288.402344 154.078125 L 298.328125 154.078125 C 298.847656 154.078125 299.25 154.484375 299.25 154.996094 C 299.25 155.511719 298.847656 155.921875 298.328125 155.921875 Z M 298.328125 159.078125 L 288.402344 159.078125 C 287.882812 159.078125 287.484375 158.667969 287.484375 158.152344 C 287.484375 157.640625 287.882812 157.234375 288.402344 157.234375 L 298.328125 157.234375 C 298.847656 157.234375 299.25 157.640625 299.25 158.152344 C 299.25 158.667969 298.847656 159.078125 298.328125 159.078125 Z M 281.6875 155.972656 C 281.6875 157.867188 280.136719 159.414062 278.242188 159.414062 L 94.761719 159.414062 C 92.867188 159.414062 91.316406 157.867188 91.316406 155.972656 L 91.316406 152.761719 C 91.316406 150.871094 92.867188 149.320312 94.761719 149.320312 L 278.300781 149.320312 C 280.195312 149.320312 281.742188 150.871094 281.742188 152.761719 Z M 61.585938 146.789062 L 61.585938 162.636719 L 309.347656 162.636719 L 309.347656 146.789062 L 61.585938 146.789062 " fill-opacity="1" fill-rule="nonzero"/><path fill="rgb(29.798889%, 43.528748%, 74.899292%)" d="M 98.664062 253.328125 L 118.289062 256.25 L 118.289062 253.835938 L 104.058594 248.734375 L 92.351562 237.714844 L 76.910156 235.296875 C 75.535156 235.296875 71.285156 235.066406 67.328125 231.910156 C 62.21875 227.785156 61.703125 221.867188 61.644531 220.894531 L 59.75 220.894531 C 59.464844 223.015625 59.175781 227.433594 61.128906 232.425781 C 62.679688 236.445312 65.03125 239.085938 66.523438 240.519531 Z M 274.109375 258.140625 L 254.480469 261.074219 L 254.480469 258.664062 L 268.714844 253.550781 L 280.421875 242.53125 L 295.863281 240.125 C 297.238281 240.125 301.488281 239.890625 305.445312 236.734375 C 310.554688 232.601562 311.070312 226.6875 311.128906 225.710938 L 313.136719 225.710938 C 313.425781 227.835938 313.710938 232.261719 311.757812 237.253906 C 310.210938 241.273438 307.855469 243.90625 306.363281 245.34375 L 274.109375 258.140625 " fill-opacity="1" fill-rule="nonzero"/><path fill="rgb(100%, 100%, 100%)" d="M 117.890625 256.082031 C 118.863281 256.304688 120.300781 256.59375 122.019531 256.707031 C 124.316406 256.878906 126.957031 256.769531 127.015625 256.484375 C 127.015625 256.304688 125.980469 255.960938 120.929688 255.335938 C 122.019531 254.582031 122.539062 254.007812 122.421875 253.722656 C 122.25 253.261719 120.757812 253.261719 117.890625 253.722656 Z M 61.300781 220.71875 C 61.988281 217.335938 62.21875 215.550781 61.816406 215.441406 C 61.644531 215.378906 61.359375 215.667969 60.957031 216.355469 C 60.957031 213.605469 60.785156 212.96875 60.554688 212.910156 C 60.210938 212.859375 59.695312 214.582031 59.464844 215.730469 C 59.003906 217.789062 59.121094 219.511719 59.292969 220.71875 Z M 87.125 225.773438 C 87.125 227.433594 89.421875 228.53125 91.660156 229.730469 C 92.636719 226.976562 91.03125 222.097656 91.03125 222.097656 C 89.136719 222.90625 87.125 224.226562 87.125 225.773438 Z M 254.882812 258.492188 C 252.070312 258.027344 250.523438 258.027344 250.351562 258.492188 C 250.234375 258.832031 250.75 259.351562 251.84375 260.101562 C 246.847656 260.726562 245.757812 261.074219 245.757812 261.246094 C 245.757812 261.535156 248.457031 261.648438 250.75 261.472656 C 252.472656 261.363281 253.910156 261.074219 254.882812 260.839844 Z M 313.480469 225.539062 C 313.652344 224.339844 313.710938 222.617188 313.308594 220.546875 C 313.078125 219.398438 312.5625 217.675781 312.21875 217.738281 C 312.046875 217.738281 311.816406 218.363281 311.816406 221.183594 C 311.414062 220.496094 311.128906 220.207031 310.957031 220.257812 C 310.613281 220.375 310.785156 222.152344 311.472656 225.539062 Z M 145.953125 104.261719 C 147.273438 102.304688 147.847656 101.214844 147.617188 101.042969 C 147.503906 100.929688 147.160156 101.101562 146.640625 101.507812 C 147.101562 99.320312 147.101562 98.175781 146.816406 98.058594 C 146.355469 97.886719 145.265625 99.492188 143.542969 102.824219 Z M 155.539062 93.867188 C 159.269531 92.664062 161.046875 91.6875 160.992188 91.058594 C 160.933594 90.652344 160.1875 90.425781 158.695312 90.253906 C 161.738281 88.644531 162.3125 88.070312 162.253906 87.84375 C 162.082031 87.496094 159.613281 87.898438 157.546875 89.046875 C 155.996094 89.910156 154.90625 91 154.277344 91.800781 Z M 152.09375 132.671875 L 163.230469 137.890625 C 164.605469 137.09375 165.925781 136.285156 167.304688 135.421875 C 165.8125 133.9375 163.574219 131.8125 160.644531 129.453125 C 156.054688 125.835938 153.757812 124 150.832031 123.371094 C 144.75 122.105469 139.007812 126.527344 136.828125 128.421875 L 117.144531 139.5 L 134.648438 157.066406 L 152.726562 170.320312 L 155.539062 166.941406 L 144.347656 152.242188 L 134.304688 136.167969 L 136.484375 139.675781 C 141.59375 137.378906 146.988281 134.96875 152.09375 132.671875 Z M 281.742188 226.859375 C 281.742188 226.859375 280.136719 231.800781 281.113281 234.492188 C 283.351562 233.289062 285.644531 232.199219 285.644531 230.539062 C 285.644531 229.042969 283.636719 227.722656 281.742188 226.859375 Z M 116.398438 88.125 C 115.652344 89.273438 114.789062 90.019531 114.160156 90.535156 C 113.066406 90.363281 112.035156 90.9375 111.691406 91.855469 C 111.289062 92.945312 111.863281 94.324219 113.125 94.785156 C 113.125 95.070312 113.242188 96.160156 112.4375 97.136719 C 111.863281 97.824219 111.175781 98.113281 110.886719 98.230469 C 111.175781 99.261719 111.519531 100.292969 111.804688 101.328125 C 112.378906 101.503906 113.640625 101.839844 115.25 101.503906 C 116.511719 101.214844 117.429688 100.640625 117.890625 100.238281 L 117.890625 96.675781 C 118.464844 96.335938 119.265625 95.703125 119.898438 94.667969 C 121.390625 92.257812 120.703125 89.445312 120.183594 87.378906 C 119.898438 86.117188 119.265625 84.222656 117.832031 82.097656 C 117.945312 83.019531 118.003906 85.601562 116.398438 88.125 Z M 288.515625 297.347656 L 289.03125 297.347656 L 288.574219 300.90625 Z M 288.515625 297.347656 " fill-opacity="1" fill-rule="nonzero"/><g clip-path="url(#clip-1)"><path fill="rgb(5.879211%, 5.488586%, 4.708862%)" d="M 151.980469 171.992188 L 109.109375 171.992188 L 109.109375 175.371094 L 151.980469 175.371094 Z M 152.613281 176.011719 L 108.417969 176.011719 L 108.417969 171.296875 L 152.613281 171.296875 Z M 315.144531 250.394531 L 312.964844 235.640625 C 312.792969 236.214844 312.621094 236.789062 312.390625 237.363281 C 311.1875 240.410156 309.292969 243.28125 306.9375 245.578125 C 307.28125 245.863281 307.570312 246.203125 307.855469 246.609375 C 308.773438 247.875 309.347656 249.53125 309.464844 251.253906 Z M 309.003906 254.296875 C 306.882812 260.035156 297.871094 260.5 297.582031 265.03125 C 297.296875 268.875 303.324219 270.367188 302.863281 274.042969 C 302.632812 275.765625 301.085938 277.433594 299.074219 278.632812 C 299.074219 278.691406 299.132812 278.691406 299.132812 278.753906 C 299.191406 279.667969 299.191406 280.589844 299.019531 281.453125 C 298.730469 283.398438 298.042969 285.292969 296.894531 287.015625 L 296.4375 297 L 309.003906 297 Z M 295.746094 301.140625 C 295.691406 301.078125 295.632812 300.96875 295.632812 300.90625 L 296.320312 286.957031 C 296.320312 286.90625 296.320312 286.84375 296.378906 286.789062 C 297.46875 285.121094 298.214844 283.347656 298.445312 281.453125 C 298.558594 280.644531 298.558594 279.839844 298.558594 279.042969 C 296.378906 280.1875 293.738281 280.699219 291.671875 280.125 C 291.960938 280.988281 292.1875 282.199219 291.902344 283.683594 C 291.613281 285.121094 290.925781 286.152344 290.351562 286.789062 L 288.804688 296.886719 L 288.917969 300.851562 L 292.933594 308.195312 L 308.488281 319.621094 L 311.644531 315.890625 Z M 283.523438 326.683594 L 288.917969 326.683594 L 288.171875 296.773438 L 289.722656 286.554688 C 289.722656 286.503906 289.777344 286.441406 289.777344 286.382812 C 290.296875 285.808594 290.925781 284.832031 291.214844 283.511719 C 291.5 282.078125 291.214844 280.878906 290.925781 280.125 C 290.867188 280.070312 290.925781 279.953125 290.925781 279.902344 C 290.8125 279.839844 290.695312 279.78125 290.582031 279.730469 C 287.65625 278.179688 288.976562 274.789062 285.761719 270.367188 C 284.554688 268.710938 283.179688 267.5625 281.800781 266.699219 L 276.347656 295.910156 Z M 255.226562 260.671875 L 274.511719 257.804688 C 274.628906 257.804688 274.742188 257.804688 274.800781 257.917969 C 278.242188 254.582031 285.53125 251.371094 285.074219 247.121094 C 284.84375 245.113281 283.007812 243.855469 281.167969 242.644531 C 281.167969 242.644531 281.167969 242.707031 281.113281 242.707031 L 269.402344 253.722656 C 269.347656 253.785156 269.347656 253.785156 269.289062 253.785156 L 255.285156 258.832031 L 255.285156 260.671875 Z M 254.539062 260.789062 L 254.539062 258.886719 C 251.097656 258.316406 250.695312 258.714844 250.636719 258.714844 C 250.636719 258.714844 250.695312 259.066406 252.015625 259.980469 C 252.128906 260.035156 252.1875 260.214844 252.128906 260.324219 C 252.070312 260.4375 252.015625 260.554688 251.84375 260.554688 C 249.144531 260.898438 247.652344 261.183594 246.847656 261.300781 C 247.765625 261.363281 249.203125 261.363281 250.695312 261.300781 C 252.015625 261.300781 253.335938 261.074219 254.539062 260.789062 Z M 281.972656 227.320312 C 281.628906 228.410156 280.769531 231.855469 281.34375 234.035156 L 281.515625 233.984375 C 283.523438 232.949219 285.417969 231.910156 285.417969 230.589844 C 285.359375 229.558594 284.152344 228.410156 281.972656 227.320312 Z M 176.199219 270.71875 L 245.703125 260.554688 C 245.875 260.554688 246.046875 260.671875 246.046875 260.839844 L 246.046875 260.960938 C 246.675781 260.726562 248.054688 260.5 251.039062 260.101562 C 250.234375 259.460938 249.949219 259.003906 250.121094 258.542969 C 250.292969 258.027344 251.039062 257.683594 254.882812 258.316406 L 268.945312 253.210938 L 280.539062 242.304688 C 278.703125 241.15625 277.09375 240.011719 277.210938 238.402344 C 277.324219 236.851562 279.046875 235.703125 280.941406 234.722656 C 280.882812 234.671875 280.824219 234.671875 280.824219 234.558594 C 279.851562 231.738281 281.34375 226.976562 281.457031 226.6875 C 281.34375 226.636719 281.226562 226.574219 281.113281 226.519531 C 281.398438 225.199219 281.742188 223.816406 282.03125 222.503906 C 290.007812 221.640625 293.394531 223.414062 294.945312 225.425781 C 298.042969 229.507812 294.3125 235.417969 296.089844 239.722656 L 296.207031 239.722656 C 298.214844 239.722656 302.058594 239.265625 305.5625 236.394531 C 310.265625 232.601562 311.011719 227.261719 311.128906 225.597656 C 310.210938 221.234375 310.324219 220.320312 310.667969 220.035156 L 306.136719 189.089844 L 291.328125 171.46875 L 173.101562 188.753906 L 167.589844 209.523438 C 167.535156 209.703125 167.417969 209.753906 167.304688 209.753906 L 167.246094 209.753906 Z M 167.132812 208.953125 L 172.410156 188.976562 L 164.375 190.125 Z M 173.328125 188.230469 L 290.925781 171.011719 L 290.296875 170.269531 L 245.816406 138.527344 L 231.179688 138.527344 L 173.675781 186.914062 Z M 231.925781 137.890625 L 244.839844 137.890625 L 239.503906 134.109375 C 238.699219 134.046875 238.011719 133.757812 237.320312 133.363281 Z M 303.378906 169.863281 L 292.1875 171.53125 L 306.078125 188.0625 Z M 246.90625 138.527344 L 290.695312 169.746094 L 290.753906 169.8125 L 291.671875 170.894531 L 303.609375 169.171875 C 303.667969 169.171875 303.78125 169.171875 303.839844 169.238281 C 303.898438 169.289062 303.953125 169.347656 303.953125 169.460938 L 306.824219 188.976562 L 308.488281 190.984375 C 308.601562 191.101562 308.601562 191.335938 308.429688 191.445312 C 308.316406 191.558594 308.085938 191.558594 307.972656 191.386719 L 306.996094 190.1875 L 309.0625 204.25 L 309.0625 138.527344 Z M 311.070312 220.832031 C 311.070312 221.234375 311.128906 222.382812 311.703125 225.308594 L 313.136719 225.308594 C 313.308594 223.765625 313.25 222.214844 312.90625 220.71875 C 312.679688 219.75 312.390625 218.886719 312.21875 218.421875 C 312.160156 218.773438 312.046875 219.570312 312.105469 221.292969 C 312.105469 221.46875 311.988281 221.578125 311.875 221.578125 C 311.757812 221.640625 311.585938 221.578125 311.53125 221.40625 C 311.359375 221.183594 311.1875 220.949219 311.070312 220.832031 Z M 306.480469 245.113281 C 308.773438 242.878906 310.613281 240.125 311.757812 237.140625 C 312.160156 236.042969 312.503906 235.011719 312.734375 233.984375 L 312.734375 233.921875 C 313.480469 230.824219 313.425781 228.007812 313.195312 226 L 311.816406 226 C 311.644531 227.957031 310.726562 233.238281 306.019531 236.96875 C 302.460938 239.835938 298.558594 240.347656 296.4375 240.410156 C 296.609375 240.75 296.835938 241.09375 297.125 241.382812 C 299.707031 244.25 303.550781 243.046875 306.480469 245.113281 C 306.421875 245.113281 306.480469 245.113281 306.480469 245.113281 Z M 210.921875 293.269531 L 120.355469 293.269531 L 120.355469 302.339844 L 196.171875 302.339844 C 196.34375 302.339844 196.515625 302.511719 196.515625 302.691406 L 196.515625 317.378906 L 210.921875 317.378906 Z M 195.886719 303.027344 L 105.320312 303.027344 L 105.320312 327.136719 L 195.886719 327.136719 Z M 96.425781 291.09375 L 90.972656 261.875 C 89.59375 262.734375 88.21875 263.882812 87.011719 265.550781 C 83.796875 269.972656 85.117188 273.300781 82.191406 274.902344 C 82.078125 274.960938 81.960938 275.023438 81.847656 275.074219 C 81.847656 275.136719 81.902344 275.246094 81.847656 275.308594 C 81.558594 276.050781 81.273438 277.257812 81.558594 278.691406 C 81.847656 280.070312 82.476562 280.988281 82.996094 281.5625 C 83.050781 281.625 83.050781 281.675781 83.050781 281.738281 L 84.601562 291.957031 L 84.488281 296.140625 L 84.488281 296.199219 L 83.855469 321.855469 L 89.25 321.855469 Z M 83.855469 295.972656 L 83.96875 291.957031 L 82.421875 281.910156 C 81.847656 281.273438 81.15625 280.242188 80.871094 278.804688 C 80.585938 277.371094 80.8125 276.109375 81.101562 275.246094 C 79.035156 275.820312 76.394531 275.308594 74.214844 274.164062 C 74.15625 274.960938 74.214844 275.765625 74.328125 276.574219 C 74.617188 278.46875 75.304688 280.242188 76.394531 281.910156 C 76.453125 281.964844 76.453125 282.027344 76.453125 282.078125 L 77.140625 296.027344 C 77.140625 296.140625 77.082031 296.199219 77.027344 296.261719 L 61.070312 310.949219 L 64.226562 314.679688 L 79.78125 303.265625 Z M 75.363281 297 L 76.507812 295.910156 L 75.878906 282.199219 C 74.730469 280.476562 74.042969 278.632812 73.753906 276.625 C 73.640625 275.765625 73.582031 274.851562 73.640625 273.925781 C 73.640625 273.875 73.640625 273.8125 73.695312 273.8125 C 71.6875 272.605469 70.140625 270.941406 69.910156 269.21875 C 69.449219 265.550781 75.476562 264.054688 75.1875 260.214844 C 74.84375 255.507812 65.144531 255.15625 63.539062 248.671875 C 62.964844 246.261719 63.597656 243.570312 64.917969 241.730469 C 65.203125 241.324219 65.546875 240.984375 65.835938 240.699219 C 64.34375 239.199219 63.023438 237.480469 61.933594 235.640625 L 61.933594 296.949219 L 75.363281 296.949219 Z M 61.011719 232.3125 C 62.160156 235.296875 63.996094 238.050781 66.292969 240.296875 L 66.292969 240.347656 C 69.21875 238.289062 73.066406 239.4375 75.589844 236.617188 C 75.878906 236.332031 76.109375 235.992188 76.28125 235.640625 C 74.15625 235.585938 70.253906 235.066406 66.695312 232.199219 C 62.046875 228.46875 61.128906 223.191406 60.898438 221.234375 L 59.519531 221.234375 C 59.292969 223.875 59.292969 227.894531 61.011719 232.3125 Z M 59.578125 220.546875 L 61.011719 220.546875 C 61.644531 217.5625 61.703125 216.476562 61.644531 216.070312 C 61.53125 216.1875 61.414062 216.355469 61.242188 216.699219 C 61.1875 216.816406 61.011719 216.878906 60.898438 216.878906 C 60.785156 216.816406 60.667969 216.699219 60.667969 216.589844 C 60.667969 214.921875 60.613281 214.117188 60.554688 213.722656 C 60.324219 214.179688 60.039062 215.042969 59.867188 216.015625 C 59.519531 217.453125 59.40625 218.996094 59.578125 220.546875 Z M 61.300781 215.328125 L 61.300781 215.496094 L 61.359375 215.441406 C 61.300781 215.441406 61.300781 215.378906 61.300781 215.328125 Z M 90.800781 222.503906 C 88.5625 223.589844 87.414062 224.734375 87.414062 225.773438 C 87.414062 227.09375 89.308594 228.121094 91.316406 229.15625 L 91.488281 229.21875 C 92.003906 227.03125 91.144531 223.589844 90.800781 222.503906 Z M 91.71875 237.878906 C 89.882812 239.085938 88.046875 240.347656 87.816406 242.359375 C 87.355469 246.546875 94.644531 249.769531 98.089844 253.148438 C 98.144531 253.089844 98.261719 253.039062 98.375 253.039062 L 117.660156 255.910156 L 117.660156 254.125 L 103.65625 249.074219 C 103.597656 249.074219 103.597656 249.023438 103.542969 249.023438 L 91.832031 238 C 91.71875 237.9375 91.71875 237.878906 91.71875 237.878906 Z M 118.234375 254.125 L 118.234375 256.019531 C 119.496094 256.304688 120.757812 256.484375 122.078125 256.59375 C 123.570312 256.707031 125.003906 256.707031 125.925781 256.59375 C 125.121094 256.421875 123.6875 256.195312 120.929688 255.847656 C 120.816406 255.847656 120.703125 255.730469 120.644531 255.621094 C 120.585938 255.507812 120.644531 255.335938 120.757812 255.273438 C 122.078125 254.359375 122.136719 254.007812 122.136719 254.007812 C 122.078125 253.902344 121.675781 253.550781 118.234375 254.125 Z M 93.957031 274.449219 L 95.507812 282.652344 L 112.148438 282.652344 C 114.386719 282.652344 116.28125 280.816406 116.28125 278.519531 C 116.28125 276.222656 114.445312 274.386719 112.148438 274.386719 L 93.957031 274.386719 Z M 163.457031 137.890625 Z M 140.617188 137.890625 L 163.058594 137.890625 L 152.09375 132.726562 Z M 240.25 51.332031 C 240.25 47.660156 237.265625 44.675781 233.589844 44.675781 C 232.273438 44.675781 230.953125 45.078125 229.859375 45.824219 C 228.023438 47.085938 226.933594 49.097656 226.933594 51.332031 C 226.933594 55.007812 229.917969 57.992188 233.589844 57.992188 C 237.265625 57.992188 240.25 55.007812 240.25 51.332031 Z M 315.835938 250.628906 C 315.835938 250.796875 315.71875 250.96875 315.546875 250.96875 L 309.695312 251.828125 L 309.695312 297.289062 C 309.695312 297.460938 309.519531 297.632812 309.347656 297.632812 L 296.4375 297.632812 L 296.265625 300.734375 L 312.332031 315.542969 C 312.449219 315.65625 312.449219 315.890625 312.332031 316 L 312.277344 316.0625 L 314.398438 318.582031 C 310.09375 325.472656 307.570312 328.742188 306.765625 328.40625 C 306.136719 328.117188 306.652344 325.414062 308.375 320.304688 C 308.316406 320.304688 308.316406 320.304688 308.257812 320.25 L 292.417969 308.601562 C 292.359375 308.601562 292.359375 308.539062 292.304688 308.480469 L 288.859375 302.167969 L 289.492188 326.96875 C 289.492188 327.085938 289.433594 327.136719 289.375 327.195312 C 289.320312 327.257812 289.203125 327.308594 289.148438 327.308594 L 289.089844 327.308594 L 288.457031 330.414062 C 278.988281 331.152344 274.167969 331.152344 274.054688 330.414062 C 273.9375 329.777344 276.863281 328.691406 282.835938 327.085938 L 276.117188 297.632812 L 211.609375 297.632812 L 211.609375 317.664062 C 211.609375 317.835938 211.4375 318.007812 211.265625 318.007812 L 196.515625 318.007812 L 196.515625 327.421875 C 196.515625 327.59375 196.34375 327.765625 196.171875 327.765625 L 104.976562 327.765625 C 104.804688 327.765625 104.632812 327.59375 104.632812 327.421875 L 104.632812 302.691406 C 104.632812 302.511719 104.804688 302.339844 104.976562 302.339844 L 119.726562 302.339844 L 119.726562 297.632812 L 95.5625 297.632812 L 89.882812 322.257812 C 95.792969 323.863281 98.71875 324.960938 98.664062 325.585938 C 98.546875 326.332031 93.726562 326.332031 84.257812 325.585938 L 83.625 322.492188 L 83.570312 322.492188 C 83.453125 322.492188 83.394531 322.429688 83.339844 322.378906 C 83.28125 322.316406 83.222656 322.207031 83.222656 322.140625 L 83.855469 297.347656 L 80.410156 303.660156 C 80.410156 303.722656 80.355469 303.722656 80.296875 303.773438 L 64.457031 315.425781 C 64.457031 315.425781 64.398438 315.425781 64.34375 315.488281 C 66.0625 320.59375 66.582031 323.289062 65.949219 323.578125 C 65.203125 323.980469 62.621094 320.707031 58.316406 313.769531 L 60.441406 311.238281 L 60.382812 311.183594 C 60.265625 311.0625 60.265625 310.835938 60.382812 310.726562 L 74.558594 297.632812 L 61.53125 297.632812 C 61.359375 297.632812 61.1875 297.460938 61.1875 297.289062 L 61.1875 235.53125 C 61.1875 235.355469 61.359375 235.183594 61.53125 235.183594 L 61.585938 235.183594 C 61.128906 234.320312 60.667969 233.410156 60.324219 232.484375 C 58.488281 227.835938 58.546875 223.589844 58.890625 220.832031 C 58.660156 219.109375 58.71875 217.453125 59.121094 215.78125 C 59.808594 212.625 60.382812 212.683594 60.554688 212.746094 C 60.898438 212.796875 61.128906 213.03125 61.1875 215.207031 L 61.1875 138.179688 C 61.1875 138.007812 61.359375 137.839844 61.53125 137.839844 L 115.019531 137.839844 C 115.191406 137.839844 115.363281 138.007812 115.363281 138.179688 C 115.363281 138.351562 115.191406 138.527344 115.019531 138.527344 L 61.875 138.527344 L 61.875 215.265625 C 62.332031 215.441406 62.5625 215.953125 61.53125 220.894531 C 61.644531 222.503906 62.390625 227.894531 67.097656 231.6875 C 70.597656 234.492188 74.441406 234.957031 76.453125 235.011719 L 76.566406 235.011719 C 78.347656 230.707031 74.671875 224.800781 77.714844 220.71875 C 79.265625 218.710938 82.648438 216.878906 90.628906 217.789062 C 90.914062 219.109375 91.257812 220.496094 91.546875 221.808594 C 91.429688 221.867188 91.316406 221.929688 91.203125 221.980469 C 91.316406 222.269531 92.808594 227.03125 91.832031 229.84375 C 91.832031 229.902344 91.777344 229.964844 91.71875 230.015625 C 93.554688 230.992188 95.277344 232.140625 95.449219 233.695312 C 95.5625 235.296875 93.957031 236.394531 92.121094 237.59375 L 103.714844 248.5 L 117.773438 253.613281 C 121.675781 252.976562 122.367188 253.328125 122.539062 253.835938 C 122.710938 254.238281 122.421875 254.699219 121.621094 255.386719 C 127.242188 256.132812 127.1875 256.421875 127.1875 256.769531 C 127.1875 257.109375 126.84375 257.28125 125.234375 257.34375 L 124.03125 257.34375 C 123.285156 257.34375 122.539062 257.34375 121.847656 257.28125 C 120.472656 257.167969 119.035156 256.996094 117.660156 256.65625 L 98.433594 253.785156 C 99.292969 254.761719 99.753906 255.730469 99.582031 256.707031 C 99.179688 259.238281 95.277344 259.351562 91.375 261.585938 C 91.375 261.648438 91.429688 261.648438 91.429688 261.699219 L 93.726562 273.875 L 112.035156 273.875 C 114.675781 273.875 116.796875 276 116.796875 278.632812 C 116.796875 281.273438 114.675781 283.398438 112.035156 283.398438 L 95.507812 283.398438 L 96.941406 291.09375 L 96.941406 291.210938 L 95.5625 297.058594 L 119.554688 297.058594 L 119.554688 293.042969 C 119.554688 292.867188 119.726562 292.695312 119.898438 292.695312 L 211.265625 292.695312 C 211.4375 292.695312 211.609375 292.867188 211.609375 293.042969 L 211.609375 297.058594 L 276.003906 297.058594 L 275.773438 296.027344 L 275.773438 295.910156 L 281.285156 266.527344 C 281.285156 266.464844 281.285156 266.464844 281.34375 266.414062 C 277.4375 264.167969 273.535156 264.054688 273.132812 261.535156 C 272.960938 260.5 273.421875 259.527344 274.28125 258.601562 L 255.054688 261.472656 C 253.679688 261.820312 252.300781 261.988281 250.867188 262.109375 C 250.292969 262.160156 249.433594 262.160156 248.628906 262.160156 C 247.308594 262.160156 245.988281 262.109375 245.703125 261.820312 C 245.644531 261.757812 245.585938 261.648438 245.585938 261.535156 C 245.585938 261.472656 245.585938 261.363281 245.644531 261.300781 L 176.085938 271.457031 L 176.027344 271.457031 C 175.96875 271.457031 175.914062 271.457031 175.855469 271.40625 C 175.796875 271.34375 175.742188 271.292969 175.742188 271.171875 L 164.203125 193.167969 L 82.304688 193.167969 C 82.132812 193.167969 81.960938 192.996094 81.960938 192.820312 C 81.960938 192.65625 82.132812 192.484375 82.304688 192.484375 L 164.089844 192.484375 L 163.6875 189.902344 C 163.6875 189.722656 163.804688 189.550781 163.976562 189.550781 L 172.640625 188.289062 L 173.101562 186.628906 C 173.101562 186.566406 173.15625 186.507812 173.214844 186.457031 L 230.207031 138.527344 L 177.40625 138.527344 C 177.347656 138.527344 177.289062 138.527344 177.289062 138.464844 C 176.542969 139.101562 172.296875 139.328125 164.605469 139.152344 L 163.976562 138.414062 C 163.917969 138.464844 163.859375 138.464844 163.804688 138.464844 L 139.238281 138.464844 L 137.058594 139.441406 L 144.691406 151.730469 L 155.882812 166.417969 L 155.882812 166.476562 C 160.300781 164.070312 162.769531 163.148438 163.171875 163.722656 C 163.6875 164.410156 161.164062 167.453125 155.597656 172.679688 L 153.011719 170.207031 C 152.957031 170.269531 152.839844 170.320312 152.785156 170.320312 C 152.726562 170.320312 152.667969 170.320312 152.613281 170.269531 L 134.53125 156.949219 L 116.972656 139.390625 C 116.855469 139.273438 116.855469 139.039062 116.972656 138.925781 C 117.085938 138.816406 117.316406 138.816406 117.429688 138.925781 L 134.933594 156.496094 L 152.726562 169.574219 L 155.195312 166.652344 L 144.117188 152.125 L 134.074219 135.996094 C 133.957031 135.832031 134.015625 135.660156 134.1875 135.542969 C 134.359375 135.421875 134.53125 135.480469 134.648438 135.660156 L 136.714844 138.925781 C 136.714844 138.925781 136.769531 138.867188 136.828125 138.867188 L 139.066406 137.890625 L 152.09375 132.035156 C 152.210938 131.980469 152.265625 131.980469 152.382812 132.035156 L 163.402344 137.203125 L 166.960938 135.085938 C 164.949219 133.074219 162.828125 131.175781 160.644531 129.453125 C 156.113281 125.835938 153.816406 124.0625 151.003906 123.425781 C 145.378906 122.222656 139.984375 126.074219 137.289062 128.421875 C 137.171875 128.535156 136.941406 128.535156 136.828125 128.367188 C 136.714844 128.25 136.714844 128.019531 136.886719 127.910156 C 139.699219 125.4375 145.324219 121.53125 151.175781 122.742188 C 154.160156 123.371094 156.457031 125.210938 161.105469 128.878906 C 163.457031 130.714844 165.695312 132.726562 167.761719 134.847656 C 167.820312 134.90625 167.878906 135.019531 167.878906 135.136719 C 173.386719 136.285156 176.542969 137.203125 177.40625 137.890625 C 177.460938 137.839844 177.519531 137.777344 177.632812 137.777344 L 231.238281 137.777344 L 237.148438 132.789062 C 236.863281 132.554688 236.574219 132.265625 236.347656 131.980469 C 235.371094 130.714844 235.082031 128.996094 235.601562 127.507812 C 236.003906 126.359375 236.804688 125.550781 237.550781 124.925781 C 237.894531 124.574219 238.242188 124.289062 238.527344 123.941406 C 239.273438 122.96875 239.734375 121.703125 239.847656 120.332031 L 239.847656 120.269531 C 237.320312 119.808594 235.429688 117.628906 235.429688 114.996094 C 235.429688 112.125 237.722656 109.765625 240.535156 109.652344 L 240.535156 54.320312 C 239.386719 56.847656 236.863281 58.625 233.878906 58.625 C 229.859375 58.625 226.589844 55.351562 226.589844 51.335938 C 226.589844 49.898438 226.992188 48.582031 227.738281 47.433594 L 162.195312 88.472656 C 161.792969 88.816406 161.046875 89.277344 159.671875 90.023438 C 160.703125 90.253906 161.164062 90.539062 161.277344 91 C 161.390625 91.632812 160.761719 92.433594 155.710938 94.15625 L 148.019531 101.15625 C 148.019531 101.558594 147.617188 102.367188 146.242188 104.425781 C 146.183594 104.546875 146.070312 104.546875 145.953125 104.546875 C 145.894531 104.546875 145.839844 104.546875 145.78125 104.484375 C 145.609375 104.375 145.609375 104.199219 145.722656 104.027344 C 146.699219 102.589844 147.101562 101.84375 147.273438 101.441406 C 147.160156 101.507812 147.042969 101.613281 146.871094 101.730469 C 146.757812 101.792969 146.640625 101.84375 146.527344 101.730469 C 146.414062 101.679688 146.355469 101.507812 146.355469 101.390625 C 146.757812 99.261719 146.757812 98.574219 146.699219 98.347656 C 146.46875 98.519531 145.722656 99.320312 143.832031 102.878906 C 143.773438 103.050781 143.542969 103.113281 143.371094 102.992188 C 143.199219 102.941406 143.140625 102.707031 143.257812 102.539062 C 145.839844 97.65625 146.46875 97.425781 146.929688 97.601562 C 147.332031 97.773438 147.5625 98.347656 147.101562 100.640625 C 147.273438 100.585938 147.386719 100.527344 147.5625 100.527344 L 155.308594 93.46875 C 155.308594 93.46875 155.367188 93.46875 155.367188 93.410156 C 155.367188 93.410156 155.421875 93.410156 155.421875 93.351562 C 160.589844 91.632812 160.644531 90.941406 160.644531 90.882812 C 160.644531 90.882812 160.53125 90.539062 158.636719 90.308594 C 158.523438 90.308594 158.40625 90.195312 158.351562 90.023438 C 158.351562 89.910156 158.40625 89.734375 158.523438 89.679688 C 158.808594 89.503906 159.097656 89.390625 159.382812 89.21875 L 161.679688 87.785156 C 160.933594 87.84375 159.269531 88.242188 157.660156 89.105469 C 156.457031 89.792969 155.421875 90.652344 154.503906 91.800781 C 154.390625 91.917969 154.160156 91.972656 154.046875 91.859375 C 153.929688 91.746094 153.875 91.515625 153.988281 91.398438 C 154.964844 90.195312 156.054688 89.277344 157.375 88.589844 C 159.269531 87.554688 161.566406 87.039062 162.253906 87.269531 C 162.3125 87.324219 162.367188 87.324219 162.425781 87.382812 L 228.253906 46.167969 C 228.3125 46.113281 228.425781 46.113281 228.542969 46.113281 C 228.828125 45.828125 229.171875 45.539062 229.515625 45.308594 C 230.722656 44.503906 232.15625 44.046875 233.589844 44.046875 C 236.863281 44.046875 239.675781 46.226562 240.535156 49.210938 C 240.707031 49.210938 240.878906 49.382812 240.878906 49.558594 L 240.878906 109.761719 C 243.636719 110 245.875 112.292969 245.875 115.101562 C 245.875 117.746094 243.980469 119.921875 241.453125 120.382812 L 241.453125 120.554688 C 241.339844 122.339844 240.707031 124.0625 239.734375 125.261719 C 239.386719 125.71875 238.929688 126.121094 238.527344 126.472656 C 237.894531 127.046875 237.320312 127.558594 237.09375 128.304688 C 236.804688 129.164062 236.976562 130.203125 237.550781 130.949219 C 238.296875 131.925781 239.503906 132.382812 240.707031 132.097656 C 241.972656 131.808594 242.890625 130.828125 243.175781 129.566406 C 243.289062 129.054688 243.808594 128.703125 244.324219 128.820312 C 244.839844 128.941406 245.183594 129.449219 245.070312 129.96875 C 244.609375 131.976562 243.117188 133.53125 241.109375 133.933594 C 240.9375 133.984375 240.765625 133.984375 240.59375 134.042969 L 245.929688 137.835938 L 309.292969 137.835938 C 309.464844 137.835938 309.636719 138.003906 309.636719 138.175781 L 309.636719 206.140625 C 309.636719 206.308594 309.519531 206.480469 309.292969 206.480469 L 311.300781 220.257812 C 311.359375 220.320312 311.359375 220.320312 311.414062 220.371094 C 311.472656 217.910156 311.703125 217.671875 312.105469 217.621094 C 312.621094 217.558594 313.078125 218.597656 313.539062 220.660156 C 313.882812 222.328125 313.941406 223.988281 313.769531 225.710938 C 314.054688 227.832031 314.113281 230.761719 313.367188 234.09375 Z M 98.03125 153.625 C 98.03125 152.699219 97.285156 151.902344 96.308594 151.902344 C 95.390625 151.902344 94.589844 152.644531 94.589844 153.625 C 94.589844 154.535156 95.335938 155.347656 96.308594 155.347656 C 97.285156 155.347656 98.03125 154.601562 98.03125 153.625 Z M 98.664062 153.625 C 98.664062 154.078125 98.546875 154.484375 98.320312 154.824219 L 100.269531 156.429688 C 100.382812 156.546875 100.441406 156.78125 100.328125 156.894531 C 100.269531 156.949219 100.15625 157.003906 100.097656 157.003906 C 100.039062 157.003906 99.925781 157.003906 99.867188 156.949219 L 97.917969 155.347656 C 97.515625 155.75 96.941406 155.972656 96.308594 155.972656 C 94.988281 155.972656 93.957031 154.9375 93.957031 153.625 C 93.957031 152.304688 94.988281 151.265625 96.308594 151.265625 C 97.628906 151.265625 98.664062 152.355469 98.664062 153.625 Z M 109.050781 181.6875 L 138.550781 181.6875 L 138.550781 178.304688 L 109.050781 178.304688 Z M 108.417969 177.667969 L 139.238281 177.667969 L 139.238281 182.375 L 108.417969 182.375 Z M 119.898438 87.378906 C 119.554688 85.945312 118.980469 84.511719 118.234375 83.1875 C 118.175781 84.566406 117.832031 86.460938 116.683594 88.242188 C 116.050781 89.214844 115.304688 90.019531 114.332031 90.710938 C 114.273438 90.769531 114.160156 90.769531 114.101562 90.769531 C 113.183594 90.59375 112.265625 91.109375 111.976562 91.914062 C 111.804688 92.375 111.804688 92.890625 112.035156 93.351562 C 112.265625 93.867188 112.722656 94.269531 113.242188 94.441406 C 113.355469 94.5 113.46875 94.613281 113.46875 94.726562 C 113.527344 95.1875 113.527344 96.277344 112.722656 97.3125 C 112.265625 97.882812 111.75 98.230469 111.289062 98.398438 L 112.09375 101.042969 C 112.839844 101.269531 113.929688 101.441406 115.191406 101.15625 C 116.050781 100.984375 116.855469 100.582031 117.601562 100.066406 L 117.601562 96.621094 C 117.601562 96.507812 117.660156 96.390625 117.773438 96.335938 C 118.578125 95.816406 119.210938 95.1875 119.667969 94.441406 C 121.046875 92.144531 120.355469 89.390625 119.898438 87.378906 Z M 103.769531 91.628906 C 103.253906 87.035156 106.699219 83.992188 107.042969 83.707031 C 107.445312 80.492188 109.910156 78.082031 112.894531 77.792969 C 115.363281 77.566406 117.773438 78.882812 119.035156 81.179688 C 119.265625 82.386719 119.4375 83.535156 119.667969 84.742188 C 120.011719 85.601562 120.300781 86.40625 120.527344 87.324219 C 121.046875 89.445312 121.734375 92.316406 120.183594 94.898438 C 119.667969 95.703125 119.035156 96.390625 118.234375 96.910156 L 118.234375 100.292969 C 118.234375 100.410156 118.175781 100.46875 118.117188 100.527344 C 117.316406 101.15625 116.339844 101.613281 115.363281 101.84375 C 114.847656 101.960938 114.332031 102.015625 113.871094 102.015625 C 113.011719 102.015625 112.265625 101.84375 111.75 101.675781 C 111.632812 101.613281 111.574219 101.554688 111.519531 101.441406 L 110.945312 99.492188 C 107.042969 98.457031 104.230469 95.300781 103.769531 91.628906 Z M 151.175781 274.445312 L 125.75 274.445312 C 123.511719 274.445312 121.621094 276.28125 121.621094 278.578125 C 121.621094 280.875 123.457031 282.703125 125.75 282.703125 L 151.175781 282.703125 C 153.414062 282.703125 155.308594 280.875 155.308594 278.578125 C 155.308594 276.28125 153.472656 274.445312 151.175781 274.445312 Z M 125.75 273.808594 L 151.175781 273.808594 C 153.816406 273.808594 155.941406 275.929688 155.941406 278.578125 C 155.941406 281.210938 153.816406 283.339844 151.175781 283.339844 L 125.75 283.339844 C 123.113281 283.339844 120.988281 281.210938 120.988281 278.578125 C 120.988281 275.929688 123.113281 273.808594 125.75 273.808594 Z M 185.496094 317.660156 L 130.917969 317.660156 L 130.917969 318.808594 L 185.554688 318.808594 L 185.554688 317.660156 Z M 179.296875 314.335938 L 130.917969 314.335938 L 130.917969 315.9375 L 179.296875 315.9375 Z M 185.496094 311.347656 L 130.917969 311.347656 L 130.917969 312.730469 L 185.496094 312.730469 Z M 117.832031 315.484375 L 112.207031 321.851562 C 112.667969 322.085938 113.125 322.199219 113.640625 322.199219 L 121.734375 322.199219 C 122.421875 322.199219 122.996094 321.964844 123.511719 321.625 Z M 111.574219 308.648438 C 110.945312 309.222656 110.484375 310.082031 110.484375 311.007812 L 110.484375 319.09375 C 110.484375 320.128906 111.003906 321.054688 111.804688 321.625 L 117.542969 315.136719 Z M 123.859375 321.339844 C 124.488281 320.765625 124.832031 319.957031 124.832031 319.042969 L 124.832031 310.945312 C 124.832031 310.03125 124.433594 309.171875 123.800781 308.597656 L 118.117188 315.027344 Z M 111.921875 308.363281 C 112.4375 308.074219 113.011719 307.851562 113.585938 307.851562 L 121.675781 307.851562 C 122.308594 307.851562 122.882812 308.023438 123.398438 308.363281 L 117.773438 314.738281 L 111.921875 308.363281 " fill-opacity="1" fill-rule="nonzero"/></g><path fill="rgb(29.798889%, 43.528748%, 74.899292%)" d="M 115.25 101.507812 C 113.699219 101.84375 112.4375 101.558594 111.804688 101.332031 C 110.140625 103.855469 108.304688 107.46875 107.5 112.0625 C 104.976562 126.125 114.214844 137.203125 115.824219 139.152344 C 117.890625 139.328125 122.421875 139.441406 127.300781 137.03125 C 133.441406 134.046875 136.371094 129.109375 137.34375 127.335938 L 127.53125 115.453125 C 128.910156 115.90625 132.582031 116.941406 136.714844 115.453125 C 144.058594 112.808594 145.894531 104.773438 146.011719 104.261719 L 143.542969 102.878906 C 142.855469 103.800781 140.617188 106.722656 136.542969 107.757812 C 134.132812 108.394531 132.121094 108.105469 130.917969 107.871094 C 133.84375 105.8125 137.058594 103.6875 140.617188 101.558594 C 145.894531 98.460938 150.890625 95.9375 155.539062 93.867188 L 154.277344 91.859375 L 117.890625 100.242188 C 117.371094 100.585938 116.511719 101.214844 115.25 101.507812 Z M 130.6875 209.753906 L 124.546875 216.699219 C 125.003906 216.929688 125.523438 217.101562 126.097656 217.101562 L 134.878906 217.101562 C 135.625 217.101562 136.253906 216.878906 136.828125 216.476562 Z M 123.859375 202.351562 C 123.113281 202.988281 122.652344 203.898438 122.652344 204.933594 L 122.652344 213.722656 C 122.652344 214.871094 123.226562 215.839844 124.085938 216.476562 L 130.285156 209.417969 Z M 137.230469 216.1875 C 137.917969 215.550781 138.320312 214.691406 138.320312 213.722656 L 138.320312 204.933594 C 138.320312 203.898438 137.863281 203.039062 137.171875 202.414062 L 131.03125 209.417969 Z M 130.6875 209.015625 L 136.828125 202.0625 C 136.3125 201.71875 135.625 201.488281 134.933594 201.488281 L 126.152344 201.488281 C 125.464844 201.488281 124.832031 201.71875 124.316406 202.0625 Z M 109.683594 209.875 L 103.597656 216.816406 C 104.058594 217.050781 104.574219 217.21875 105.148438 217.21875 L 113.929688 217.21875 C 114.675781 217.21875 115.304688 216.988281 115.878906 216.589844 Z M 102.910156 202.464844 C 102.164062 203.101562 101.703125 204.015625 101.703125 205.046875 L 101.703125 213.832031 C 101.703125 214.976562 102.277344 215.953125 103.140625 216.589844 L 109.335938 209.523438 Z M 116.28125 216.304688 C 116.972656 215.667969 117.371094 214.804688 117.371094 213.832031 L 117.371094 205.046875 C 117.371094 204.015625 116.914062 203.152344 116.226562 202.527344 L 110.082031 209.523438 Z M 109.683594 209.128906 L 115.824219 202.179688 C 115.304688 201.839844 114.617188 201.605469 113.929688 201.605469 L 105.148438 201.605469 C 104.460938 201.605469 103.828125 201.839844 103.3125 202.179688 Z M 88.675781 209.753906 L 82.535156 216.699219 C 82.996094 216.929688 83.511719 217.101562 84.085938 217.101562 L 92.867188 217.101562 C 93.613281 217.101562 94.242188 216.878906 94.816406 216.476562 Z M 81.902344 202.351562 C 81.15625 202.988281 80.699219 203.898438 80.699219 204.933594 L 80.699219 213.722656 C 80.699219 214.871094 81.273438 215.839844 82.132812 216.476562 L 88.332031 209.417969 Z M 95.277344 216.242188 C 95.964844 215.617188 96.367188 214.753906 96.367188 213.773438 L 96.367188 204.996094 C 96.367188 203.964844 95.90625 203.101562 95.21875 202.464844 L 89.019531 209.417969 Z M 88.675781 209.066406 L 94.816406 202.125 C 94.300781 201.777344 93.613281 201.550781 92.921875 201.550781 L 84.140625 201.550781 C 83.453125 201.550781 82.824219 201.777344 82.304688 202.125 Z M 92.003906 167.625 C 86.609375 167.625 82.304688 171.992188 82.304688 177.324219 C 82.304688 182.664062 86.667969 187.03125 92.003906 187.03125 C 97.34375 187.03125 101.703125 182.664062 101.703125 177.324219 C 101.703125 171.992188 97.398438 167.625 92.003906 167.625 Z M 241.914062 204.136719 C 241.914062 210.386719 236.863281 215.441406 230.605469 215.441406 C 224.351562 215.441406 219.300781 210.386719 219.300781 204.136719 C 219.300781 197.875 224.351562 192.820312 230.605469 192.820312 C 236.863281 192.820312 241.914062 197.875 241.914062 204.136719 " fill-opacity="1" fill-rule="nonzero"/></svg>