<?xml version="1.0" encoding="UTF-8"?><svg xmlns="http://www.w3.org/2000/svg" xmlns:xlink="http://www.w3.org/1999/xlink" width="375" zoomAndPan="magnify" viewBox="0 0 375 374.999991" height="374.999991" preserveAspectRatio="xMidYMid meet" version="1.0"><defs><clipPath id="clip-0"><path d="M 18 68.542969 L 374.5 68.542969 L 374.5 316.304688 L 18 316.304688 Z M 18 68.542969 " clip-rule="nonzero"/></clipPath></defs><path fill="rgb(100%, 100%, 100%)" d="M 117.417969 78.664062 C 119.710938 74.125 124.40625 71.015625 129.863281 71.015625 L 237.230469 71.015625 C 244.933594 71.015625 251.207031 77.285156 251.207031 84.984375 L 251.207031 113.171875 C 266.355469 108.378906 281.605469 104.761719 303.589844 110.523438 C 312.671875 112.917969 334.753906 118.675781 350.058594 137.894531 C 375 169.242188 367.65625 218.28125 348.832031 248.507812 C 319.300781 296.015625 260.644531 303.050781 233.863281 306.261719 C 177.453125 313.039062 131.1875 294.589844 103.085938 278.734375 L 100.890625 278.277344 L 62.585938 278.277344 L 62.585938 275.320312 L 60.390625 270.886719 L 76.96875 261.453125 C 75.949219 260.640625 75.183594 260.027344 74.570312 259.570312 C 53.914062 242.644531 0 198.503906 6.9375 140.339844 C 10.863281 107.667969 35.652344 68.824219 69.0625 62.300781 C 88.191406 58.578125 102.726562 66.988281 117.417969 78.664062 " fill-opacity="1" fill-rule="nonzero"/><path fill="rgb(29.798889%, 43.528748%, 74.899292%)" d="M 146.285156 212.722656 C 143.582031 212.722656 141.390625 214.914062 141.390625 217.617188 C 141.390625 220.320312 143.582031 222.511719 146.285156 222.511719 C 148.988281 222.511719 151.183594 220.320312 151.183594 217.617188 C 151.183594 214.914062 148.988281 212.722656 146.285156 212.722656 Z M 132.667969 92.78125 C 129.964844 92.78125 127.769531 94.972656 127.769531 97.671875 C 127.769531 100.375 129.964844 102.566406 132.667969 102.566406 C 135.371094 102.566406 137.566406 100.375 137.566406 97.671875 C 137.566406 94.972656 135.371094 92.78125 132.667969 92.78125 Z M 132.566406 249.222656 C 129.863281 249.222656 127.667969 251.414062 127.667969 254.113281 C 127.667969 256.816406 129.863281 259.007812 132.566406 259.007812 C 135.269531 259.007812 137.460938 256.816406 137.460938 254.113281 C 137.460938 251.414062 135.269531 249.222656 132.566406 249.222656 Z M 132.566406 212.722656 C 129.863281 212.722656 127.667969 214.914062 127.667969 217.617188 C 127.667969 220.320312 129.863281 222.511719 132.566406 222.511719 C 135.269531 222.511719 137.460938 220.320312 137.460938 217.617188 C 137.460938 214.914062 135.269531 212.722656 132.566406 212.722656 Z M 219.074219 143.753906 L 217.238281 144.671875 C 216.0625 145.285156 214.636719 144.828125 214.074219 143.652344 L 208.3125 132.542969 C 207.597656 132.847656 206.882812 133.203125 206.21875 133.511719 C 204.6875 131.625 202.292969 128.105469 200.964844 123.109375 C 199.945312 119.1875 200.046875 115.769531 200.25 113.527344 C 202.242188 112.710938 204.230469 111.945312 206.269531 111.082031 C 210.503906 109.347656 212.238281 108.53125 213.207031 109.347656 C 213.511719 109.605469 213.667969 109.90625 213.71875 110.113281 C 213.207031 110.316406 212.695312 110.523438 212.1875 110.671875 C 212.136719 112.40625 212.238281 114.546875 212.75 116.890625 C 213.71875 121.785156 215.808594 125.40625 217.390625 127.597656 C 217.441406 127.597656 217.746094 127.800781 217.796875 128.15625 C 217.847656 128.515625 217.59375 128.871094 217.238281 128.972656 C 216.371094 129.226562 215.503906 129.535156 214.636719 129.839844 C 216.472656 133.355469 218.308594 136.875 220.144531 140.390625 C 220.652344 141.71875 220.246094 143.144531 219.074219 143.753906 Z M 302.519531 207.472656 C 301.195312 209.410156 298.949219 212.164062 295.277344 214.863281 L 292.828125 212.722656 C 292.675781 212.621094 292.574219 212.519531 292.421875 212.367188 L 292.828125 211.804688 L 297.316406 205.078125 L 291.042969 200.132812 L 291.65625 202.222656 L 271.304688 202.222656 L 271.304688 212.214844 L 270.996094 212.367188 C 270.539062 212.417969 268.039062 212.773438 265.742188 211.09375 C 265.539062 210.941406 263.398438 209.308594 263.039062 206.554688 C 262.886719 205.28125 263.039062 203.496094 266.664062 198.605469 C 268.191406 196.515625 270.4375 193.761719 273.546875 190.804688 C 275.382812 190.398438 277.21875 189.988281 279.058594 189.632812 C 279.414062 190.855469 280.535156 191.722656 281.761719 191.671875 C 282.933594 191.621094 284.003906 190.804688 284.308594 189.632812 L 290.175781 190.296875 C 294.5625 193.761719 298.03125 196.410156 301.140625 198.707031 C 302.214844 199.519531 303.898438 200.746094 304.203125 202.683594 C 304.457031 203.957031 304.050781 205.230469 302.519531 207.472656 " fill-opacity="1" fill-rule="nonzero"/><path fill="rgb(29.798889%, 43.528748%, 74.899292%)" d="M 88.90625 99.96875 L 69.675781 99.96875 C 67.175781 99.96875 65.085938 102.007812 65.085938 104.554688 L 65.085938 117.65625 C 65.085938 120.15625 67.125 122.246094 69.675781 122.246094 L 75.132812 122.246094 L 79.316406 128.667969 L 83.140625 122.246094 L 88.957031 122.246094 C 91.453125 122.246094 93.546875 120.207031 93.546875 117.65625 L 93.546875 104.507812 C 93.445312 102.007812 91.402344 99.96875 88.90625 99.96875 Z M 300.171875 131.574219 L 300.171875 145.539062 C 300.171875 148.191406 297.980469 150.382812 295.328125 150.382812 L 289.15625 150.382812 L 285.074219 157.214844 L 280.636719 150.382812 L 274.824219 150.382812 C 272.171875 150.382812 269.976562 148.191406 269.976562 145.539062 L 269.976562 131.574219 C 269.976562 128.921875 272.171875 126.730469 274.824219 126.730469 L 295.277344 126.730469 C 297.980469 126.730469 300.171875 128.921875 300.171875 131.574219 " fill-opacity="1" fill-rule="nonzero"/><path fill="rgb(5.879211%, 5.488586%, 4.708862%)" d="M 220.09375 142.074219 C 220.144531 141.511719 219.941406 141.054688 219.789062 140.75 C 219.683594 140.59375 219.734375 140.441406 219.839844 140.339844 C 220.246094 139.882812 220.296875 139.269531 220.042969 138.761719 C 219.789062 138.300781 219.226562 137.996094 218.664062 138.097656 C 218.511719 138.097656 218.359375 138.046875 218.308594 137.894531 C 218.257812 137.742188 218.308594 137.589844 218.460938 137.484375 C 218.921875 137.179688 219.074219 136.570312 218.816406 136.109375 C 218.5625 135.703125 218 135.496094 217.542969 135.652344 C 217.339844 135.703125 217.136719 135.652344 217.082031 135.445312 C 217.03125 135.242188 217.082031 135.039062 217.289062 134.988281 C 218.105469 134.683594 219.023438 134.988281 219.429688 135.753906 C 219.734375 136.3125 219.734375 136.925781 219.429688 137.433594 C 219.941406 137.589844 220.449219 137.894531 220.707031 138.402344 C 221.113281 139.117188 221.0625 139.984375 220.601562 140.644531 C 220.808594 141.054688 220.960938 141.613281 220.910156 142.226562 C 220.757812 143.398438 219.683594 144.417969 218.308594 144.773438 C 218.257812 153.949219 217.492188 163.125 216.113281 171.945312 C 214.636719 181.375 213.410156 184.6875 211.015625 185.503906 C 210.605469 185.65625 210.199219 185.707031 209.738281 185.707031 C 204.332031 185.707031 197.292969 175.410156 196.425781 174.136719 C 196.324219 173.984375 196.375 173.730469 196.527344 173.625 C 196.679688 173.523438 196.886719 173.574219 197.039062 173.730469 C 197.394531 174.238281 205.710938 186.574219 210.757812 184.789062 C 212.542969 184.179688 213.820312 181.933594 215.347656 171.792969 C 216.726562 162.871094 217.441406 153.695312 217.492188 144.417969 L 217.492188 144.316406 C 217.492188 144.316406 217.492188 144.265625 217.542969 144.265625 C 217.542969 144.265625 217.542969 144.214844 217.59375 144.214844 L 217.695312 144.113281 L 217.796875 144.113281 C 219.023438 143.859375 219.941406 143.042969 220.09375 142.074219 Z M 205.25 162.566406 L 207.339844 165.878906 L 209.535156 145.183594 C 208.972656 143.808594 208.15625 141.207031 209.179688 138.503906 C 210.042969 136.160156 212.085938 134.273438 213.15625 133.96875 C 213.410156 133.867188 213.667969 133.917969 213.820312 134.019531 C 214.226562 134.273438 214.378906 134.886719 212.390625 138.660156 C 212.289062 138.8125 212.085938 138.914062 211.933594 138.8125 C 211.777344 138.710938 211.675781 138.503906 211.777344 138.351562 C 213.207031 135.652344 213.359375 134.835938 213.359375 134.582031 C 212.851562 134.683594 210.757812 136.363281 209.839844 138.761719 C 208.921875 141.308594 209.6875 143.753906 210.199219 144.980469 C 210.199219 145.03125 210.25 145.082031 210.25 145.183594 L 207.953125 167 C 207.953125 167.152344 207.851562 167.253906 207.699219 167.304688 L 207.597656 167.304688 C 207.496094 167.304688 207.339844 167.253906 207.289062 167.152344 L 204.636719 163.023438 C 204.535156 162.871094 204.585938 162.617188 204.738281 162.515625 C 204.945312 162.308594 205.148438 162.363281 205.25 162.566406 Z M 283.699219 209.359375 C 283.699219 210.328125 282.933594 211.09375 281.964844 211.09375 C 280.996094 211.09375 280.230469 210.328125 280.230469 209.359375 C 280.230469 208.390625 280.996094 207.625 281.964844 207.625 C 282.933594 207.625 283.699219 208.390625 283.699219 209.359375 Z M 294.664062 272.515625 C 294.664062 272.515625 294.714844 272.515625 294.664062 272.515625 C 294.714844 272.515625 294.714844 272.515625 294.664062 272.515625 L 296.449219 272.515625 L 296.449219 276.898438 L 291.910156 276.898438 L 291.910156 272.261719 C 292.726562 272.414062 293.644531 272.515625 294.664062 272.515625 Z M 282.882812 269.816406 C 281.8125 269.660156 280.738281 269.609375 279.667969 269.609375 L 279.210938 269.609375 C 279.058594 269.609375 278.851562 269.609375 278.699219 269.660156 L 278.34375 269.660156 C 277.933594 269.660156 277.578125 269.710938 277.167969 269.765625 C 277.015625 269.765625 276.863281 269.816406 276.710938 269.816406 C 276.558594 269.816406 276.457031 269.867188 276.300781 269.867188 L 276.25 269.867188 C 274.464844 270.121094 272.628906 270.578125 270.742188 271.191406 C 271.507812 262.628906 272.019531 254.011719 272.324219 245.449219 C 272.628906 236.222656 272.679688 226.84375 272.476562 217.617188 L 288.953125 217.617188 C 288.644531 218.128906 288.492188 218.636719 288.695312 218.992188 C 288.800781 219.148438 289.003906 219.351562 289.460938 219.453125 C 289.5625 219.453125 289.71875 219.503906 289.871094 219.503906 C 290.6875 219.503906 291.859375 219.148438 292.828125 218.535156 C 294.613281 226.640625 296.09375 234.847656 297.214844 243.054688 C 298.488281 252.484375 299.355469 262.117188 299.765625 271.699219 C 298.695312 271.855469 297.621094 271.90625 296.550781 271.90625 C 295.992188 271.90625 295.378906 271.90625 294.816406 271.855469 L 294.714844 271.855469 C 293.695312 271.804688 292.625 271.699219 291.605469 271.546875 L 291.453125 271.546875 C 289.71875 271.292969 288.1875 270.9375 286.757812 270.628906 C 285.433594 270.273438 284.207031 270.019531 282.882812 269.816406 Z M 278.292969 270.324219 C 278.292969 270.324219 278.34375 270.324219 278.292969 270.324219 C 278.699219 270.324219 279.058594 270.273438 279.464844 270.273438 C 279.976562 270.273438 280.433594 270.273438 280.945312 270.324219 L 280.945312 276.953125 L 276.710938 276.953125 L 276.710938 270.476562 C 277.21875 270.425781 277.78125 270.375 278.292969 270.324219 Z M 271.507812 202.734375 L 292.371094 202.734375 L 292.371094 212.875 C 289.613281 213.945312 289.105469 214.507812 289.207031 215.070312 C 289.257812 215.476562 289.667969 215.679688 290.480469 215.832031 L 290.328125 215.984375 L 271.558594 215.984375 Z M 302.722656 279.246094 C 302.214844 278.53125 301.347656 278.480469 300.53125 278.378906 C 299.613281 278.277344 298.4375 278.023438 296.960938 277.511719 C 297.011719 277.460938 297.0625 277.359375 297.0625 277.257812 L 297.0625 272.464844 C 298.082031 272.414062 299.101562 272.363281 300.070312 272.210938 C 300.277344 272.210938 300.378906 272.007812 300.378906 271.855469 C 299.96875 262.167969 299.152344 252.433594 297.828125 242.847656 C 296.703125 234.539062 295.175781 226.128906 293.339844 217.921875 C 294.511719 216.800781 294.867188 215.375 294.972656 214.558594 C 294.972656 214.355469 294.867188 214.203125 294.664062 214.152344 C 294.460938 214.101562 294.308594 214.253906 294.257812 214.457031 C 294.15625 215.171875 293.847656 216.546875 292.726562 217.515625 C 291.757812 218.382812 290.277344 218.789062 289.460938 218.636719 C 289.257812 218.585938 289.207031 218.535156 289.15625 218.535156 C 289.003906 218.332031 289.71875 217.210938 291.347656 215.730469 C 291.453125 215.628906 291.503906 215.476562 291.453125 215.375 C 291.398438 215.222656 291.296875 215.171875 291.144531 215.121094 C 290.175781 215.019531 289.871094 214.863281 289.769531 214.8125 C 289.871094 214.660156 290.378906 214.203125 292.929688 213.234375 C 293.132812 213.183594 293.1875 212.980469 293.132812 212.773438 C 293.082031 212.671875 293.03125 212.621094 292.980469 212.570312 L 292.980469 202.222656 C 292.980469 202.019531 292.828125 201.867188 292.625 201.867188 L 271.046875 201.867188 C 270.84375 201.867188 270.691406 202.019531 270.691406 202.222656 L 270.691406 216.191406 C 270.691406 216.394531 270.84375 216.546875 271.046875 216.546875 L 271.046875 217.464844 L 271.609375 217.464844 C 271.8125 226.691406 271.761719 236.019531 271.457031 245.246094 C 271.152344 253.960938 270.589844 262.78125 269.824219 271.496094 C 269.824219 271.597656 269.875 271.75 269.976562 271.804688 C 270.078125 271.855469 270.183594 271.90625 270.335938 271.855469 C 272.222656 271.191406 274.058594 270.730469 275.894531 270.425781 L 275.894531 277.207031 C 274.464844 277.664062 273.34375 277.867188 272.527344 277.96875 C 271.457031 278.074219 270.589844 278.074219 269.976562 278.734375 C 269.519531 279.195312 269.417969 279.855469 269.367188 280.265625 L 281.453125 280.265625 L 281.453125 277.5625 C 281.503906 277.511719 281.554688 277.410156 281.554688 277.308594 L 281.554688 270.375 C 281.914062 270.425781 282.320312 270.425781 282.679688 270.476562 C 283.953125 270.679688 285.175781 270.9375 286.453125 271.242188 C 287.828125 271.546875 289.308594 271.90625 291.042969 272.160156 L 291.042969 277.257812 C 291.042969 277.359375 291.09375 277.460938 291.195312 277.511719 L 291.195312 280.367188 L 302.980469 280.773438 C 303.132812 280.417969 303.082031 279.753906 302.722656 279.246094 Z M 276.351562 182.191406 C 275.945312 180.761719 275.894531 179.183594 276.199219 177.703125 C 276.199219 177.601562 276.300781 177.5 276.40625 177.449219 C 277.425781 177.09375 278.394531 176.53125 279.261719 175.871094 C 280.28125 175.054688 281.148438 174.085938 281.8125 172.914062 C 281.863281 172.8125 281.964844 172.761719 282.117188 172.761719 C 282.21875 172.761719 282.371094 172.8125 282.421875 172.914062 C 283.085938 173.730469 283.800781 174.542969 284.566406 175.257812 C 285.484375 176.125 286.503906 176.890625 287.574219 177.550781 C 287.675781 177.601562 287.726562 177.703125 287.726562 177.804688 C 287.933594 179.335938 287.933594 181.628906 286.859375 184.078125 C 286.351562 185.25 285.585938 186.320312 284.71875 187.238281 L 284.71875 189.835938 C 284.71875 190.039062 284.566406 190.191406 284.363281 190.191406 C 284.15625 190.191406 284.003906 190.039062 284.003906 189.835938 L 284.003906 187.136719 C 284.003906 187.03125 284.054688 186.929688 284.105469 186.878906 C 285.023438 185.960938 285.738281 184.941406 286.25 183.820312 C 287.269531 181.628906 287.269531 179.539062 287.117188 178.113281 C 286.042969 177.449219 285.074219 176.683594 284.15625 175.820312 C 283.496094 175.207031 282.832031 174.492188 282.21875 173.832031 C 281.554688 174.851562 280.738281 175.765625 279.71875 176.53125 C 278.851562 177.195312 277.882812 177.753906 276.863281 178.164062 C 276.660156 179.488281 276.710938 180.863281 277.066406 182.140625 C 277.578125 184.078125 278.597656 185.453125 279.363281 186.21875 C 279.414062 186.269531 279.464844 186.371094 279.464844 186.472656 L 279.464844 189.886719 C 279.464844 190.089844 279.3125 190.246094 279.109375 190.246094 C 278.902344 190.246094 278.75 190.089844 278.75 189.886719 L 278.75 186.625 C 277.933594 185.605469 276.863281 184.179688 276.351562 182.191406 Z M 83.855469 111.386719 C 83.855469 110.46875 84.621094 109.703125 85.539062 109.703125 C 86.457031 109.703125 87.222656 110.46875 87.222656 111.386719 C 87.222656 112.304688 86.457031 113.070312 85.539062 113.070312 C 84.621094 113.070312 83.855469 112.355469 83.855469 111.386719 Z M 77.785156 111.386719 C 77.785156 110.46875 78.550781 109.703125 79.46875 109.703125 C 80.386719 109.703125 81.152344 110.46875 81.152344 111.386719 C 81.152344 112.304688 80.386719 113.070312 79.46875 113.070312 C 78.550781 113.070312 77.785156 112.355469 77.785156 111.386719 Z M 71.664062 111.386719 C 71.664062 110.46875 72.429688 109.703125 73.347656 109.703125 C 74.265625 109.703125 75.03125 110.46875 75.03125 111.386719 C 75.03125 112.304688 74.265625 113.070312 73.347656 113.070312 C 72.429688 113.070312 71.664062 112.355469 71.664062 111.386719 Z M 131.289062 92.320312 C 133.789062 92.320312 135.832031 94.359375 135.832031 96.859375 C 135.832031 99.355469 133.789062 101.394531 131.289062 101.394531 C 128.792969 101.394531 126.75 99.355469 126.75 96.859375 C 126.699219 94.359375 128.742188 92.320312 131.289062 92.320312 Z M 131.289062 102.160156 C 134.199219 102.160156 136.542969 99.816406 136.542969 96.910156 C 136.542969 94.003906 134.199219 91.660156 131.289062 91.660156 C 128.382812 91.660156 126.039062 94.003906 126.039062 96.910156 C 126.039062 99.816406 128.382812 102.160156 131.289062 102.160156 Z M 110.175781 265.226562 L 101.503906 264.921875 L 101.246094 261.199219 L 109.101562 265.175781 C 109.203125 265.226562 109.359375 265.226562 109.460938 265.175781 L 110.226562 264.714844 Z M 63.503906 277.96875 L 62.890625 277.96875 L 62.890625 276.847656 L 63.351562 277.816406 C 63.402344 277.917969 63.453125 277.96875 63.503906 277.96875 Z M 83.957031 269.914062 L 99.410156 277.96875 L 63.910156 277.96875 Z M 110.53125 265.941406 C 110.734375 265.941406 110.886719 265.785156 110.886719 265.632812 L 110.988281 264.003906 C 110.988281 263.851562 110.9375 263.746094 110.835938 263.695312 C 110.734375 263.644531 110.582031 263.644531 110.480469 263.695312 L 109.308594 264.460938 L 101.042969 260.28125 C 100.941406 260.230469 100.789062 260.230469 100.6875 260.28125 C 100.585938 260.332031 100.535156 260.484375 100.535156 260.585938 L 100.839844 264.714844 C 99.515625 264.207031 96.863281 263.1875 93.496094 261.914062 L 93.035156 261.761719 C 87.222656 259.515625 85.792969 259.007812 83.703125 259.007812 L 83.652344 259.007812 C 80.742188 259.007812 78.753906 260.027344 74.570312 262.371094 C 69.726562 265.023438 64.878906 267.824219 60.136719 270.679688 C 59.984375 270.78125 59.933594 270.984375 59.984375 271.140625 L 62.125 275.472656 L 62.125 278.378906 C 62.125 278.582031 62.277344 278.734375 62.484375 278.734375 L 100.789062 278.734375 L 110.53125 280.671875 L 110.582031 280.671875 C 110.734375 280.671875 110.886719 280.570312 110.9375 280.367188 C 110.988281 280.160156 110.835938 280.007812 110.683594 279.957031 L 100.941406 278.019531 L 84.109375 269.253906 C 84.007812 269.203125 83.90625 269.203125 83.804688 269.253906 L 63.808594 277.308594 L 60.800781 271.140625 C 65.441406 268.386719 70.183594 265.632812 74.929688 263.035156 C 79.007812 260.792969 80.949219 259.773438 83.652344 259.773438 L 83.703125 259.773438 C 85.691406 259.773438 87.066406 260.28125 92.78125 262.472656 L 93.1875 262.625 C 97.066406 264.105469 99.972656 265.226562 101.042969 265.632812 L 106.042969 268.082031 C 106.195312 268.183594 106.449219 268.082031 106.5 267.929688 C 106.605469 267.773438 106.5 267.519531 106.347656 267.46875 L 102.828125 265.734375 Z M 114 232.246094 C 113.695312 232.753906 113.132812 233.113281 112.46875 233.265625 C 112.316406 233.316406 112.214844 233.417969 112.164062 233.570312 C 111.960938 235.101562 111.855469 236.628906 111.910156 238.160156 C 111.960938 239.332031 112.011719 240.503906 112.214844 241.675781 C 106.757812 245.550781 105.890625 245.140625 105.738281 245.039062 C 105.480469 244.835938 105.6875 243.511719 105.890625 241.929688 C 105.941406 241.675781 105.941406 241.472656 105.992188 241.269531 C 106.09375 240.707031 106.144531 240.25 106.144531 239.585938 C 106.144531 238.871094 106.042969 238.109375 105.890625 237.394531 C 105.839844 237.242188 105.6875 237.140625 105.53125 237.140625 L 105.480469 237.140625 C 104.511719 237.191406 103.746094 237.039062 103.1875 236.628906 C 101.757812 235.558594 101.859375 233.164062 101.960938 230.664062 C 102.011719 229.390625 102.167969 228.066406 102.472656 226.792969 C 103.339844 227.402344 104.308594 227.863281 105.378906 228.117188 C 107.265625 228.574219 108.898438 228.269531 109.96875 227.964844 C 109.917969 228.574219 109.917969 229.1875 110.019531 229.800781 C 110.125 230.460938 110.226562 231.023438 110.734375 231.277344 C 111.246094 231.53125 112.011719 231.378906 112.671875 230.769531 C 113.4375 230.769531 114 231.175781 114.101562 231.53125 C 114.203125 231.582031 114.152344 231.941406 114 232.246094 Z M 108.234375 255.03125 L 101.246094 251.464844 C 101.042969 250.394531 100.839844 247.996094 102.269531 245.652344 C 103.085938 244.328125 104.15625 243.460938 105.023438 242.898438 C 104.820312 244.328125 104.820312 245.039062 105.226562 245.449219 C 105.378906 245.601562 105.582031 245.703125 105.941406 245.703125 C 106.398438 245.703125 107.113281 245.5 108.183594 244.9375 L 108.183594 255.03125 Z M 112.570312 229.902344 C 112.46875 229.902344 112.417969 229.953125 112.316406 230.003906 C 111.804688 230.511719 111.296875 230.664062 111.09375 230.511719 C 110.9375 230.410156 110.835938 230.105469 110.785156 229.542969 C 110.683594 228.832031 110.683594 228.117188 110.785156 227.351562 C 110.785156 227.25 110.734375 227.097656 110.683594 226.996094 C 110.582031 226.894531 110.429688 226.894531 110.328125 226.945312 C 109.460938 227.300781 107.675781 227.761719 105.632812 227.25 C 104.511719 226.996094 103.492188 226.433594 102.574219 225.722656 C 102.472656 225.621094 102.371094 225.621094 102.21875 225.671875 C 102.113281 225.722656 102.011719 225.824219 101.960938 225.925781 C 101.605469 227.402344 101.351562 228.933594 101.300781 230.460938 C 101.195312 233.164062 101.09375 235.761719 102.777344 237.039062 C 103.390625 237.496094 104.257812 237.75 105.226562 237.75 C 105.328125 238.3125 105.378906 238.921875 105.429688 239.484375 C 105.429688 240.097656 105.378906 240.503906 105.277344 241.0625 C 105.226562 241.269531 105.226562 241.472656 105.175781 241.777344 C 105.175781 241.878906 105.125 241.980469 105.125 242.082031 C 104.105469 242.644531 102.675781 243.613281 101.65625 245.347656 C 100.023438 247.996094 100.382812 250.75 100.585938 251.820312 C 100.585938 251.921875 100.6875 252.023438 100.789062 252.074219 L 108.441406 256 C 108.492188 256.050781 108.542969 256.050781 108.59375 256.050781 C 108.644531 256.050781 108.746094 256.050781 108.796875 256 C 108.898438 255.949219 108.949219 255.796875 108.949219 255.695312 L 108.949219 244.683594 C 109.917969 244.121094 111.195312 243.308594 112.777344 242.1875 C 112.878906 242.082031 112.929688 241.980469 112.929688 241.828125 C 112.722656 240.605469 112.621094 239.382812 112.621094 238.160156 C 112.570312 236.730469 112.671875 235.355469 112.828125 233.929688 C 113.589844 233.722656 114.253906 233.265625 114.613281 232.652344 C 114.917969 232.144531 114.96875 231.632812 114.816406 231.226562 C 114.5625 230.410156 113.640625 229.902344 112.570312 229.902344 Z M 131.1875 257.835938 C 128.691406 257.835938 126.648438 255.796875 126.648438 253.296875 C 126.648438 250.800781 128.691406 248.761719 131.1875 248.761719 C 133.6875 248.761719 135.726562 250.800781 135.726562 253.296875 C 135.726562 255.796875 133.6875 257.835938 131.1875 257.835938 Z M 131.1875 247.996094 C 128.28125 247.996094 125.933594 250.339844 125.933594 253.246094 C 125.933594 256.152344 128.28125 258.496094 131.1875 258.496094 C 134.097656 258.496094 136.441406 256.152344 136.441406 253.246094 C 136.441406 250.394531 134.097656 247.996094 131.1875 247.996094 Z M 144.910156 221.335938 C 142.410156 221.335938 140.371094 219.296875 140.371094 216.800781 C 140.371094 214.304688 142.410156 212.265625 144.910156 212.265625 C 147.410156 212.265625 149.449219 214.304688 149.449219 216.800781 C 149.5 219.296875 147.410156 221.335938 144.910156 221.335938 Z M 144.910156 211.5 C 142.003906 211.5 139.65625 213.84375 139.65625 216.75 C 139.65625 219.65625 142.003906 222 144.910156 222 C 147.816406 222 150.164062 219.65625 150.164062 216.75 C 150.164062 213.894531 147.816406 211.5 144.910156 211.5 Z M 131.1875 221.335938 C 128.691406 221.335938 126.648438 219.296875 126.648438 216.800781 C 126.648438 214.304688 128.691406 212.265625 131.1875 212.265625 C 133.6875 212.265625 135.726562 214.304688 135.726562 216.800781 C 135.726562 219.296875 133.6875 221.335938 131.1875 221.335938 Z M 131.1875 211.5 C 128.28125 211.5 125.933594 213.84375 125.933594 216.75 C 125.933594 219.65625 128.28125 222 131.1875 222 C 134.097656 222 136.441406 219.65625 136.441406 216.75 C 136.441406 213.894531 134.097656 211.5 131.1875 211.5 Z M 206.015625 131.214844 C 205.964844 131.011719 206.015625 130.808594 206.21875 130.757812 L 214.175781 127.546875 C 214.378906 127.492188 214.585938 127.546875 214.636719 127.75 C 214.6875 127.953125 214.636719 128.15625 214.429688 128.207031 L 206.472656 131.417969 C 206.421875 131.417969 206.371094 131.46875 206.320312 131.46875 C 206.21875 131.417969 206.066406 131.367188 206.015625 131.214844 Z M 220.042969 126.476562 C 220.144531 126.628906 220.144531 126.832031 219.992188 126.984375 C 219.941406 127.035156 219.839844 127.035156 219.789062 127.035156 C 219.683594 127.035156 219.582031 126.984375 219.480469 126.882812 C 217.59375 124.382812 216.269531 121.582031 215.402344 118.625 C 214.738281 116.28125 214.429688 113.882812 214.484375 111.488281 C 214.484375 111.285156 214.636719 111.132812 214.839844 111.132812 C 215.042969 111.132812 215.195312 111.285156 215.195312 111.488281 C 215.144531 113.832031 215.453125 116.179688 216.0625 118.421875 C 216.929688 121.328125 218.257812 124.027344 220.042969 126.476562 Z M 90.691406 247.078125 L 90.996094 247.386719 C 91.351562 247.742188 91.710938 248.046875 92.066406 248.355469 L 90.230469 250.800781 C 89.617188 250.597656 89.109375 250.238281 88.699219 249.78125 C 87.78125 248.710938 87.730469 247.285156 87.832031 246.722656 L 88.496094 247.386719 C 89.058594 247.894531 89.71875 248.304688 90.433594 248.609375 C 90.535156 248.660156 90.691406 248.660156 90.792969 248.558594 C 90.894531 248.457031 90.945312 248.304688 90.894531 248.199219 C 90.84375 247.691406 90.742188 247.335938 90.691406 247.078125 Z M 86.199219 242.746094 C 85.84375 243.15625 85.488281 243.511719 85.128906 243.917969 L 87.476562 246.007812 C 87.375 246.109375 87.273438 246.265625 87.222656 246.46875 C 87.015625 247.285156 87.171875 249.015625 88.242188 250.238281 C 88.75 250.851562 89.464844 251.308594 90.332031 251.566406 L 90.433594 251.566406 C 90.535156 251.566406 90.636719 251.515625 90.742188 251.414062 L 92.933594 248.457031 C 92.984375 248.40625 93.035156 248.304688 92.984375 248.199219 C 92.984375 248.097656 92.933594 248.046875 92.832031 247.945312 C 92.371094 247.589844 91.964844 247.230469 91.558594 246.824219 L 91.148438 246.417969 C 90.792969 246.058594 90.535156 245.804688 90.230469 245.957031 C 90.179688 245.957031 90.128906 246.007812 90.128906 246.058594 C 88.800781 244.988281 87.476562 243.867188 86.199219 242.746094 Z M 120.679688 123.363281 L 125.933594 123.363281 C 123.945312 125.761719 122.621094 128.308594 120.679688 130.042969 Z M 237.230469 112.914062 C 235.292969 106.492188 231.824219 101.90625 229.171875 99.101562 L 232.84375 96.347656 C 235.039062 97.570312 241.464844 101.855469 243.863281 110.214844 C 245.289062 115.160156 244.78125 119.542969 243.914062 122.804688 L 243.914062 122.90625 C 243.351562 124.84375 242.6875 126.371094 242.179688 127.390625 L 238.40625 127.492188 C 239.015625 122.652344 238.660156 117.605469 237.230469 112.914062 Z M 229.734375 115.160156 C 231.261719 119.746094 233.8125 123.976562 237.128906 127.546875 L 217.949219 127.953125 C 216.214844 125.558594 214.839844 122.90625 213.921875 120.101562 C 213.003906 117.351562 212.542969 114.445312 212.542969 111.539062 L 228.203125 99.867188 C 227.589844 104.964844 228.101562 110.265625 229.734375 115.160156 Z M 237.691406 127.085938 C 234.476562 123.621094 231.925781 119.390625 230.449219 114.902344 C 228.40625 108.941406 228.457031 103.535156 228.917969 99.867188 C 231.519531 102.621094 234.730469 107.003906 236.566406 113.121094 C 237.894531 117.605469 238.300781 122.449219 237.691406 127.085938 Z M 246.820312 122.652344 L 244.679688 122.652344 C 245.546875 119.339844 245.953125 114.953125 244.523438 110.058594 C 241.976562 101.140625 235.039062 96.757812 232.945312 95.632812 C 232.84375 95.585938 232.691406 95.585938 232.589844 95.6875 L 211.984375 111.078125 C 211.882812 111.132812 211.832031 111.234375 211.832031 111.386719 C 211.832031 114.445312 212.289062 117.453125 213.257812 120.359375 C 214.226562 123.3125 215.65625 126.066406 217.492188 128.566406 C 217.542969 128.667969 217.644531 128.71875 217.796875 128.71875 L 242.382812 128.207031 C 242.535156 128.207031 242.636719 128.15625 242.6875 128.003906 C 243.199219 127.035156 243.964844 125.457031 244.523438 123.417969 L 246.871094 123.417969 L 246.871094 205.332031 L 200.558594 205.332031 C 200.710938 205.28125 200.8125 205.078125 200.761719 204.921875 L 196.019531 188.765625 C 195.96875 188.5625 195.761719 188.460938 195.558594 188.511719 C 195.355469 188.5625 195.253906 188.765625 195.304688 188.96875 L 196.171875 191.976562 L 162.660156 191.976562 L 164.292969 189.019531 C 164.394531 188.867188 164.34375 188.613281 164.140625 188.5625 C 163.984375 188.460938 163.730469 188.511719 163.679688 188.714844 L 159.855469 195.492188 L 148.734375 175.613281 L 151.132812 172.097656 C 151.234375 171.945312 151.183594 171.738281 151.03125 171.585938 C 150.878906 171.484375 150.671875 171.535156 150.519531 171.6875 L 148.019531 175.359375 C 147.96875 175.460938 147.917969 175.613281 148.019531 175.714844 L 159.496094 196.15625 C 159.445312 196.308594 159.496094 196.460938 159.652344 196.5625 L 159.753906 196.5625 L 160.464844 197.839844 C 160.464844 197.890625 160.414062 197.941406 160.464844 197.992188 C 160.519531 198.144531 160.671875 198.296875 160.824219 198.296875 L 160.875 198.296875 C 162.304688 198.960938 163.628906 199.777344 164.800781 200.792969 C 166.382812 202.070312 167.554688 203.394531 167.710938 203.851562 C 167.453125 203.851562 166.636719 203.75 163.984375 202.578125 C 163.882812 202.527344 163.730469 202.527344 163.628906 202.628906 C 163.527344 202.730469 163.476562 202.832031 163.476562 202.988281 C 163.679688 204.058594 164.035156 205.128906 164.546875 206.148438 C 165.210938 207.472656 166.078125 208.695312 167.148438 209.714844 C 165.515625 209.664062 162.710938 209.257812 160.160156 207.21875 C 157.558594 205.179688 156.589844 202.527344 156.183594 201.101562 C 156.183594 201 156.132812 200.949219 156.027344 200.898438 C 151.386719 197.683594 147.101562 194.015625 143.328125 189.886719 C 137.308594 183.363281 134.402344 179.996094 134.402344 175.15625 C 134.402344 169.800781 138.074219 165.570312 141.1875 162.921875 C 141.339844 162.820312 141.339844 162.5625 141.238281 162.410156 C 141.136719 162.257812 140.878906 162.257812 140.726562 162.359375 C 140.675781 162.410156 140.625 162.410156 140.625 162.460938 C 140.371094 162.257812 140.167969 162.003906 139.910156 161.800781 C 144.042969 156.957031 147.714844 153.234375 150.519531 150.585938 C 155.875 145.4375 157.96875 144.214844 159.445312 143.449219 C 164.089844 141.105469 168.527344 140.746094 171.484375 140.746094 C 171.484375 140.898438 171.585938 141.054688 171.738281 141.105469 L 171.839844 141.105469 C 171.992188 141.105469 172.148438 141.003906 172.199219 140.847656 C 173.015625 138.402344 173.472656 135.804688 173.625 133.253906 C 173.78125 130.5 173.523438 127.699219 172.859375 124.996094 C 172.808594 124.894531 172.757812 124.792969 172.65625 124.742188 C 170.054688 123.722656 168.320312 121.886719 168.476562 120.410156 C 168.476562 120.203125 168.578125 119.492188 169.1875 118.980469 C 169.953125 118.269531 171.179688 118.164062 172.402344 118.675781 C 172.453125 118.675781 172.503906 118.726562 172.554688 118.675781 C 174.851562 118.472656 178.269531 117.707031 181.683594 115.3125 C 185.050781 112.914062 186.9375 109.90625 187.90625 107.613281 C 188.828125 108.941406 189.898438 110.113281 191.222656 111.078125 C 192.039062 111.691406 192.957031 112.253906 193.875 112.710938 C 193.976562 115.261719 193.925781 117.859375 193.722656 120.359375 C 193.316406 126.78125 192.398438 128.617188 191.53125 129.585938 C 190.507812 130.707031 189.132812 131.46875 187.347656 131.878906 C 187.195312 131.929688 187.09375 132.03125 187.09375 132.132812 C 186.683594 133.765625 186.53125 135.394531 186.582031 137.078125 C 186.632812 138.351562 186.785156 139.625 187.09375 140.847656 C 187.144531 141.054688 187.347656 141.15625 187.5 141.105469 C 187.703125 141.054688 187.804688 140.847656 187.753906 140.695312 C 187.449219 139.523438 187.296875 138.300781 187.246094 137.078125 C 187.195312 135.546875 187.347656 134.019531 187.703125 132.539062 C 189.488281 132.082031 190.917969 131.265625 191.988281 130.042969 C 192.804688 129.125 193.621094 127.648438 194.132812 123.261719 L 198.414062 123.261719 C 198.515625 123.671875 198.621094 124.128906 198.773438 124.539062 C 199.589844 127.238281 200.8125 129.839844 202.394531 132.234375 C 202.445312 132.335938 202.597656 132.386719 202.699219 132.386719 C 202.75 132.386719 202.800781 132.386719 202.851562 132.335938 L 204.84375 131.46875 C 205.046875 131.367188 205.097656 131.164062 205.046875 131.011719 C 204.945312 130.808594 204.742188 130.757812 204.585938 130.808594 L 202.851562 131.570312 C 201.425781 129.328125 200.25 126.882812 199.488281 124.332031 C 198.773438 122.039062 198.363281 119.644531 198.210938 117.199219 L 200.40625 116.230469 C 200.609375 116.125 200.660156 115.921875 200.558594 115.769531 C 200.457031 115.566406 200.25 115.515625 200.097656 115.617188 L 197.703125 116.6875 C 197.546875 116.738281 197.496094 116.890625 197.496094 117.042969 C 197.597656 118.929688 197.855469 120.765625 198.261719 122.601562 L 194.234375 122.601562 C 194.285156 121.9375 194.335938 121.222656 194.4375 120.410156 C 194.539062 118.828125 194.589844 117.25 194.589844 115.617188 C 195.761719 113.933594 197.242188 111.078125 196.628906 107.972656 C 195.507812 102.363281 187.855469 98.898438 181.941406 98.898438 C 170.921875 98.949219 170.363281 110.925781 155.925781 116.230469 C 143.074219 120.96875 136.289062 113.984375 128.382812 120.816406 C 127.71875 121.378906 127.160156 121.988281 126.597656 122.601562 C 126.546875 122.550781 126.445312 122.5 126.34375 122.5 L 120.785156 122.5 L 120.785156 84.777344 L 246.921875 84.777344 L 246.921875 122.652344 Z M 191.019531 192.640625 C 191.273438 193.503906 192.089844 195.441406 194.183594 196.511719 C 195.304688 197.125 196.476562 197.277344 197.292969 197.277344 L 197.753906 197.277344 L 200.046875 205.078125 C 200.097656 205.179688 200.199219 205.28125 200.300781 205.28125 L 179.644531 205.28125 L 181.226562 202.9375 C 181.277344 202.886719 181.277344 202.832031 181.277344 202.730469 L 181.277344 192.589844 L 191.019531 192.589844 Z M 197.546875 196.5625 C 196.78125 196.613281 195.660156 196.511719 194.539062 195.902344 C 192.855469 194.984375 192.089844 193.453125 191.785156 192.640625 L 196.375 192.640625 Z M 180.5625 192.640625 L 180.5625 202.628906 L 179.339844 204.464844 L 179.339844 192.640625 Z M 160.261719 196.15625 L 162.25 192.640625 L 167.351562 192.640625 C 166.84375 193.660156 166.027344 194.882812 164.597656 195.953125 C 163.578125 196.71875 162.355469 197.277344 161.027344 197.582031 Z M 120.679688 205.996094 L 156.589844 205.996094 C 156.792969 205.996094 156.945312 205.839844 156.945312 205.636719 C 156.945312 205.433594 156.792969 205.28125 156.589844 205.28125 L 120.679688 205.28125 L 120.679688 174.542969 C 123.691406 175.664062 127.875 176.378906 133.738281 176.429688 C 134.25 181.167969 137.71875 184.941406 142.765625 190.445312 C 146.542969 194.574219 150.828125 198.246094 155.46875 201.457031 C 155.875 202.988281 156.945312 205.6875 159.652344 207.828125 C 162.507812 210.125 165.667969 210.480469 167.351562 210.480469 L 168.015625 210.480469 C 168.167969 210.480469 168.269531 210.378906 168.320312 210.226562 C 168.371094 210.070312 168.320312 209.917969 168.21875 209.816406 C 166.894531 208.695312 165.875 207.371094 165.109375 205.839844 C 164.75 205.128906 164.445312 204.363281 164.292969 203.546875 C 167.503906 204.976562 168.066406 204.667969 168.320312 204.3125 C 168.882812 203.445312 166.332031 201.203125 165.210938 200.285156 C 164.191406 199.417969 163.066406 198.703125 161.894531 198.09375 C 163.015625 197.738281 164.089844 197.226562 165.058594 196.511719 C 166.742188 195.289062 167.660156 193.761719 168.167969 192.640625 L 178.625 192.640625 L 178.625 205.28125 L 165.515625 205.28125 C 165.3125 205.28125 165.160156 205.433594 165.160156 205.636719 C 165.160156 205.839844 165.3125 205.996094 165.515625 205.996094 L 246.820312 205.996094 L 246.820312 265.632812 L 120.679688 265.632812 Z M 250.851562 267.722656 C 250.851562 275.21875 244.730469 281.332031 237.230469 281.332031 L 129.863281 281.332031 C 122.363281 281.332031 116.242188 275.21875 116.242188 267.722656 L 116.242188 171.996094 C 117.214844 172.808594 118.4375 173.574219 119.96875 174.238281 L 119.96875 265.992188 C 119.96875 266.195312 120.121094 266.347656 120.324219 266.347656 L 247.175781 266.347656 C 247.382812 266.347656 247.535156 266.195312 247.535156 265.992188 L 247.535156 84.421875 C 247.535156 84.21875 247.382812 84.0625 247.175781 84.0625 L 120.324219 84.0625 C 120.121094 84.0625 119.96875 84.21875 119.96875 84.421875 L 119.96875 130.65625 C 119 131.367188 117.875 131.929688 116.5 132.183594 C 116.398438 132.183594 116.292969 132.234375 116.242188 132.234375 L 116.242188 84.980469 C 116.242188 77.488281 122.363281 71.371094 129.863281 71.371094 L 237.230469 71.371094 C 244.730469 71.371094 250.851562 77.488281 250.851562 84.980469 Z M 125.933594 71.21875 C 119.917969 72.902344 115.53125 78.457031 115.53125 84.980469 L 115.53125 132.335938 C 112.0625 132.746094 110.175781 131.46875 107.0625 133.101562 C 103.441406 134.988281 100.839844 139.675781 101.453125 143.652344 C 102.0625 147.628906 105.378906 148.035156 108.847656 152.828125 C 113.847656 159.710938 111.195312 164.859375 114.203125 169.648438 C 114.5625 170.210938 114.96875 170.769531 115.53125 171.332031 L 115.53125 267.722656 C 115.53125 275.625 121.957031 282.046875 129.863281 282.046875 L 237.230469 282.046875 C 245.136719 282.046875 251.5625 275.625 251.5625 267.722656 L 251.5625 84.980469 C 251.5625 77.082031 245.136719 70.65625 237.230469 70.65625 L 129.863281 70.65625 C 128.484375 70.707031 127.210938 70.863281 125.933594 71.21875 " fill-opacity="1" fill-rule="nonzero"/><path fill="rgb(100%, 100%, 100%)" d="M 283.1875 135.292969 L 283.441406 132.644531 L 284.769531 132.847656 L 286.09375 135.550781 L 285.839844 136.875 L 290.175781 136.515625 L 290.839844 137.84375 L 290.226562 139.625 L 291.195312 140.390625 L 290.429688 141.972656 L 290.6875 143.652344 L 288.800781 144.828125 L 282.167969 144.570312 L 282.730469 141.972656 L 283.1875 135.292969 " fill-opacity="1" fill-rule="nonzero"/><path fill="rgb(5.879211%, 5.488586%, 4.708862%)" d="M 40.34375 145.335938 C 40.191406 145.4375 40.144531 145.640625 40.246094 145.792969 C 40.550781 146.304688 40.5 146.710938 40.445312 146.917969 C 40.246094 147.832031 39.121094 148.496094 37.796875 148.496094 L 32.132812 148.496094 L 32.132812 139.984375 C 32.339844 139.21875 32.441406 138.402344 32.492188 137.589844 L 32.492188 136.515625 C 32.492188 135.90625 32.492188 135.496094 32.644531 135.394531 C 32.847656 135.242188 33.410156 135.445312 33.765625 135.652344 C 35.347656 136.621094 35.042969 139.574219 34.988281 139.933594 C 34.988281 140.035156 34.988281 140.136719 35.089844 140.1875 C 35.144531 140.238281 35.246094 140.289062 35.347656 140.289062 C 36.519531 140.289062 37.640625 140.1875 38.714844 140.085938 L 38.816406 140.085938 C 39.425781 139.984375 39.988281 139.933594 40.292969 140.238281 C 40.5 140.441406 40.550781 140.75 40.601562 140.953125 C 40.753906 141.664062 40.398438 142.328125 40.246094 142.632812 C 40.191406 142.738281 40.191406 142.839844 40.191406 142.941406 C 40.246094 143.042969 40.292969 143.144531 40.398438 143.144531 C 40.601562 143.195312 40.90625 143.347656 41.058594 143.652344 C 41.265625 144.164062 41.058594 144.878906 40.34375 145.335938 Z M 41.007812 142.683594 C 41.210938 142.226562 41.417969 141.5625 41.3125 140.851562 C 41.265625 140.542969 41.164062 140.085938 40.753906 139.730469 C 40.191406 139.21875 39.425781 139.320312 38.714844 139.421875 L 38.613281 139.421875 C 37.695312 139.523438 36.722656 139.625 35.703125 139.625 C 35.753906 138.554688 35.703125 136.058594 34.070312 135.089844 C 33.867188 134.988281 32.847656 134.375 32.183594 134.835938 C 31.726562 135.140625 31.726562 135.753906 31.726562 136.570312 L 31.726562 137.589844 C 31.675781 138.351562 31.574219 139.167969 31.417969 139.882812 L 31.417969 139.984375 L 28.5625 139.984375 L 28.5625 149.261719 L 37.742188 149.261719 C 39.425781 149.261719 40.804688 148.34375 41.058594 147.121094 C 41.109375 146.8125 41.109375 146.355469 40.90625 145.792969 C 41.671875 145.183594 41.976562 144.214844 41.621094 143.449219 C 41.519531 143.042969 41.265625 142.839844 41.007812 142.683594 Z M 80.285156 175.871094 L 73.347656 182.800781 L 66.410156 175.871094 C 64.675781 173.933594 64.777344 170.976562 66.5625 169.140625 C 68.398438 167.304688 71.410156 167.203125 73.347656 168.9375 C 75.183594 167.304688 77.835938 167.152344 79.570312 168.425781 C 81.761719 169.957031 82.273438 173.421875 80.285156 175.871094 Z M 283.1875 136.875 C 283.339844 136.210938 283.441406 135.496094 283.496094 134.785156 L 283.496094 133.867188 C 283.496094 133.40625 283.496094 133 283.597656 132.898438 C 283.75 132.796875 284.207031 132.949219 284.515625 133.101562 C 285.839844 133.917969 285.585938 136.464844 285.585938 136.722656 C 285.585938 136.824219 285.585938 136.925781 285.6875 136.976562 C 285.738281 137.027344 285.839844 137.078125 285.941406 137.078125 C 286.960938 137.078125 287.933594 137.027344 288.851562 136.875 L 288.953125 136.875 C 289.460938 136.824219 289.921875 136.722656 290.175781 136.976562 C 290.328125 137.128906 290.378906 137.382812 290.429688 137.589844 C 290.53125 138.199219 290.277344 138.761719 290.125 139.015625 C 290.074219 139.117188 290.074219 139.21875 290.074219 139.320312 C 290.125 139.421875 290.175781 139.523438 290.277344 139.523438 C 290.378906 139.574219 290.6875 139.679688 290.789062 139.984375 C 290.941406 140.339844 290.789062 140.953125 290.175781 141.359375 C 290.023438 141.460938 289.972656 141.664062 290.074219 141.820312 C 290.277344 142.226562 290.277344 142.53125 290.277344 142.734375 C 290.125 143.5 289.15625 144.0625 288.035156 144.0625 L 283.1875 144.0625 Z M 282.832031 144.878906 L 288.035156 144.878906 C 289.511719 144.878906 290.738281 144.0625 290.941406 142.992188 C 290.992188 142.738281 290.992188 142.328125 290.839844 141.871094 C 291.503906 141.308594 291.757812 140.492188 291.453125 139.832031 C 291.296875 139.523438 291.09375 139.320312 290.890625 139.21875 C 291.09375 138.8125 291.246094 138.25 291.144531 137.640625 C 291.09375 137.382812 291.042969 136.976562 290.6875 136.621094 C 290.175781 136.160156 289.511719 136.261719 288.902344 136.3125 L 288.800781 136.3125 C 288.035156 136.414062 287.21875 136.464844 286.351562 136.464844 C 286.402344 135.496094 286.351562 133.40625 284.921875 132.542969 C 284.667969 132.386719 283.851562 131.929688 283.238281 132.335938 C 282.832031 132.644531 282.832031 133.152344 282.832031 133.867188 L 282.832031 134.734375 C 282.78125 135.394531 282.679688 136.058594 282.523438 136.722656 L 282.523438 136.824219 L 280.128906 136.824219 L 280.128906 144.828125 L 282.679688 144.828125 C 282.730469 144.878906 282.78125 144.878906 282.832031 144.878906 Z M 292.164062 186.980469 L 284.308594 186.980469 C 284.972656 186.320312 285.789062 185.300781 286.453125 183.871094 C 287.625 181.273438 287.472656 178.878906 287.320312 177.804688 C 286.402344 177.246094 285.332031 176.480469 284.257812 175.460938 C 283.339844 174.644531 282.628906 173.832031 282.066406 173.117188 C 281.605469 173.882812 280.789062 175.105469 279.414062 176.175781 C 278.292969 177.042969 277.21875 177.550781 276.457031 177.804688 C 276.300781 178.671875 276.148438 180.253906 276.609375 182.140625 C 277.167969 184.332031 278.34375 185.707031 279.003906 186.371094 L 279.003906 186.980469 L 272.121094 186.980469 C 270.996094 184.382812 271.046875 182.496094 271.558594 181.121094 C 272.070312 179.691406 272.78125 179.589844 273.753906 177.652344 C 275.179688 174.851562 274.3125 173.730469 275.433594 172.097656 C 277.167969 169.496094 281.148438 169.445312 281.964844 169.394531 C 285.175781 169.34375 289.460938 170.824219 290.429688 173.730469 C 291.195312 175.921875 289.460938 177.144531 290.585938 179.742188 C 291.246094 181.324219 292.265625 181.679688 292.625 183.3125 C 292.929688 184.738281 292.523438 186.0625 292.164062 186.980469 Z M 166.332031 98.082031 L 140.164062 98.082031 L 140.164062 96.042969 L 166.332031 96.042969 Z M 117.265625 229.75 C 117.519531 232.5 115.53125 235.355469 112.265625 236.324219 C 112.316406 235.355469 112.367188 234.4375 112.519531 233.570312 C 114.050781 233.316406 114.765625 232.042969 114.507812 231.226562 C 114.304688 230.667969 113.539062 230.207031 112.570312 230.257812 C 111.960938 230.820312 111.347656 231.074219 110.886719 230.820312 C 110.582031 230.667969 110.480469 230.207031 110.378906 229.597656 C 110.277344 229.085938 110.226562 228.269531 110.378906 227.300781 C 109.664062 227.609375 107.777344 228.167969 105.480469 227.609375 C 103.953125 227.25 102.878906 226.488281 102.269531 226.027344 C 102.011719 226.945312 101.859375 227.8125 101.757812 228.628906 C 101.09375 227.351562 100.484375 226.027344 99.820312 224.753906 C 102.011719 221.238281 106.042969 219.605469 109.460938 220.675781 C 112.828125 221.695312 114.203125 224.957031 114.457031 225.46875 C 114.816406 225.722656 117.007812 227.199219 117.265625 229.75 Z M 140.011719 252.179688 L 167.554688 252.179688 L 167.554688 254.371094 L 140.011719 254.371094 Z M 154.601562 241.828125 L 127.058594 241.828125 L 127.058594 239.636719 L 154.601562 239.636719 Z M 127.058594 233.214844 L 240.035156 233.214844 L 240.035156 235.40625 L 127.058594 235.40625 Z M 127.058594 226.742188 L 240.035156 226.742188 L 240.035156 229.136719 L 127.058594 229.136719 Z M 153.785156 218.6875 L 197.292969 218.6875 L 197.292969 220.980469 L 153.785156 220.980469 Z M 179.949219 212.925781 L 179.949219 214.964844 L 153.785156 214.964844 L 153.785156 212.925781 Z M 198.363281 272.617188 C 198.363281 274.199219 197.089844 275.523438 195.457031 275.523438 L 171.535156 275.523438 C 169.953125 275.523438 168.628906 274.25 168.628906 272.617188 C 168.628906 271.039062 169.902344 269.710938 171.535156 269.710938 L 195.457031 269.710938 C 197.039062 269.765625 198.363281 271.039062 198.363281 272.617188 Z M 169.445312 79.121094 L 198.621094 79.121094 C 199.488281 79.121094 200.148438 78.457031 200.148438 77.589844 C 200.148438 76.726562 199.488281 76.0625 198.621094 76.0625 L 169.445312 76.0625 C 168.578125 76.0625 167.914062 76.726562 167.914062 77.589844 C 167.914062 78.457031 168.628906 79.121094 169.445312 79.121094 Z M 333.074219 190.90625 L 324.402344 182.242188 C 322.257812 179.84375 322.308594 176.125 324.605469 173.832031 C 326.902344 171.535156 330.625 171.382812 333.074219 173.574219 C 335.417969 171.535156 338.683594 171.332031 340.875 172.914062 C 343.578125 174.851562 344.242188 179.183594 341.742188 182.242188 Z M 63.300781 277.207031 C 63.042969 277.308594 62.789062 277.410156 62.535156 277.5625 L 62.535156 277.917969 L 61.71875 277.917969 C 60.902344 278.328125 60.035156 278.785156 59.117188 279.296875 C 57.890625 280.007812 56.820312 280.773438 55.902344 281.488281 C 55.191406 280.265625 54.527344 279.144531 53.914062 278.125 C 52.433594 278.175781 51.003906 278.175781 49.527344 278.226562 C 49.171875 268.640625 49.375 263.800781 50.191406 263.699219 C 50.75 263.648438 51.617188 265.890625 52.789062 270.527344 C 53.25 270.9375 53.761719 271.34375 54.269531 271.90625 L 60.75 271.90625 L 62.277344 274.65625 L 62.328125 275.371094 C 62.6875 275.984375 62.992188 276.59375 63.300781 277.207031 " fill-opacity="1" fill-rule="nonzero"/><path fill="rgb(29.798889%, 43.528748%, 74.899292%)" d="M 232.640625 120.054688 C 234.578125 118.421875 236.566406 116.738281 238.507812 115.109375 C 238.609375 114.90625 239.578125 113.222656 238.8125 111.234375 C 238.097656 109.347656 236.3125 108.6875 236.109375 108.585938 C 233.761719 108.6875 231.367188 108.785156 229.019531 108.886719 C 229.222656 110.523438 229.582031 112.558594 230.34375 114.800781 C 231.007812 116.890625 231.824219 118.625 232.640625 120.054688 Z M 256.5625 277.460938 C 256.5625 272.414062 252.941406 268.4375 248.65625 267.980469 C 245.496094 267.675781 242.28125 269.40625 240.394531 272.363281 C 237.742188 270.476562 234.273438 270.121094 231.367188 271.445312 C 227.589844 273.179688 226.621094 276.949219 226.46875 277.460938 C 224.171875 277.816406 222.492188 279.855469 222.542969 282.152344 C 222.59375 284.546875 224.53125 286.535156 226.980469 286.636719 L 256.511719 286.636719 C 259.113281 286.6875 261.253906 284.699219 261.410156 282.304688 C 261.613281 279.753906 259.367188 277.410156 256.5625 277.460938 Z M 121.957031 261.402344 C 122.210938 257.121094 123.230469 249.882812 120.324219 245.753906 C 118.894531 243.714844 116.90625 242.695312 116.90625 242.695312 C 115.121094 241.777344 113.4375 241.726562 112.519531 241.777344 C 110.9375 243.003906 109.613281 243.921875 108.542969 244.53125 L 108.542969 255.644531 L 100.890625 251.71875 C 100.738281 251.054688 100.277344 248.253906 101.910156 245.5 C 103.03125 243.664062 104.5625 242.746094 105.328125 242.339844 C 105.378906 242.1875 105.429688 241.984375 105.480469 241.777344 C 104.664062 241.882812 102.574219 242.1875 100.738281 243.867188 C 97.882812 246.417969 97.933594 250.035156 97.933594 250.597656 L 92.933594 248.355469 L 90.484375 251.71875 L 95.179688 255.796875 L 94.566406 258.703125 L 88.957031 260.589844 L 101.195312 265.277344 L 100.839844 260.589844 L 109.257812 264.820312 L 110.632812 263.953125 C 110.480469 265.992188 110.328125 268.183594 110.277344 270.476562 C 110.226562 273.996094 110.378906 277.257812 110.632812 280.265625 C 112.367188 280.570312 114.867188 280.773438 117.773438 280.367188 C 120.121094 280.007812 122.058594 279.347656 123.488281 278.734375 C 121.804688 271.496094 121.703125 265.582031 121.957031 261.402344 Z M 199.078125 147.730469 C 197.445312 145.589844 194.183594 142.582031 187.347656 140.851562 C 187.449219 141.511719 188.214844 148.546875 185.152344 150.179688 C 182.347656 151.707031 176.378906 148.496094 171.738281 140.851562 C 168.832031 140.800781 164.242188 141.15625 159.496094 143.550781 C 158.019531 144.316406 155.925781 145.539062 150.570312 150.6875 C 147.816406 153.339844 144.09375 157.109375 139.960938 161.902344 C 143.789062 165.417969 147.613281 168.9375 151.4375 172.503906 L 161.382812 162.308594 C 162.355469 165.980469 163.222656 170.363281 163.679688 175.308594 C 164.191406 180.40625 164.191406 184.941406 163.933594 188.816406 C 169.238281 189.226562 175.003906 189.480469 181.175781 189.480469 C 186.277344 189.429688 191.070312 189.226562 195.609375 188.816406 C 194.945312 185.859375 194.4375 181.988281 194.84375 177.449219 C 194.996094 175.714844 195.304688 174.136719 195.609375 172.710938 C 195.96875 173.117188 196.273438 173.472656 196.628906 173.882812 L 206.730469 160.375 C 205.863281 158.84375 204.535156 156.601562 202.902344 153.847656 C 200.8125 150.382812 199.742188 148.648438 199.078125 147.730469 " fill-opacity="1" fill-rule="nonzero"/><path fill="rgb(5.879211%, 5.488586%, 4.708862%)" d="M 236.3125 108.886719 C 236.261719 108.886719 236.210938 108.886719 236.109375 108.941406 C 235.445312 109.144531 235.140625 110.625 235.753906 112.355469 C 236.3125 114.089844 237.433594 115.109375 238.097656 114.90625 C 238.761719 114.699219 239.066406 113.222656 238.457031 111.488281 C 237.945312 109.859375 236.925781 108.886719 236.3125 108.886719 Z M 237.894531 115.617188 C 236.824219 115.617188 235.648438 114.394531 235.039062 112.558594 C 234.375 110.523438 234.730469 108.632812 235.855469 108.226562 C 236.976562 107.867188 238.40625 109.144531 239.117188 111.183594 C 239.78125 113.222656 239.425781 115.109375 238.300781 115.515625 C 238.148438 115.617188 238.046875 115.617188 237.894531 115.617188 " fill-opacity="1" fill-rule="nonzero"/><g clip-path="url(#clip-0)"><path fill="rgb(5.879211%, 5.488586%, 4.708862%)" d="M 80.84375 260.4375 C 80.949219 260.28125 80.949219 260.078125 80.792969 259.925781 C 38 225.46875 15.558594 184.332031 19.128906 146.96875 C 21.472656 122.5 39.273438 83.25 71.359375 72.546875 C 75.285156 71.21875 85.84375 68.417969 99.359375 70.300781 C 106.65625 71.320312 112.929688 73.460938 118.640625 76.828125 C 118.792969 76.929688 119.050781 76.878906 119.152344 76.726562 C 119.253906 76.570312 119.203125 76.316406 119.050781 76.214844 C 113.234375 72.800781 106.859375 70.609375 99.515625 69.589844 C 85.84375 67.703125 75.132812 70.554688 71.207031 71.882812 C 52.84375 77.949219 40.703125 92.527344 33.714844 103.691406 C 25.453125 116.890625 19.738281 133.050781 18.414062 146.867188 C 16.527344 166.898438 21.625 187.492188 33.664062 208.136719 C 44.273438 226.386719 60.441406 244.480469 80.335938 260.488281 C 80.386719 260.539062 80.488281 260.589844 80.539062 260.589844 C 80.640625 260.589844 80.742188 260.539062 80.84375 260.4375 Z M 228.050781 316.304688 C 222.386719 316.304688 216.625 316.046875 210.757812 315.488281 C 184.949219 313.09375 164.292969 305.800781 155.46875 302.742188 C 139.859375 297.289062 123.539062 289.441406 108.285156 280.113281 C 108.132812 280.007812 108.082031 279.804688 108.183594 279.601562 C 108.285156 279.449219 108.492188 279.398438 108.695312 279.5 C 123.945312 288.828125 140.21875 296.628906 155.773438 302.082031 C 209.6875 320.992188 257.734375 320.023438 298.59375 299.226562 C 320.015625 288.214844 370.511719 257.019531 373.726562 204.160156 C 374.03125 199.316406 375.664062 155.988281 343.988281 131.214844 C 333.992188 123.417969 316.394531 114.191406 289.257812 114.800781 C 279.71875 115.007812 274.261719 116.6875 267.273438 118.828125 C 263.855469 119.898438 259.980469 121.074219 255.132812 122.195312 C 254.421875 122.347656 253.195312 122.652344 251.613281 122.957031 C 251.410156 123.007812 251.257812 122.855469 251.207031 122.703125 C 251.15625 122.5 251.308594 122.347656 251.460938 122.296875 C 253.042969 121.9375 254.265625 121.683594 254.980469 121.53125 C 259.777344 120.410156 263.652344 119.238281 267.070312 118.167969 C 274.109375 116.027344 279.617188 114.34375 289.257812 114.140625 C 316.546875 113.527344 334.347656 122.804688 344.394531 130.707031 C 376.378906 155.683594 374.695312 199.367188 374.386719 204.261719 C 372.910156 229.035156 360.871094 251.972656 338.632812 272.464844 C 330.726562 279.753906 317.414062 290.410156 298.746094 299.890625 C 277.273438 310.796875 253.554688 316.304688 228.050781 316.304688 " fill-opacity="1" fill-rule="nonzero"/></g></svg>