<?xml version="1.0" encoding="UTF-8"?><svg xmlns="http://www.w3.org/2000/svg" xmlns:xlink="http://www.w3.org/1999/xlink" width="375" zoomAndPan="magnify" viewBox="0 0 375 374.999991" height="374.999991" preserveAspectRatio="xMidYMid meet" version="1.0"><defs><clipPath id="clip-0"><path d="M 17.464844 133.085938 L 374.972656 133.085938 L 374.972656 275.480469 L 17.464844 275.480469 Z M 17.464844 133.085938 " clip-rule="nonzero"/></clipPath><clipPath id="clip-1"><path d="M 5 14 L 371 14 L 371 361.609375 L 5 361.609375 Z M 5 14 " clip-rule="nonzero"/></clipPath></defs><path fill="rgb(100%, 100%, 100%)" d="M 359.140625 273.535156 C 358.929688 277.980469 359.007812 280.273438 359.417969 280.339844 C 359.703125 280.410156 360.050781 279.578125 360.527344 277.839844 C 362.539062 282.425781 363.929688 284.648438 364.769531 284.441406 C 365.734375 284.160156 365.871094 280.480469 365.117188 273.257812 C 363.097656 273.324219 361.152344 273.394531 359.140625 273.535156 Z M 1.375 290.207031 C 1.027344 291.386719 0.679688 293.121094 0.539062 295.34375 C 0.398438 298.472656 0.886719 301.527344 1.375 301.527344 C 1.71875 301.527344 1.789062 299.722656 3.175781 297.5 C 3.730469 296.664062 4.289062 296.039062 4.636719 295.625 C 5.191406 296.664062 5.605469 297.152344 5.886719 297.082031 C 6.371094 296.941406 6.371094 294.789062 5.886719 290.550781 Z M 66.832031 248.527344 C 67.734375 247.902344 68.914062 247.070312 70.097656 246.097656 C 71.277344 245.054688 71.550781 244.707031 71.488281 244.359375 C 71.410156 243.109375 68.21875 242.414062 67.941406 242.347656 C 71.625 239.429688 72.382812 238.386719 72.242188 238.109375 C 71.972656 237.625 68.21875 238.664062 66.207031 241.511719 C 64.75 243.527344 64.609375 245.75 64.609375 246.863281 C 65.304688 247.417969 66.070312 247.972656 66.832031 248.527344 Z M 28.859375 241.722656 C 27.125 242.695312 25.527344 243.042969 24.488281 243.179688 C 23.65625 243.527344 23.097656 244.222656 22.960938 245.054688 C 22.820312 246.097656 23.445312 247.140625 24.488281 247.554688 L 24.488281 254.363281 C 24.558594 254.503906 25.390625 255.613281 26.917969 255.683594 C 28.515625 255.753906 29.488281 254.433594 29.554688 254.363281 L 29.554688 249.988281 C 31.015625 249.570312 31.777344 248.804688 32.195312 248.320312 C 33.582031 246.652344 33.582031 244.429688 33.511719 240.75 C 33.511719 239.359375 33.371094 238.25 33.304688 237.484375 C 32.679688 238.386719 31.359375 240.332031 28.859375 241.722656 Z M 238.636719 59.175781 C 238.089844 58.6875 237.804688 58.136719 237.667969 57.789062 C 237.667969 57.648438 237.535156 56.746094 236.699219 56.121094 C 235.722656 55.496094 234.679688 55.84375 234.617188 55.84375 C 234.0625 56.257812 232.738281 57.023438 230.863281 57.230469 C 229.066406 57.441406 227.675781 56.953125 227.046875 56.675781 C 227.183594 57.648438 227.46875 59.382812 228.71875 61.121094 C 229.265625 61.957031 230.59375 63.761719 233.085938 64.316406 C 235.105469 64.800781 236.761719 64.179688 237.457031 63.898438 C 237.742188 65.148438 238.011719 66.398438 238.289062 67.582031 C 238.785156 67.582031 240.171875 67.441406 241.214844 66.398438 C 242.601562 64.941406 242.742188 62.371094 241.351562 60.148438 C 240.867188 60.21875 239.679688 60.078125 238.636719 59.175781 Z M 348.460938 315.351562 L 346.726562 274.921875 L 321.800781 274.4375 L 320.273438 315.28125 L 324.304688 342.71875 L 331.941406 342.71875 L 330.960938 312.78125 L 334.640625 289.164062 L 339.363281 317.015625 L 345.746094 339.105469 L 353.730469 339.105469 Z M 297.925781 77.308594 L 308.261719 57.71875 L 304.304688 55.707031 L 290.984375 74.390625 L 271.609375 71.683594 C 271.203125 71.539062 267.308594 70.222656 264.667969 72.234375 C 261.828125 74.460938 261.269531 80.085938 265.015625 84.601562 C 276.539062 84.53125 287.992188 84.53125 299.523438 84.460938 L 319.445312 84.460938 L 318.613281 78.628906 Z M 24.980469 305.347656 C 24.910156 305.695312 24.425781 308.054688 23.796875 311.183594 Z M 34.976562 297.707031 C 35.945312 306.527344 36.921875 315.351562 37.890625 324.171875 L 33.933594 355.777344 L 27.339844 355.777344 L 27.339844 325.699219 C 26.160156 320.90625 24.910156 316.113281 23.730469 311.320312 C 22.273438 318.960938 19.980469 331.257812 19.980469 331.257812 L 13.246094 352.582031 L 5.890625 352.582031 L 11.164062 327.574219 L 11.582031 297.011719 C 14.566406 296.25 18.871094 295.414062 24.144531 295.691406 C 28.589844 295.902344 32.269531 296.804688 34.976562 297.707031 Z M 127.855469 24.445312 C 125.835938 23.335938 124.246094 22.082031 123.128906 21.042969 C 122.917969 21.386719 119.871094 26.113281 122.015625 30.140625 C 122.363281 30.765625 122.917969 31.597656 123.898438 32.363281 C 123.613281 34.519531 123.34375 36.601562 123.128906 38.753906 C 123.203125 38.890625 124.167969 40.769531 126.25 40.976562 C 127.855469 41.183594 129.453125 40.28125 130.285156 38.824219 C 130.207031 37.015625 130.070312 35.144531 130 33.335938 C 130.554688 32.851562 131.671875 31.742188 132.226562 29.933594 C 132.714844 28.40625 132.574219 27.082031 132.429688 26.460938 C 131.109375 26.042969 129.515625 25.417969 127.855469 24.445312 Z M 236.554688 66.886719 C 237.878906 70.292969 239.191406 73.695312 240.519531 77.097656 C 238.984375 77.585938 237.394531 78.070312 235.859375 78.484375 C 229.613281 78.765625 224.476562 79.113281 220.9375 79.386719 C 214.898438 79.875 209.417969 80.429688 209.34375 79.945312 C 209.34375 79.734375 210.039062 79.460938 210.667969 79.320312 C 207.46875 79.179688 205.871094 78.972656 205.871094 78.695312 C 205.808594 78 213.855469 76.75 229.960938 75.082031 C 230.722656 74.664062 231.632812 74.113281 232.460938 73.347656 C 234.964844 70.984375 236.070312 68.414062 236.554688 66.886719 " fill-opacity="1" fill-rule="nonzero"/><path fill="rgb(5.879211%, 5.488586%, 4.708862%)" d="M 273.277344 59.941406 C 269.871094 56.539062 265.15625 60.636719 259.457031 57.511719 C 254.535156 54.800781 254.742188 49.867188 250.230469 49.105469 C 247.65625 48.6875 247.378906 50.214844 243.636719 50.496094 C 237.589844 50.980469 235.230469 47.160156 231.28125 47.921875 C 229.261719 48.339844 226.484375 50.007812 223.851562 56.257812 L 227.59375 59.039062 C 227.246094 58.136719 227.117188 57.300781 227.039062 56.746094 C 227.671875 57.023438 229.058594 57.511719 230.859375 57.300781 C 232.730469 57.09375 234.058594 56.328125 234.613281 55.910156 C 234.675781 55.84375 235.714844 55.496094 236.695312 56.191406 C 237.527344 56.746094 237.660156 57.71875 237.660156 57.855469 C 237.800781 58.203125 238.082031 58.761719 238.632812 59.246094 C 239.671875 60.222656 240.859375 60.289062 241.269531 60.289062 C 242.171875 61.675781 242.449219 63.277344 242.171875 64.59375 L 242.796875 64.804688 C 243.777344 63.484375 245.089844 63.277344 245.089844 63.277344 C 246.414062 63.203125 248.148438 63.347656 249.191406 64.527344 C 249.808594 65.152344 250.023438 65.914062 249.945312 67.515625 L 263.96875 72.863281 C 268.550781 73.902344 272.929688 71.886719 274.527344 68.414062 C 275.839844 65.707031 275.359375 62.023438 273.277344 59.941406 Z M 229.894531 74.945312 Z M 206.910156 78.488281 C 207.539062 78.558594 208.644531 78.695312 210.664062 78.765625 C 210.867188 78.765625 211.074219 78.976562 211.074219 79.179688 C 211.074219 79.390625 211.011719 79.527344 210.867188 79.671875 C 212.398438 79.597656 214.96875 79.390625 217.53125 79.179688 C 218.648438 79.113281 219.75 78.976562 220.867188 78.90625 C 225.726562 78.558594 230.71875 78.210938 235.792969 78 L 239.957031 76.75 L 236.621094 68.136719 C 235.714844 70.222656 234.40625 72.097656 232.730469 73.558594 C 231.976562 74.25 231.066406 74.875 230.101562 75.359375 C 230.023438 75.359375 229.957031 75.429688 229.957031 75.429688 C 214.199219 77.097656 208.644531 78 206.910156 78.488281 Z M 210.457031 80.570312 C 209.128906 80.570312 208.851562 80.363281 208.78125 80.015625 C 208.78125 79.875 208.78125 79.738281 208.851562 79.671875 C 205.597656 79.460938 205.3125 79.113281 205.3125 78.695312 C 205.25 78 205.25 77.167969 229.753906 74.597656 C 230.585938 74.113281 231.414062 73.558594 232.105469 72.929688 C 233.917969 71.335938 235.308594 69.179688 236.140625 66.75 C 236.203125 66.539062 236.347656 66.472656 236.550781 66.472656 C 236.757812 66.472656 236.898438 66.609375 236.964844 66.75 L 240.921875 76.957031 C 241 77.097656 241 77.238281 240.921875 77.304688 C 240.859375 77.445312 240.785156 77.515625 240.652344 77.515625 L 236 78.90625 L 235.855469 78.90625 C 230.796875 79.113281 225.789062 79.390625 220.929688 79.808594 C 219.75 79.875 218.648438 80.015625 217.605469 80.085938 C 213.851562 80.363281 211.707031 80.570312 210.457031 80.570312 " fill-opacity="1" fill-rule="nonzero"/><path fill="rgb(100%, 100%, 100%)" d="M 150.335938 265.964844 L 332.34375 265.964844 C 341.230469 265.964844 348.59375 258.667969 348.59375 249.710938 L 348.59375 96.6875 C 348.59375 87.796875 341.304688 80.433594 332.34375 80.433594 L 58.84375 80.433594 C 49.960938 80.433594 42.601562 87.726562 42.601562 96.6875 L 42.601562 249.777344 C 42.601562 258.667969 49.890625 266.03125 58.84375 266.03125 L 133.40625 266.03125 M 150.335938 265.964844 L 140.695312 265.964844 " fill-opacity="1" fill-rule="nonzero"/><path fill="rgb(29.798889%, 43.528748%, 74.899292%)" d="M 123.054688 38.753906 C 120.484375 39.035156 115.417969 40.007812 110.417969 43.617188 C 102.992188 48.964844 100.703125 56.46875 100.082031 58.761719 L 100.082031 71.957031 L 111.113281 77.515625 L 143.046875 77.515625 C 146.800781 75.222656 150.472656 72.929688 154.230469 70.640625 C 153.882812 66.886719 153.457031 63.136719 153.109375 59.316406 C 152.972656 57.855469 151.929688 48.550781 143.738281 42.785156 C 138.1875 38.894531 132.363281 38.753906 130.28125 38.824219 C 129.445312 40.355469 127.851562 41.1875 126.246094 40.976562 C 124.09375 40.773438 123.121094 38.894531 123.054688 38.753906 Z M 162.96875 293.957031 L 215.871094 293.957031 L 215.871094 261.449219 L 162.96875 261.449219 Z M 264.316406 71.539062 C 259.804688 69.390625 256.480469 67.097656 254.25 65.289062 C 250.371094 62.234375 247.457031 58.96875 243.699219 59.457031 C 242.734375 59.59375 241.902344 59.941406 241.410156 60.222656 C 242.597656 61.609375 242.867188 63.554688 242.101562 65.152344 C 241.410156 66.539062 239.957031 67.515625 238.355469 67.582031 C 238.082031 66.332031 237.800781 65.082031 237.527344 63.898438 C 237.042969 64.042969 236.550781 64.179688 236.140625 64.316406 C 236 64.804688 235.855469 65.5 235.714844 66.472656 C 235.308594 69.667969 234.8125 73.070312 236.621094 75.15625 C 237.042969 75.640625 238.144531 76.613281 240.4375 76.890625 C 240.859375 77.167969 241.347656 77.515625 241.824219 77.792969 C 241.824219 76.75 241.757812 71.683594 241.824219 67.929688 C 241.902344 63.761719 245.027344 63.277344 245.027344 63.277344 C 246.335938 63.207031 248.074219 63.347656 249.113281 64.527344 C 250.292969 65.707031 250.023438 67.375 248.980469 74.042969 C 248.351562 77.652344 248.003906 79.738281 247.726562 80.988281 C 248.84375 81.546875 250.023438 82.03125 251.335938 82.515625 C 256.269531 84.460938 260.78125 85.363281 264.253906 85.851562 C 264.871094 84.738281 266.261719 82.101562 266.199219 78.488281 C 266.261719 75.222656 264.949219 72.652344 264.316406 71.539062 Z M 6.851562 101.828125 L 6.851562 165.941406 L 55.164062 165.941406 L 55.164062 118.914062 L 38.644531 101.828125 Z M 313.949219 243.597656 L 86.472656 243.597656 C 81.894531 243.597656 78.140625 239.847656 78.140625 235.261719 L 78.140625 108.914062 C 78.140625 104.328125 81.894531 100.578125 86.472656 100.578125 L 313.949219 100.578125 C 318.53125 100.578125 322.28125 104.328125 322.28125 108.914062 L 322.28125 235.191406 C 322.28125 239.847656 318.53125 243.597656 313.949219 243.597656 " fill-opacity="1" fill-rule="nonzero"/><g clip-path="url(#clip-0)"><path fill="rgb(100%, 100%, 100%)" d="M 374.972656 238.25 L 374.972656 141.003906 C 374.972656 136.765625 371.566406 133.363281 367.335938 133.363281 L 225.441406 133.363281 C 221.214844 133.363281 217.808594 136.765625 217.808594 141.003906 L 217.808594 238.25 C 217.808594 242.484375 221.214844 245.890625 225.441406 245.890625 L 367.335938 245.890625 C 371.566406 245.820312 374.972656 242.414062 374.972656 238.25 Z M 130.066406 275.203125 L 26.015625 275.203125 C 21.359375 275.203125 17.542969 271.382812 17.542969 266.726562 L 17.542969 204.28125 C 17.542969 199.628906 21.359375 195.808594 26.011719 195.808594 L 130.0625 195.808594 C 134.710938 195.808594 138.53125 199.628906 138.53125 204.28125 L 138.53125 266.726562 C 138.53125 271.382812 134.789062 275.203125 130.0625 275.203125 " fill-opacity="1" fill-rule="nonzero"/></g><path fill="rgb(100%, 100%, 100%)" d="M 127.710938 148.851562 L 94.390625 148.851562 C 91.886719 148.851562 89.804688 146.769531 89.804688 144.265625 L 89.804688 141.351562 C 89.804688 138.847656 91.886719 136.765625 94.390625 136.765625 L 127.710938 136.765625 C 130.203125 136.765625 132.285156 138.847656 132.285156 141.351562 L 132.285156 144.265625 C 132.285156 146.835938 130.203125 148.851562 127.710938 148.851562 Z M 190.535156 224.007812 L 141.65625 224.007812 L 141.65625 216.578125 L 190.535156 216.578125 Z M 212.671875 201.710938 L 141.65625 201.710938 C 141.449219 200.667969 140.824219 198.238281 138.742188 196.085938 C 135.757812 192.960938 131.875 192.75 131.035156 192.75 L 98.273438 192.75 L 98.273438 186.707031 L 105.5 186.707031 C 108.824219 181.21875 114.585938 173.578125 123.261719 171.980469 C 135.140625 169.828125 140.691406 181.21875 152.492188 179.414062 C 166.507812 177.191406 168.667969 159.6875 180.042969 160.175781 C 189.695312 160.589844 193.71875 173.441406 203.167969 172.191406 C 207.539062 171.636719 210.804688 168.230469 212.671875 165.660156 Z M 311.382812 112.039062 C 311.382812 114.191406 309.644531 115.925781 307.5 115.925781 C 305.339844 115.925781 303.605469 114.191406 303.605469 112.039062 C 303.605469 109.882812 305.339844 108.148438 307.5 108.148438 C 309.644531 108.148438 311.382812 109.882812 311.382812 112.039062 Z M 291.25 108.148438 C 289.105469 108.148438 287.371094 109.882812 287.371094 112.039062 C 287.371094 114.191406 289.105469 115.925781 291.25 115.925781 C 293.410156 115.925781 295.144531 114.191406 295.144531 112.039062 C 295.144531 109.882812 293.410156 108.148438 291.25 108.148438 Z M 277.226562 112.039062 C 277.226562 114.191406 275.492188 115.925781 273.339844 115.925781 C 271.195312 115.925781 269.460938 114.191406 269.460938 112.039062 C 269.460938 109.882812 271.195312 108.148438 273.339844 108.148438 C 275.492188 108.148438 277.226562 109.882812 277.226562 112.039062 " fill-opacity="1" fill-rule="nonzero"/><path fill="rgb(5.879211%, 5.488586%, 4.708862%)" d="M 70.851562 257.976562 L 63.636719 257.976562 L 63.636719 236.582031 L 70.851562 236.582031 Z M 58.570312 259.085938 L 51.351562 259.085938 L 51.351562 224.425781 L 58.570312 224.425781 Z M 45.796875 258.738281 L 38.578125 258.738281 L 38.578125 232.414062 L 45.796875 232.414062 Z M 349.84375 220.675781 C 348.800781 224.773438 344.90625 227.898438 340.1875 228.246094 C 340.1875 227.414062 340.1875 226.578125 340.261719 225.675781 C 340.324219 224.84375 340.46875 224.078125 340.671875 223.382812 C 340.816406 223.246094 342.617188 221.714844 342.34375 219.355469 C 342.128906 217.894531 341.304688 217.0625 340.957031 216.714844 C 340.609375 216.785156 338.9375 217.0625 337.410156 216.019531 C 335.464844 214.769531 335.265625 212.617188 335.1875 212.339844 C 334.570312 212.6875 333.667969 213.3125 332.757812 214.214844 L 332.757812 207.964844 C 333.320312 207.753906 339.914062 205.742188 345.183594 209.90625 C 345.878906 210.394531 351.292969 214.769531 349.84375 220.675781 Z M 283.054688 214.421875 L 283.054688 192.054688 C 289.796875 195.738281 296.53125 199.351562 303.1875 203.03125 C 296.453125 206.851562 289.71875 210.601562 283.054688 214.421875 Z M 227.460938 171.980469 L 227.460938 236.71875 L 356.636719 236.71875 L 356.636719 171.980469 L 227.460938 171.980469 " fill-opacity="1" fill-rule="nonzero"/><path fill="rgb(29.798889%, 43.528748%, 74.899292%)" d="M 131.800781 224.007812 L 108.761719 224.007812 L 108.761719 227.132812 L 131.800781 227.132812 Z M 93.003906 217.964844 C 88.492188 217.964844 84.8125 221.648438 84.8125 226.160156 C 84.8125 230.675781 88.492188 234.359375 93.003906 234.359375 C 97.515625 234.359375 101.1875 230.675781 101.1875 226.160156 C 101.1875 221.648438 97.515625 217.964844 93.003906 217.964844 Z M 58.152344 198.726562 C 56.488281 198.726562 55.167969 200.042969 55.167969 201.710938 C 55.167969 203.378906 56.488281 204.699219 58.152344 204.699219 C 59.820312 204.699219 61.136719 203.378906 61.136719 201.710938 C 61.136719 200.042969 59.75 198.726562 58.152344 198.726562 Z M 46.351562 198.726562 C 44.6875 198.726562 43.367188 200.042969 43.367188 201.710938 C 43.367188 203.378906 44.6875 204.699219 46.351562 204.699219 C 48.019531 204.699219 49.335938 203.378906 49.335938 201.710938 C 49.335938 200.042969 47.949219 198.726562 46.351562 198.726562 Z M 33.996094 198.65625 C 32.328125 198.65625 31.011719 199.976562 31.011719 201.640625 C 31.011719 203.308594 32.328125 204.628906 33.996094 204.628906 C 35.660156 204.628906 36.980469 203.308594 36.980469 201.640625 C 36.910156 199.976562 35.589844 198.65625 33.996094 198.65625 Z M 343.308594 159.203125 L 252.929688 159.203125 L 252.929688 163.160156 L 343.308594 163.160156 Z M 306.378906 149.339844 L 252.929688 149.339844 L 252.929688 154.269531 L 306.378906 154.269531 Z M 234.402344 147.53125 C 230.585938 147.53125 227.523438 150.65625 227.523438 154.410156 C 227.523438 158.230469 230.648438 161.285156 234.402344 161.285156 C 238.144531 161.285156 241.265625 158.160156 241.265625 154.410156 C 241.265625 150.65625 238.21875 147.53125 234.402344 147.53125 Z M 133.402344 256.792969 L 87.371094 256.792969 L 87.371094 260.960938 L 133.402344 260.960938 Z M 133.402344 249.015625 L 87.371094 249.015625 L 87.371094 253.183594 L 133.402344 253.183594 Z M 133.402344 245.332031 L 87.371094 245.332031 L 87.371094 241.164062 L 133.402344 241.164062 L 133.402344 245.332031 " fill-opacity="1" fill-rule="nonzero"/><path fill="rgb(100%, 100%, 100%)" d="M 319.441406 209.839844 C 324.085938 207.753906 326.382812 206.433594 326.167969 205.949219 C 326.035156 205.601562 324.917969 205.601562 322.773438 205.949219 C 322.5625 199.765625 322 196.570312 321.035156 196.433594 C 319.917969 196.292969 318.324219 200.042969 316.175781 207.617188 Z M 335.960938 216.089844 C 337.414062 216.992188 338.875 216.785156 339.222656 216.714844 C 339.496094 216.992188 340.328125 217.757812 340.472656 219.078125 C 340.742188 221.160156 339.085938 222.621094 338.9375 222.757812 C 338.800781 223.382812 338.660156 224.078125 338.59375 224.84375 C 338.316406 227.34375 338.738281 229.496094 339.222656 230.953125 C 338.453125 232.484375 336.855469 233.109375 335.613281 232.691406 C 334.496094 232.273438 334.082031 231.164062 334.019531 230.953125 L 334.019531 227.691406 C 331.027344 227.621094 329.714844 226.160156 329.429688 225.816406 C 327.074219 223.105469 328.941406 218.519531 330.332031 216.296875 C 331.589844 214.355469 333.183594 213.242188 334.082031 212.6875 C 334.019531 212.964844 334.226562 214.980469 335.960938 216.089844 " fill-opacity="1" fill-rule="nonzero"/><path fill="rgb(100%, 100%, 100%)" d="M 111.113281 77.515625 C 107.988281 78.347656 102.296875 80.503906 99.25 85.78125 C 97.785156 88.351562 97.308594 90.992188 97.4375 100.367188 C 97.515625 105.160156 97.785156 111.414062 98.410156 118.84375 C 101.742188 119.191406 105.003906 119.46875 108.335938 119.816406 L 110.558594 94.046875 L 127.914062 82.449219 L 143.332031 91.40625 L 143.738281 119.816406 L 154.230469 120.511719 C 155.054688 112.664062 155.679688 105.714844 156.171875 99.882812 C 156.71875 92.308594 156.867188 89.046875 155.195312 85.433594 C 152.839844 80.292969 148.460938 77.445312 145.683594 75.988281 L 143.046875 77.515625 Z M 249.253906 64.527344 C 250.433594 65.777344 250.15625 67.371094 249.113281 74.042969 C 247.941406 81.335938 247.726562 82.308594 246.613281 83.28125 C 245.089844 84.601562 242.941406 84.53125 238.703125 84.390625 C 231.691406 84.113281 230.238281 82.378906 224.6875 82.933594 C 222.875 83.144531 220.582031 83.558594 220.519531 83.28125 C 220.445312 83.070312 221.625 82.515625 222.667969 82.101562 C 217.460938 81.613281 214.828125 81.199219 214.828125 80.851562 C 214.828125 80.503906 217.875 80.292969 223.992188 80.15625 L 241.964844 78 C 241.964844 78 241.902344 72.167969 241.964844 68 C 242.039062 63.832031 245.164062 63.347656 245.164062 63.347656 C 246.476562 63.277344 248.210938 63.414062 249.253906 64.527344 " fill-opacity="1" fill-rule="nonzero"/><path fill="rgb(5.879211%, 5.488586%, 4.708862%)" d="M 270.363281 108.632812 C 268.480469 108.632812 266.953125 110.160156 266.953125 112.039062 C 266.953125 113.914062 268.480469 115.441406 270.363281 115.441406 C 272.238281 115.441406 273.757812 113.914062 273.757812 112.039062 C 273.832031 110.160156 272.238281 108.632812 270.363281 108.632812 Z M 270.363281 116.414062 C 267.933594 116.414062 265.988281 114.46875 265.988281 112.039062 C 265.988281 109.605469 267.933594 107.660156 270.363281 107.660156 C 272.792969 107.660156 274.730469 109.605469 274.730469 112.039062 C 274.730469 114.46875 272.792969 116.414062 270.363281 116.414062 " fill-opacity="1" fill-rule="nonzero"/><path fill="rgb(5.879211%, 5.488586%, 4.708862%)" d="M 288.265625 108.632812 C 286.390625 108.632812 284.863281 110.160156 284.863281 112.039062 C 284.863281 113.914062 286.390625 115.441406 288.265625 115.441406 C 290.144531 115.441406 291.671875 113.914062 291.671875 112.039062 C 291.734375 110.160156 290.144531 108.632812 288.265625 108.632812 Z M 288.265625 116.414062 C 285.835938 116.414062 283.898438 114.46875 283.898438 112.039062 C 283.898438 109.605469 285.835938 107.660156 288.265625 107.660156 C 290.695312 107.660156 292.636719 109.605469 292.636719 112.039062 C 292.636719 114.46875 290.695312 116.414062 288.265625 116.414062 " fill-opacity="1" fill-rule="nonzero"/><path fill="rgb(5.879211%, 5.488586%, 4.708862%)" d="M 304.515625 108.632812 C 302.640625 108.632812 301.105469 110.160156 301.105469 112.039062 C 301.105469 113.914062 302.640625 115.441406 304.515625 115.441406 C 306.382812 115.441406 307.910156 113.914062 307.910156 112.039062 C 307.988281 110.160156 306.460938 108.632812 304.515625 108.632812 Z M 304.515625 116.414062 C 302.085938 116.414062 300.136719 114.46875 300.136719 112.039062 C 300.136719 109.605469 302.085938 107.660156 304.515625 107.660156 C 306.945312 107.660156 308.890625 109.605469 308.890625 112.039062 C 308.890625 114.46875 306.945312 116.414062 304.515625 116.414062 " fill-opacity="1" fill-rule="nonzero"/><g clip-path="url(#clip-1)"><path fill="rgb(5.879211%, 5.488586%, 4.708862%)" d="M 321.445312 266.449219 C 321.445312 266.171875 321.445312 265.824219 321.523438 265.546875 L 215.792969 265.546875 C 215.792969 265.824219 215.792969 266.171875 215.726562 266.449219 L 216.355469 266.449219 C 216.417969 266.726562 216.488281 266.9375 216.566406 267.214844 L 220.238281 267.214844 L 220.238281 298.816406 L 168.242188 298.816406 L 168.242188 294.582031 C 167.972656 294.582031 167.625 294.511719 167.339844 294.511719 L 167.339844 299.304688 C 167.339844 299.582031 167.550781 299.789062 167.828125 299.789062 L 220.730469 299.789062 C 221 299.789062 221.214844 299.582031 221.214844 299.304688 L 221.214844 266.796875 C 221.214844 266.65625 221.140625 266.589844 221.078125 266.519531 L 321.445312 266.519531 Z M 324.222656 342.71875 C 317.421875 344.941406 314.09375 346.539062 314.234375 347.441406 C 314.441406 348.621094 320.34375 348.832031 331.933594 347.925781 C 331.859375 346.191406 331.859375 344.453125 331.796875 342.71875 Z M 339.433594 216.785156 C 339.703125 217.0625 340.535156 217.828125 340.675781 219.144531 C 340.960938 221.230469 339.285156 222.6875 339.148438 222.828125 C 339.007812 223.453125 338.875 224.148438 338.800781 224.910156 C 338.738281 225.746094 338.738281 226.507812 338.738281 227.273438 C 343.042969 226.996094 346.574219 224.148438 347.554688 220.398438 C 348.867188 215.046875 343.945312 211.089844 343.3125 210.535156 C 338.53125 206.710938 332.554688 208.589844 331.996094 208.796875 L 331.996094 214.492188 C 332.835938 213.660156 333.671875 213.101562 334.148438 212.824219 C 334.148438 213.101562 334.363281 215.046875 336.164062 216.230469 C 337.621094 217.0625 339.085938 216.855469 339.433594 216.785156 Z M 142.699219 254.085938 C 142.429688 254.085938 142.210938 254.292969 142.210938 254.570312 C 142.210938 254.847656 142.429688 255.058594 142.699219 255.058594 L 320.960938 255.058594 C 324.429688 255.058594 327.632812 253.53125 329.851562 250.820312 C 329.984375 250.613281 329.984375 250.335938 329.777344 250.195312 C 329.566406 250.054688 329.289062 250.054688 329.160156 250.265625 C 327.136719 252.765625 324.160156 254.15625 321.035156 254.15625 L 142.699219 254.15625 Z M 215.871094 261.449219 L 162.96875 261.449219 L 189.414062 276.3125 Z M 86.261719 243.109375 L 131.382812 243.109375 L 131.382812 239.847656 L 86.261719 239.847656 Z M 85.367188 243.597656 L 85.367188 239.429688 C 85.367188 239.152344 85.570312 238.941406 85.851562 238.941406 L 131.875 238.941406 C 132.148438 238.941406 132.363281 239.152344 132.363281 239.429688 L 132.363281 243.597656 C 132.363281 243.875 132.148438 244.082031 131.875 244.082031 L 85.851562 244.082031 C 85.570312 244.082031 85.367188 243.875 85.367188 243.597656 Z M 303.191406 148.019531 L 250.640625 148.019531 L 250.640625 152.046875 L 303.191406 152.046875 Z M 304.09375 147.117188 L 304.09375 152.949219 L 249.738281 152.949219 L 249.738281 147.117188 Z M 345.535156 339.105469 C 340.328125 343.757812 338.042969 346.539062 338.660156 347.441406 C 339.433594 348.621094 344.492188 347.023438 353.933594 342.71875 C 353.585938 341.535156 353.238281 340.285156 352.890625 339.105469 Z M 86.261719 258.808594 L 131.382812 258.808594 L 131.382812 255.542969 L 86.261719 255.542969 Z M 85.367188 255.058594 C 85.367188 254.78125 85.570312 254.570312 85.851562 254.570312 L 131.875 254.570312 C 132.148438 254.570312 132.363281 254.78125 132.363281 255.058594 L 132.363281 259.226562 C 132.363281 259.503906 132.148438 259.710938 131.875 259.710938 L 85.851562 259.710938 C 85.570312 259.710938 85.367188 259.503906 85.367188 259.226562 Z M 353.933594 249.710938 L 348.59375 249.710938 C 348.65625 249.988281 348.59375 250.335938 348.457031 250.613281 L 354.28125 250.613281 C 354.070312 250.402344 354.007812 250.195312 354.007812 249.917969 C 354.007812 249.847656 353.933594 249.777344 353.933594 249.710938 Z M 86.261719 250.960938 L 131.382812 250.960938 L 131.382812 247.695312 L 86.261719 247.695312 Z M 85.367188 247.277344 C 85.367188 247 85.570312 246.792969 85.851562 246.792969 L 131.875 246.792969 C 132.148438 246.792969 132.363281 247 132.363281 247.277344 L 132.363281 251.445312 C 132.363281 251.722656 132.148438 251.933594 131.875 251.933594 L 85.851562 251.933594 C 85.570312 251.933594 85.367188 251.722656 85.367188 251.445312 Z M 212.671875 243.109375 C 212.398438 242.136719 212.253906 241.164062 212.253906 240.125 L 212.253906 172.746094 C 209.476562 176.082031 206.5 178.027344 203.230469 178.441406 C 198.09375 179.136719 194.492188 175.800781 191.019531 172.609375 C 187.820312 169.691406 184.558594 166.632812 180.121094 166.496094 C 174.769531 166.285156 171.507812 170.246094 167.828125 174.832031 C 164.15625 179.414062 159.914062 184.625 152.703125 185.734375 C 146.726562 186.707031 142.210938 184.277344 137.914062 181.914062 C 133.464844 179.484375 129.238281 177.261719 123.402344 178.304688 C 117.015625 179.484375 111.320312 184.136719 106.332031 192.265625 L 131.105469 192.265625 C 137.222656 192.265625 142.210938 197.265625 142.210938 203.378906 L 142.210938 243.179688 L 212.671875 243.179688 Z M 141.246094 203.863281 C 141.246094 197.960938 136.449219 193.167969 130.550781 193.167969 L 31.980469 193.167969 C 26.011719 193.167969 21.152344 198.03125 21.152344 204.003906 L 21.152344 210.253906 L 141.246094 210.253906 Z M 58.703125 169.757812 L 58.703125 123.359375 L 58.496094 123.152344 L 42.601562 123.152344 L 42.601562 106.6875 L 42.390625 106.480469 L 11.292969 106.480469 L 11.292969 169.691406 L 58.703125 169.691406 Z M 370.246094 147.671875 L 370.246094 240.125 C 370.246094 244.707031 367.261719 248.597656 363.171875 250.054688 C 363.234375 249.710938 363.234375 249.429688 363.097656 249.085938 C 366.707031 247.695312 369.34375 244.222656 369.34375 240.125 L 369.34375 147.671875 C 369.34375 142.390625 365.039062 138.085938 359.765625 138.085938 L 222.734375 138.085938 C 217.460938 138.085938 213.15625 142.390625 213.15625 147.671875 L 213.15625 240.125 C 213.15625 245.402344 217.460938 249.710938 222.734375 249.710938 L 321.308594 249.710938 C 321.175781 249.988281 321.175781 250.335938 321.238281 250.613281 L 222.734375 250.613281 C 218.300781 250.613281 214.480469 247.832031 212.949219 243.945312 C 212.886719 244.011719 212.808594 244.011719 212.671875 244.011719 L 142.144531 244.011719 L 142.144531 260.960938 C 142.144531 262.558594 141.796875 264.085938 141.246094 265.476562 L 162.828125 265.476562 C 162.765625 265.753906 162.765625 266.101562 162.765625 266.378906 L 140.824219 266.378906 C 138.878906 270.0625 135.0625 272.492188 130.628906 272.492188 L 35.589844 272.492188 C 35.316406 272.492188 35.105469 272.285156 35.105469 272.007812 C 35.105469 271.726562 35.316406 271.519531 35.589844 271.519531 L 130.550781 271.519531 C 136.453125 271.519531 141.25 266.726562 141.25 260.824219 L 141.25 211.019531 L 21.160156 211.019531 L 21.15625 234.84375 C 22.472656 233.941406 24.210938 233.039062 26.363281 232.621094 C 31.570312 231.789062 35.316406 234.496094 36.011719 234.984375 L 33.511719 239.5 L 33.441406 239.566406 C 33.371094 238.664062 33.304688 237.902344 33.234375 237.277344 C 32.679688 238.25 31.289062 240.191406 28.859375 241.582031 C 27.125 242.554688 25.527344 242.902344 24.484375 243.039062 C 23.652344 243.386719 23.097656 244.082031 22.960938 244.917969 C 22.820312 245.957031 23.445312 247 24.484375 247.417969 L 24.484375 250.820312 C 23.792969 250.472656 22.402344 249.640625 21.085938 248.25 L 21.085938 254.15625 C 21.085938 254.433594 20.878906 254.640625 20.601562 254.640625 C 20.320312 254.640625 20.113281 254.433594 20.113281 254.15625 L 20.113281 248.390625 C 20.113281 248.113281 20.320312 247.902344 20.601562 247.902344 C 20.667969 247.902344 20.738281 247.902344 20.808594 247.972656 C 20.390625 247.488281 19.972656 246.929688 19.558594 246.234375 C 17.199219 242.277344 18.101562 238.25 18.378906 237.34375 C 18.65625 236.996094 19.28125 236.234375 20.253906 235.398438 C 20.183594 235.332031 20.113281 235.191406 20.113281 235.121094 L 20.113281 203.726562 C 20.113281 197.335938 25.320312 192.125 31.707031 192.125 L 42.1875 192.125 L 42.1875 170.59375 L 10.8125 170.59375 C 10.535156 170.59375 10.328125 170.382812 10.328125 170.105469 L 10.328125 105.996094 C 10.328125 105.714844 10.535156 105.507812 10.8125 105.507812 L 42.605469 105.507812 C 42.742188 105.507812 42.8125 105.578125 42.953125 105.648438 L 59.472656 122.734375 C 59.542969 122.804688 59.613281 122.941406 59.613281 123.082031 L 59.613281 170.105469 C 59.613281 170.382812 59.402344 170.59375 59.128906 170.59375 L 43.089844 170.59375 L 43.089844 192.125 L 77.65625 192.125 L 77.65625 111.273438 C 77.65625 105.160156 82.65625 100.160156 88.765625 100.160156 L 97.441406 100.160156 C 97.441406 100.4375 97.515625 100.785156 97.578125 101.0625 L 89.042969 101.0625 C 83.285156 101.0625 78.566406 105.785156 78.566406 111.550781 L 78.566406 122.734375 L 89.882812 122.734375 C 91.964844 121.761719 95.359375 120.511719 100.085938 118.984375 C 102.300781 119.191406 104.460938 119.398438 106.679688 119.609375 C 106.542969 120.929688 106.464844 122.25 106.332031 123.566406 C 106.394531 123.289062 106.464844 123.011719 106.542969 122.734375 L 144.921875 122.734375 L 144.921875 119.886719 C 147.351562 120.027344 149.78125 120.234375 152.210938 120.371094 C 156.375 121.625 159.359375 122.59375 161.171875 123.429688 C 160.824219 123.152344 160.476562 122.941406 159.992188 122.734375 L 321.734375 122.734375 L 321.734375 111.550781 C 321.734375 105.785156 317.011719 101.0625 311.246094 101.0625 L 156.238281 101.0625 C 156.3125 100.785156 156.3125 100.4375 156.3125 100.160156 L 311.9375 100.160156 C 317.914062 100.160156 322.773438 105.023438 322.773438 110.996094 L 322.773438 133.363281 C 322.773438 133.640625 322.566406 133.847656 322.28125 133.847656 C 322.003906 133.847656 321.796875 133.640625 321.796875 133.363281 L 321.796875 123.707031 L 161.726562 123.707031 C 162.769531 124.261719 163.316406 124.679688 163.253906 125.027344 C 163.039062 126.207031 156.929688 126.347656 144.921875 125.582031 L 144.921875 123.707031 L 106.332031 123.707031 C 106.332031 123.984375 106.257812 124.261719 106.257812 124.539062 C 93.839844 125.859375 87.515625 126 87.242188 124.816406 C 87.167969 124.539062 87.515625 124.191406 88.144531 123.707031 L 78.492188 123.707031 L 78.492188 192.335938 L 105.078125 192.335938 C 110.28125 183.722656 116.324219 178.71875 123.125 177.46875 C 129.304688 176.359375 133.816406 178.789062 138.1875 181.152344 C 142.5625 183.511719 146.65625 185.734375 152.355469 184.832031 C 159.222656 183.722656 163.179688 178.929688 166.933594 174.207031 C 170.605469 169.621094 174.144531 165.3125 179.976562 165.523438 C 184.773438 165.730469 188.167969 168.855469 191.5 171.914062 C 195.046875 175.109375 198.308594 178.164062 203.03125 177.539062 C 206.292969 177.121094 209.339844 174.96875 212.195312 171.289062 L 212.195312 147.671875 C 212.195312 141.90625 216.914062 137.183594 222.667969 137.183594 L 331.375 137.183594 L 331.375 100.296875 C 331.375 94.464844 326.65625 89.742188 320.832031 89.742188 L 156.722656 89.742188 C 156.722656 89.460938 156.660156 89.117188 156.582031 88.835938 L 320.960938 88.835938 C 321.65625 88.835938 322.351562 88.90625 322.976562 89.046875 C 322.082031 88.351562 320.832031 86.335938 319.226562 83.070312 C 319.019531 81.613281 318.8125 80.085938 318.609375 78.628906 L 323.953125 78.628906 C 324.78125 85.226562 324.710938 88.769531 323.816406 89.253906 C 328.738281 90.503906 332.347656 95.019531 332.347656 100.296875 L 332.347656 137.183594 L 359.765625 137.183594 C 365.605469 137.183594 370.25 141.90625 370.25 147.671875 Z M 39.691406 358 C 38.230469 357.652344 36.289062 357.027344 34 355.707031 L 27.40625 355.707031 L 27.40625 361.609375 C 32.75 361.609375 38.164062 361.542969 43.507812 361.542969 C 43.507812 360.984375 43.4375 360.222656 43.023438 359.597656 C 42.257812 358.414062 40.871094 358.277344 39.691406 358 Z M 250.640625 160.867188 L 340.125 160.867188 L 340.125 157.8125 L 250.640625 157.8125 Z M 249.738281 156.980469 L 341.023438 156.980469 L 341.023438 161.839844 L 249.738281 161.839844 Z M 122.359375 30.769531 C 122.21875 30.558594 122.082031 30.351562 122.011719 30.144531 C 119.867188 26.113281 122.914062 21.390625 123.125 21.042969 C 124.304688 22.085938 125.832031 23.335938 127.851562 24.449219 C 129.507812 25.347656 131.105469 25.976562 132.363281 26.390625 C 132.496094 27.085938 132.570312 28.40625 132.148438 29.863281 C 131.800781 30.976562 131.246094 31.878906 130.757812 32.503906 C 131.382812 32.15625 135.832031 29.585938 136.527344 24.449219 C 136.875 21.738281 136.449219 16.597656 132.496094 14.863281 C 129.648438 13.613281 125.976562 14.515625 123.402344 17.15625 C 122.851562 17.015625 119.730469 16.527344 117.644531 18.402344 C 114.871094 20.90625 115.488281 25.976562 118.054688 28.617188 C 119.582031 30.144531 121.464844 30.628906 122.359375 30.769531 Z M 110.417969 101.0625 L 143.53125 101.0625 L 143.53125 100.160156 L 110.558594 100.160156 C 110.558594 100.4375 110.496094 100.785156 110.417969 101.0625 Z M 332.34375 80.917969 C 341.023438 80.917969 348.109375 88.003906 348.109375 96.6875 L 348.109375 133.570312 L 349.003906 133.570312 L 349.003906 96.6875 C 349.003906 87.519531 341.515625 80.015625 332.34375 80.015625 L 324.160156 80.015625 C 324.222656 80.292969 324.222656 80.640625 324.222656 80.917969 Z M 319.996094 54.316406 C 319.917969 53.414062 315.335938 52.855469 306.175781 52.648438 L 304.785156 55.980469 L 308.257812 57.71875 C 316.175781 56.328125 320.058594 55.148438 319.996094 54.316406 Z M 152.703125 80.710938 C 152.765625 80.777344 152.765625 80.851562 152.839844 80.917969 L 203.027344 80.917969 L 204.6875 84.601562 L 224.609375 84.601562 L 224.609375 83.070312 L 221.910156 82.515625 L 205.945312 82.515625 L 198.167969 64.179688 L 195.53125 64.179688 L 202.535156 79.945312 L 152.207031 79.945312 C 152.417969 80.222656 152.554688 80.433594 152.703125 80.710938 Z M 143.046875 77.515625 L 145.683594 59.039062 L 108.335938 59.039062 L 111.113281 77.515625 Z M 17.824219 355.707031 C 16.644531 355.289062 14.976562 354.386719 13.3125 352.582031 L 5.886719 352.582031 L 5.257812 358.695312 C 10.746094 359.25 16.15625 359.875 21.644531 360.429688 C 21.710938 359.457031 21.710938 358.207031 20.878906 357.234375 C 20.046875 356.261719 19.074219 356.125 17.824219 355.707031 Z M 43.089844 96.6875 C 43.089844 88.003906 50.171875 80.917969 58.847656 80.917969 L 103.210938 80.917969 C 103.621094 80.570312 103.96875 80.292969 104.460938 80.015625 L 58.847656 80.015625 C 49.6875 80.015625 42.1875 87.519531 42.1875 96.6875 L 42.1875 105.230469 C 42.535156 105.371094 42.816406 105.578125 43.089844 105.855469 Z M 66.484375 100.367188 L 66.484375 191.710938 C 66.484375 191.988281 66.691406 192.195312 66.972656 192.195312 C 67.25 192.195312 67.457031 191.988281 67.457031 191.710938 L 67.457031 100.367188 C 67.457031 94.535156 72.179688 89.808594 78.003906 89.808594 L 97.863281 89.808594 C 97.925781 89.53125 98.003906 89.183594 98.066406 88.90625 L 78.003906 88.90625 C 71.625 88.90625 66.484375 94.046875 66.484375 100.367188 Z M 139.234375 89.324219 C 139.234375 89.460938 139.171875 89.671875 139.171875 89.808594 L 117.789062 89.808594 C 118.136719 89.53125 118.484375 89.253906 118.753906 88.90625 L 138.675781 88.90625 C 138.824219 89.046875 139.023438 89.183594 139.234375 89.324219 Z M 143.257812 100.160156 L 110.425781 100.160156 L 110.425781 101.0625 L 143.1875 101.0625 C 143.1875 100.785156 143.1875 100.4375 143.257812 100.160156 Z M 52.808594 158.855469 L 52.808594 158.019531 C 52.808594 157.324219 52.253906 156.769531 51.558594 156.769531 L 18.101562 156.769531 C 17.40625 156.769531 16.851562 157.324219 16.851562 158.019531 L 16.851562 158.855469 C 16.851562 159.546875 17.40625 160.105469 18.101562 160.105469 L 51.558594 160.105469 C 52.253906 160.105469 52.808594 159.546875 52.808594 158.855469 Z M 52.808594 149.753906 L 52.808594 148.921875 C 52.808594 148.226562 52.253906 147.671875 51.558594 147.671875 L 18.101562 147.671875 C 17.40625 147.671875 16.851562 148.226562 16.851562 148.921875 L 16.851562 149.753906 C 16.851562 150.449219 17.40625 151.003906 18.101562 151.003906 L 51.558594 151.003906 C 52.253906 151.074219 52.808594 150.449219 52.808594 149.753906 Z M 52.808594 140.726562 L 52.808594 139.890625 C 52.808594 139.195312 52.253906 138.640625 51.558594 138.640625 L 18.101562 138.640625 C 17.40625 138.640625 16.851562 139.195312 16.851562 139.890625 L 16.851562 140.726562 C 16.851562 141.417969 17.40625 141.976562 18.101562 141.976562 L 51.558594 141.976562 C 52.253906 142.042969 52.808594 141.417969 52.808594 140.726562 Z M 52.808594 132.527344 L 52.808594 131.695312 C 52.808594 131 52.253906 130.445312 51.558594 130.445312 L 18.101562 130.445312 C 17.40625 130.445312 16.851562 131 16.851562 131.695312 L 16.851562 132.527344 C 16.851562 133.222656 17.40625 133.777344 18.101562 133.777344 L 51.558594 133.777344 C 52.253906 133.777344 52.808594 133.222656 52.808594 132.527344 Z M 34.484375 119.191406 L 18.101562 119.191406 C 17.40625 119.191406 16.851562 118.636719 16.851562 117.941406 L 16.851562 117.109375 C 16.851562 116.414062 17.40625 115.859375 18.101562 115.859375 L 34.414062 115.859375 C 35.109375 115.859375 35.664062 116.414062 35.664062 117.109375 L 35.664062 117.941406 C 35.734375 118.566406 35.179688 119.191406 34.484375 119.191406 " fill-opacity="1" fill-rule="nonzero"/></g><path fill="rgb(5.879211%, 5.488586%, 4.708862%)" d="M 154.921875 85.503906 C 153.25 81.753906 150.195312 78.695312 145.820312 76.402344 L 143.46875 77.863281 C 143.394531 77.933594 143.332031 77.933594 143.253906 77.933594 L 111.398438 77.933594 C 107.644531 78.976562 102.644531 81.265625 99.867188 85.988281 C 98.480469 88.421875 98 90.992188 98.132812 100.367188 C 98.210938 106.339844 98.554688 112.382812 99.042969 118.429688 L 108.128906 119.332031 L 110.28125 94.046875 C 110.28125 93.90625 110.355469 93.769531 110.496094 93.699219 L 127.851562 82.101562 C 127.980469 82.03125 128.199219 82.03125 128.328125 82.101562 L 143.738281 91.058594 C 143.878906 91.128906 143.949219 91.269531 143.949219 91.476562 L 144.371094 119.398438 L 153.945312 120.027344 C 154.707031 113.289062 155.332031 106.480469 155.824219 99.8125 C 156.441406 92.03125 156.519531 89.046875 154.921875 85.503906 Z M 155.75 85.15625 C 157.414062 88.835938 157.351562 91.964844 156.71875 99.8125 C 156.171875 106.621094 155.539062 113.636719 154.785156 120.511719 C 154.785156 120.71875 154.574219 120.929688 154.292969 120.929688 L 143.816406 120.234375 C 143.601562 120.234375 143.394531 120.027344 143.394531 119.816406 L 142.984375 91.683594 L 128.058594 83 L 111.113281 94.324219 L 108.96875 119.886719 C 108.96875 120.027344 108.894531 120.09375 108.824219 120.164062 C 108.761719 120.234375 108.621094 120.304688 108.476562 120.234375 L 98.554688 119.261719 C 98.347656 119.261719 98.132812 119.054688 98.132812 118.84375 C 97.578125 112.664062 97.308594 106.480469 97.167969 100.367188 C 97.023438 90.78125 97.515625 88.144531 99.042969 85.503906 C 101.949219 80.503906 107.234375 78.140625 111.113281 77.03125 L 143.046875 77.03125 L 145.550781 75.503906 C 145.683594 75.429688 145.820312 75.429688 146.03125 75.503906 C 150.679688 77.863281 153.945312 81.125 155.75 85.15625 Z M 72.585938 237.832031 C 72.449219 237.625 72.242188 237.484375 71.894531 237.484375 L 71.832031 237.484375 C 70.582031 237.484375 67.59375 238.734375 65.71875 241.234375 C 64.332031 243.179688 64.050781 245.402344 64.050781 246.863281 C 64.050781 247.140625 64.261719 247.347656 64.539062 247.277344 C 64.816406 247.277344 65.027344 247.070312 64.953125 246.792969 C 64.953125 245.472656 65.164062 243.457031 66.414062 241.722656 C 67.941406 239.566406 70.503906 238.527344 71.484375 238.386719 C 71.136719 238.804688 70.15625 239.777344 67.523438 241.859375 C 67.382812 242 67.316406 242.136719 67.382812 242.347656 C 67.453125 242.484375 67.59375 242.625 67.730469 242.695312 C 69.257812 243.042969 70.851562 243.734375 70.929688 244.292969 C 70.929688 244.5 70.582031 244.917969 69.671875 245.679688 C 68.632812 246.582031 67.59375 247.347656 66.480469 248.113281 C 66.273438 248.25 66.203125 248.527344 66.34375 248.738281 C 66.414062 248.875 66.550781 248.945312 66.691406 248.945312 C 66.761719 248.945312 66.898438 248.945312 66.96875 248.875 C 68.078125 248.113281 69.191406 247.277344 70.234375 246.375 C 71.40625 245.332031 71.832031 244.847656 71.832031 244.292969 C 71.753906 243.109375 70.09375 242.414062 68.84375 242.070312 C 72.796875 238.941406 72.871094 238.316406 72.585938 237.832031 Z M 319.015625 78.558594 C 319.015625 78.347656 318.808594 78.210938 318.605469 78.140625 L 298.613281 76.890625 L 308.605469 57.929688 C 308.679688 57.789062 308.679688 57.71875 308.605469 57.582031 C 308.542969 57.441406 308.464844 57.371094 308.394531 57.300781 L 304.4375 55.289062 C 304.230469 55.21875 304.03125 55.21875 303.882812 55.425781 L 290.765625 73.902344 L 271.675781 71.265625 C 271.402344 71.191406 271.195312 71.402344 271.195312 71.683594 C 271.121094 71.957031 271.328125 72.167969 271.605469 72.167969 L 290.980469 74.875 C 291.1875 74.875 291.328125 74.808594 291.390625 74.664062 L 304.4375 56.328125 L 307.640625 57.929688 L 297.636719 76.820312 L 279.242188 74.875 C 278.964844 74.875 278.753906 75.011719 278.753906 75.292969 C 278.753906 75.570312 278.894531 75.777344 279.179688 75.777344 L 297.921875 77.722656 L 318.261719 79.042969 L 318.953125 83.976562 L 299.578125 83.976562 L 265.078125 84.113281 C 264.808594 84.113281 264.601562 84.324219 264.601562 84.601562 C 264.601562 84.878906 264.808594 85.085938 265.078125 85.085938 L 299.578125 84.949219 L 319.503906 84.949219 C 319.648438 84.949219 319.789062 84.878906 319.851562 84.808594 C 319.917969 84.738281 319.996094 84.601562 319.996094 84.460938 Z M 334.019531 289.023438 Z M 348.867188 315.351562 L 354.007812 338.964844 C 354.007812 339.105469 354.007812 339.246094 353.933594 339.382812 C 353.863281 339.523438 353.726562 339.523438 353.585938 339.523438 L 345.601562 339.523438 C 345.394531 339.523438 345.1875 339.382812 345.1875 339.175781 L 338.800781 317.085938 L 334.574219 291.941406 L 331.371094 312.78125 L 332.34375 342.648438 C 332.34375 342.789062 332.28125 342.925781 332.207031 342.996094 C 332.144531 343.066406 331.996094 343.132812 331.859375 343.132812 L 324.222656 343.132812 C 324.015625 343.132812 323.8125 342.996094 323.738281 342.71875 L 319.710938 315.28125 L 321.175781 274.367188 C 321.175781 274.089844 321.382812 273.953125 321.65625 273.953125 C 321.933594 273.953125 322.078125 274.160156 322.078125 274.4375 L 320.542969 315.28125 L 324.507812 342.300781 L 331.242188 342.300781 L 330.261719 312.847656 L 333.941406 289.164062 L 333.941406 282.355469 C 333.941406 282.078125 334.148438 281.871094 334.425781 281.871094 C 334.710938 281.871094 334.921875 282.078125 334.921875 282.355469 L 334.921875 289.164062 L 334.921875 289.09375 C 334.921875 288.953125 334.84375 288.886719 334.773438 288.816406 L 334.921875 289.09375 L 334.921875 289.234375 L 334.921875 289.09375 L 339.632812 316.878906 L 345.882812 338.621094 L 352.96875 338.621094 L 347.964844 315.488281 L 346.226562 274.992188 C 346.226562 274.714844 346.4375 274.507812 346.644531 274.507812 C 346.921875 274.507812 347.128906 274.714844 347.128906 274.921875 Z M 365.601562 273.1875 C 365.601562 272.910156 365.316406 272.769531 365.117188 272.769531 C 364.832031 272.769531 364.691406 273.046875 364.691406 273.257812 C 365.664062 282.910156 364.832031 283.882812 364.691406 283.953125 C 364.625 283.953125 363.726562 283.816406 360.953125 277.632812 C 360.875 277.425781 360.667969 277.355469 360.527344 277.355469 C 360.320312 277.355469 360.179688 277.492188 360.113281 277.703125 C 359.910156 278.464844 359.703125 279.023438 359.5625 279.371094 C 359.488281 278.605469 359.417969 277.007812 359.625 273.605469 C 359.625 273.324219 359.417969 273.117188 359.214844 273.117188 C 358.929688 273.046875 358.722656 273.324219 358.722656 273.535156 C 358.375 280.621094 358.867188 280.6875 359.355469 280.757812 C 359.765625 280.828125 360.113281 280.550781 360.605469 279.089844 C 362.824219 283.953125 363.867188 284.925781 364.625 284.925781 L 364.832031 284.925781 C 365.808594 284.648438 366.566406 283.050781 365.601562 273.1875 Z M 248.980469 64.875 C 248.210938 64.039062 246.960938 63.691406 245.226562 63.761719 C 244.949219 63.832031 242.519531 64.386719 242.449219 68 C 242.386719 72.167969 242.449219 77.933594 242.449219 78 C 242.449219 78.210938 242.3125 78.417969 242.039062 78.484375 L 224.054688 80.640625 C 220.035156 80.710938 217.808594 80.847656 216.628906 80.988281 C 217.667969 81.195312 219.542969 81.40625 222.734375 81.753906 C 222.949219 81.753906 223.082031 81.957031 223.160156 82.167969 C 223.160156 82.375 223.082031 82.585938 222.875 82.652344 C 222.667969 82.722656 222.390625 82.863281 222.257812 82.933594 C 222.527344 82.933594 222.734375 82.863281 223.011719 82.863281 C 223.570312 82.796875 224.125 82.722656 224.6875 82.652344 C 225.511719 82.585938 226.207031 82.515625 226.902344 82.515625 C 228.773438 82.515625 230.238281 82.796875 231.898438 83.140625 C 233.710938 83.488281 235.714844 83.90625 238.839844 84.042969 L 238.980469 84.042969 C 243.003906 84.183594 245.089844 84.253906 246.476562 83.070312 C 247.457031 82.238281 247.59375 81.265625 248.765625 74.113281 C 249.738281 67.511719 249.945312 65.914062 248.980469 64.875 Z M 241 60.636719 C 240.304688 60.566406 239.265625 60.289062 238.355469 59.453125 C 237.875 59.035156 237.527344 58.484375 237.242188 57.925781 L 237.242188 57.789062 C 237.242188 57.648438 237.105469 56.953125 236.488281 56.46875 C 235.792969 55.980469 235.097656 56.191406 234.882812 56.257812 C 234.058594 56.816406 232.730469 57.507812 230.996094 57.71875 C 229.675781 57.855469 228.566406 57.648438 227.671875 57.371094 C 227.941406 58.621094 228.429688 59.800781 229.199219 60.84375 C 229.753906 61.675781 230.996094 63.347656 233.289062 63.898438 C 235.023438 64.316406 236.621094 63.832031 237.390625 63.484375 C 237.453125 63.484375 237.527344 63.414062 237.589844 63.414062 C 237.660156 63.414062 237.738281 63.414062 237.800781 63.484375 C 237.9375 63.550781 238.007812 63.691406 238.007812 63.761719 L 238.777344 67.09375 C 239.394531 67.023438 240.304688 66.820312 241 66.054688 C 242.039062 64.875 242.101562 62.582031 241 60.636719 Z M 249.601562 64.246094 C 250.925781 65.636719 250.640625 67.652344 249.539062 74.179688 C 248.289062 81.613281 248.074219 82.652344 246.898438 83.628906 C 245.71875 84.667969 244.253906 84.945312 241.964844 84.945312 C 241.0625 84.945312 240.019531 84.878906 238.777344 84.878906 L 238.632812 84.878906 C 235.445312 84.738281 233.363281 84.320312 231.550781 83.972656 C 229.332031 83.488281 227.671875 83.140625 224.6875 83.488281 C 224.125 83.558594 223.570312 83.628906 223.011719 83.695312 C 220.929688 83.972656 220.175781 84.113281 220.035156 83.488281 C 219.960938 83.140625 220.097656 82.863281 220.867188 82.515625 C 214.335938 81.820312 214.335938 81.472656 214.335938 80.988281 C 214.335938 80.429688 214.40625 80.015625 223.914062 79.808594 L 241.476562 77.722656 C 241.476562 76.335938 241.410156 71.609375 241.476562 68.066406 C 241.476562 67.511719 241.554688 67.023438 241.695312 66.539062 C 241.617188 66.609375 241.554688 66.75 241.476562 66.820312 C 240.4375 67.929688 238.980469 68.066406 238.222656 68.136719 C 238.007812 68.136719 237.800781 68 237.800781 67.789062 L 237.105469 64.59375 C 236.0625 64.941406 234.613281 65.21875 232.941406 64.800781 C 230.300781 64.179688 228.914062 62.234375 228.289062 61.398438 C 227.324219 60.078125 226.691406 58.414062 226.484375 56.746094 C 226.484375 56.605469 226.554688 56.398438 226.691406 56.328125 C 226.832031 56.257812 226.976562 56.191406 227.117188 56.257812 C 227.871094 56.605469 229.199219 56.953125 230.71875 56.816406 C 232.324219 56.675781 233.496094 55.980469 234.265625 55.496094 C 234.265625 55.496094 234.328125 55.425781 234.40625 55.425781 C 234.613281 55.359375 235.792969 55.011719 236.898438 55.707031 C 237.800781 56.328125 238.007812 57.234375 238.082031 57.578125 C 238.285156 58.066406 238.570312 58.414062 238.917969 58.761719 C 239.742188 59.527344 240.714844 59.664062 241.269531 59.730469 C 241.410156 59.730469 241.554688 59.800781 241.617188 59.941406 C 242.519531 61.398438 242.867188 63 242.597656 64.457031 C 243.636719 63.066406 245.089844 62.855469 245.089844 62.855469 L 245.164062 62.855469 C 247.171875 62.789062 248.636719 63.203125 249.601562 64.246094 Z M 24.074219 247.832031 L 24.074219 254.359375 C 24.074219 254.640625 24.28125 254.847656 24.558594 254.847656 C 24.832031 254.847656 25.042969 254.640625 25.042969 254.359375 L 25.042969 247.554688 C 25.042969 247.34375 24.90625 247.207031 24.765625 247.136719 C 23.933594 246.789062 23.378906 245.957031 23.515625 245.121094 C 23.585938 244.496094 24.074219 243.941406 24.695312 243.664062 C 26.292969 243.457031 27.820312 242.96875 29.207031 242.207031 C 30.941406 241.234375 32.195312 239.984375 33.027344 238.871094 C 33.097656 239.566406 33.097656 240.191406 33.097656 240.886719 C 33.164062 244.636719 33.164062 246.652344 31.917969 248.109375 C 31.359375 248.804688 30.527344 249.289062 29.488281 249.636719 C 29.277344 249.707031 29.140625 249.847656 29.140625 250.054688 L 29.140625 254.429688 C 29.140625 254.707031 29.347656 254.917969 29.625 254.917969 C 29.902344 254.917969 30.109375 254.707031 30.109375 254.429688 L 30.109375 250.402344 C 31.152344 250.054688 31.984375 249.429688 32.609375 248.734375 C 34.136719 246.929688 34.136719 244.496094 34.066406 240.886719 C 34.066406 239.773438 34 238.664062 33.859375 237.550781 C 33.859375 237.34375 33.71875 237.203125 33.511719 237.132812 C 33.304688 237.066406 33.097656 237.203125 33.027344 237.34375 C 32.332031 238.523438 31.015625 240.261719 28.792969 241.441406 C 27.472656 242.136719 26.085938 242.621094 24.558594 242.832031 L 24.417969 242.832031 C 23.445312 243.179688 22.75 244.082031 22.613281 245.054688 C 22.335938 246.09375 22.960938 247.207031 24.074219 247.832031 Z M 123.546875 32.570312 L 122.777344 38.683594 C 122.777344 38.960938 122.914062 39.171875 123.199219 39.171875 C 123.402344 39.171875 123.683594 39.03125 123.683594 38.753906 L 124.441406 32.363281 C 124.441406 32.222656 124.378906 32.015625 124.304688 31.945312 C 123.546875 31.390625 122.914062 30.625 122.566406 29.859375 C 120.910156 26.667969 122.707031 22.984375 123.402344 21.667969 C 124.789062 22.847656 126.246094 23.890625 127.851562 24.792969 C 129.238281 25.554688 130.6875 26.183594 132.222656 26.667969 C 132.363281 27.710938 132.285156 28.75 131.9375 29.65625 C 131.453125 31.25 130.550781 32.292969 129.855469 32.847656 C 129.71875 32.917969 129.71875 33.058594 129.71875 33.195312 L 129.996094 38.683594 C 129.996094 38.960938 130.203125 39.101562 130.488281 39.101562 C 130.757812 39.101562 130.898438 38.890625 130.898438 38.613281 L 130.628906 33.332031 C 131.382812 32.640625 132.285156 31.53125 132.839844 29.859375 C 133.1875 28.679688 133.328125 27.363281 133.117188 26.109375 C 133.117188 25.972656 132.980469 25.835938 132.839844 25.765625 C 131.320312 25.277344 129.792969 24.652344 128.40625 23.820312 C 126.734375 22.914062 125.136719 21.734375 123.746094 20.484375 C 123.683594 20.417969 123.546875 20.34375 123.402344 20.34375 C 123.261719 20.34375 123.121094 20.417969 123.054688 20.554688 C 122.707031 21.109375 119.652344 25.902344 121.875 30.140625 C 122.15625 31.183594 122.777344 31.945312 123.546875 32.570312 Z M 37.46875 324.101562 L 34.550781 297.984375 C 31.152344 296.871094 27.609375 296.246094 24.074219 296.105469 C 19.976562 295.898438 15.949219 296.316406 11.992188 297.289062 L 11.578125 327.574219 L 6.4375 352.09375 L 12.964844 352.09375 L 19.628906 331.046875 C 19.835938 330.074219 24.210938 306.386719 24.558594 305.207031 C 24.628906 305 24.90625 304.789062 25.113281 304.859375 C 25.320312 304.929688 25.527344 305.207031 25.460938 305.414062 C 25.390625 305.761719 24.90625 307.984375 24.347656 311.109375 L 27.820312 325.488281 L 27.820312 355.289062 L 33.511719 355.289062 Z M 35.457031 297.636719 L 38.371094 324.101562 L 38.371094 324.238281 L 34.414062 355.84375 C 34.414062 356.050781 34.207031 356.261719 33.929688 356.261719 L 27.335938 356.261719 C 27.058594 356.261719 26.847656 356.050781 26.847656 355.773438 L 26.847656 325.699219 L 23.726562 313.402344 C 22.683594 319.03125 21.226562 326.460938 20.320312 331.324219 L 13.589844 352.789062 C 13.519531 352.996094 13.378906 353.132812 13.175781 353.132812 L 5.886719 353.132812 C 5.746094 353.132812 5.605469 353.066406 5.539062 352.996094 C 5.46875 352.855469 5.398438 352.71875 5.46875 352.648438 L 10.746094 327.640625 L 11.160156 297.148438 C 11.160156 296.941406 11.296875 296.730469 11.507812 296.730469 C 15.671875 295.621094 19.90625 295.203125 24.210938 295.414062 C 27.957031 295.621094 31.636719 296.316406 35.179688 297.425781 C 35.316406 297.289062 35.386719 297.425781 35.457031 297.636719 Z M 4.566406 296.386719 C 4.21875 296.800781 3.871094 297.21875 3.59375 297.703125 C 2.761719 298.957031 2.484375 300.066406 2.207031 300.832031 C 1.996094 301.523438 1.859375 302.011719 1.375 302.011719 C 1.234375 302.011719 1.09375 301.941406 0.957031 301.804688 C 0.332031 301.109375 0.0546875 297.914062 0.125 295.34375 C 0.191406 293.605469 0.46875 291.871094 0.957031 290.132812 C 1.027344 289.925781 1.304688 289.71875 1.511719 289.785156 C 1.789062 289.855469 1.925781 290.132812 1.859375 290.34375 C 1.441406 292.007812 1.164062 293.675781 1.09375 295.34375 C 0.957031 297.566406 1.234375 299.511719 1.441406 300.484375 C 1.648438 299.71875 2.066406 298.539062 2.898438 297.21875 C 3.316406 296.523438 3.871094 295.898438 4.425781 295.273438 C 4.496094 295.203125 4.703125 295.132812 4.84375 295.132812 C 4.984375 295.132812 5.121094 295.273438 5.191406 295.34375 C 5.539062 295.96875 5.746094 296.246094 5.886719 296.453125 C 6.023438 295.96875 6.089844 294.648438 5.605469 290.621094 C 5.605469 290.34375 5.746094 290.132812 6.023438 290.132812 C 6.300781 290.0625 6.507812 290.273438 6.507812 290.550781 C 7.273438 296.730469 6.785156 297.359375 6.160156 297.566406 C 5.46875 297.636719 5.050781 297.148438 4.566406 296.386719 " fill-opacity="1" fill-rule="nonzero"/><path fill="rgb(29.798889%, 43.528748%, 74.899292%)" d="M 334.019531 230.953125 C 331.796875 231.441406 327.769531 231.925781 322.972656 230.886719 C 317.703125 229.703125 314.019531 227.132812 312.214844 225.675781 L 321.175781 211.089844 L 315.335938 207.058594 C 310.972656 211.089844 308.117188 214.980469 306.382812 217.828125 C 303.683594 222.0625 302.21875 224.355469 302.640625 227.34375 C 303.128906 231.09375 306.25 233.523438 309.507812 235.957031 C 311.589844 237.554688 315.335938 239.984375 320.890625 241.304688 C 321.175781 252.347656 321.445312 263.460938 321.792969 274.507812 C 324.917969 275.480469 329.429688 276.453125 334.921875 276.519531 C 340.613281 276.519531 345.332031 275.480469 348.519531 274.507812 L 348.519531 246.027344 C 349.84375 246.582031 351.988281 247.695312 354.007812 249.917969 C 355.808594 251.863281 356.710938 253.738281 357.273438 255.058594 C 357.683594 261.238281 358.097656 267.492188 358.523438 273.671875 L 366.503906 273.324219 C 366.429688 271.101562 366.296875 267.976562 365.871094 264.226562 C 364.96875 256.515625 364.136719 249.429688 359.765625 242.414062 C 357.890625 239.359375 355.460938 235.46875 350.539062 233.039062 C 345.949219 230.816406 341.578125 230.953125 339.355469 231.164062 C 338.9375 232.34375 337.757812 233.109375 336.578125 233.039062 C 335.328125 232.761719 334.363281 231.996094 334.019531 230.953125 Z M 29.550781 254.292969 L 47.113281 260.199219 L 64.121094 246.515625 L 67.3125 248.804688 C 64.257812 253.460938 61.34375 257.140625 59.121094 259.851562 C 54.675781 265.128906 52.734375 266.519531 50.375 267.074219 C 48.984375 267.421875 47.320312 267.28125 43.988281 267.074219 C 40.726562 266.867188 38.015625 266.519531 36.074219 266.171875 C 35.660156 270.824219 35.449219 275.828125 35.449219 281.175781 C 35.449219 287.011719 35.660156 292.496094 36.074219 297.5 C 32.117188 297.707031 27.8125 297.777344 23.234375 297.636719 C 19.136719 297.5 15.25 297.21875 11.640625 296.875 C 12.265625 292.84375 12.75 288.398438 12.960938 283.46875 C 13.167969 278.742188 13.097656 274.4375 12.820312 270.546875 C 11.015625 273.742188 9.140625 276.9375 7.335938 280.0625 L 6.710938 290.484375 L 0.742188 290.207031 C 0.601562 286.453125 0.949219 281.035156 2.960938 274.855469 C 6.226562 264.992188 12.128906 258.667969 15.320312 255.683594 L 24.550781 254.363281 C 24.621094 254.503906 25.457031 255.613281 26.980469 255.683594 C 28.507812 255.683594 29.480469 254.433594 29.550781 254.292969 " fill-opacity="1" fill-rule="nonzero"/></svg>